<?xml version="1.0" encoding="UTF-8" standalone="no"?>
<!-- Created with Inkscape (http://www.inkscape.org/) -->

<svg
   width="32mm"
   height="32mm"
   viewBox="0 0 32 32.000001"
   version="1.1"
   id="svg4402"
   inkscape:version="1.1.1 (3bf5ae0d25, 2021-09-20)"
   sodipodi:docname="flavico.svg"
   inkscape:export-filename="Y:\app\static\images\logo.png"
   inkscape:export-xdpi="96"
   inkscape:export-ydpi="96"
   xmlns:inkscape="http://www.inkscape.org/namespaces/inkscape"
   xmlns:sodipodi="http://sodipodi.sourceforge.net/DTD/sodipodi-0.dtd"
   xmlns="http://www.w3.org/2000/svg"
   xmlns:svg="http://www.w3.org/2000/svg"
   xmlns:rdf="http://www.w3.org/1999/02/22-rdf-syntax-ns#"
   xmlns:cc="http://creativecommons.org/ns#"
   xmlns:dc="http://purl.org/dc/elements/1.1/">
  <defs
     id="defs4396" />
  <sodipodi:namedview
     id="base"
     pagecolor="#000000"
     bordercolor="#666666"
     borderopacity="1.0"
     inkscape:pageopacity="1"
     inkscape:pageshadow="2"
     inkscape:zoom="3.959798"
     inkscape:cx="70.45814"
     inkscape:cy="75.635171"
     inkscape:document-units="px"
     inkscape:current-layer="layer1"
     showgrid="false"
     fit-margin-top="0"
     fit-margin-left="0"
     fit-margin-right="0"
     fit-margin-bottom="0"
     inkscape:window-width="1920"
     inkscape:window-height="1017"
     inkscape:window-x="1912"
     inkscape:window-y="-8"
     inkscape:window-maximized="1"
     inkscape:pagecheckerboard="0" />
  <metadata
     id="metadata4399">
    <rdf:RDF>
      <cc:Work
         rdf:about="">
        <dc:format>image/svg+xml</dc:format>
        <dc:type
           rdf:resource="http://purl.org/dc/dcmitype/StillImage" />
      </cc:Work>
    </rdf:RDF>
  </metadata>
  <g
     inkscape:label="Layer 1"
     inkscape:groupmode="layer"
     id="layer1"
     transform="translate(-76.079543,167.54216)">
    <path
       id="path1296-6"
       style="fill:#000080;stroke:#000080;stroke-width:0.0540722"
       d="m 91.390096,-166.71243 c -0.709669,0.008 -1.28903,0.0396 -1.334549,0.10059 -0.03421,0.0458 -0.175671,0.75766 -0.314385,1.58188 -0.138707,0.8242 -0.303275,1.80281 -0.365742,2.1747 -0.145223,0.86452 -0.01208,0.74126 -1.548201,1.433 -1.686344,0.75939 -1.369475,0.80779 -3.030674,-0.46298 -1.717621,-1.31394 -1.896952,-1.44662 -1.954722,-1.44662 -0.179842,0 -2.899565,3.18355 -2.833629,3.3169 0.07155,0.14467 1.044838,1.73327 1.751332,2.85859 0.437811,0.69732 0.482974,0.81423 0.404987,1.0487 -0.175925,0.52889 -1.127666,2.93881 -1.195277,3.02656 -0.05665,0.0735 -0.260065,0.14329 -0.666085,0.22853 -1.594336,0.33473 -2.219441,0.46335 -2.706669,0.55678 -0.740212,0.14192 -0.673207,-0.10114 -0.673207,2.44242 0,2.6583 -0.375475,2.2275 2.436335,2.79518 1.673959,0.33795 1.450059,0.12228 2.157603,2.07851 0.739843,2.04552 0.864572,1.42504 -0.838507,4.17189 -0.401075,0.64687 -0.729247,1.19897 -0.729247,1.2269 0,0.0279 0.641477,0.76206 1.425472,1.63133 0.783998,0.86928 1.444256,1.58052 1.467214,1.58052 0.04077,0 1.045976,-0.75588 2.404404,-1.80804 0.499524,-0.38693 0.678797,-0.53811 0.931803,-0.48389 l 1.004552,9.5e-4 c 3.71733,0.78345 4.405432,-3.44284 3.943014,-6.83637 -0.783267,-5.22297 -1.137843,-6.69781 -2.298823,-6.00768 -0.648762,0.38565 -1.731801,1.81155 -2.84143,1.65076 -0.908196,-0.13157 -2.011641,-1.28658 -1.678989,-2.39567 1.050293,-3.50181 5.051461,-1.25393 7.002138,-1.37524 1.754944,-0.15002 5.180374,-1.35951 6.97799,-1.07412 2.245616,0.35654 1.634483,3.12292 -0.431103,3.50032 -1.311753,0.23965 -3.634699,-0.0598 -4.730653,-0.59009 -1.433342,-0.69352 -1.581744,2.69949 -0.337627,8.15772 0.69171,3.99082 0.211382,4.97792 4.012794,4.98283 l 1.33193,9.5e-4 c 0.321054,0.0603 0.772641,0.44463 2.000585,1.39111 0.45137,0.34792 0.90949,0.69312 1.0181,0.76713 0.17991,0.12259 3.05953,-2.79751 3.05953,-3.10252 0,-0.0318 -0.47388,-0.82598 -1.05312,-1.76495 -1.28751,-2.08714 -1.22296,-1.62741 -0.50744,-3.61534 0.71916,-1.99811 0.40435,-1.73365 2.58643,-2.1732 0.97325,-0.19606 1.82149,-0.39219 1.88496,-0.43584 0.12114,-0.0832 0.18699,-4.3092 0.0703,-4.51373 -0.0372,-0.0654 -1.14856,-0.31738 -3.55492,-0.80619 -0.44887,-0.0912 -0.41177,-0.0305 -1.09307,-1.79031 -0.69072,-1.7842 -0.66518,-1.59201 -0.2929,-2.20106 0.38707,-0.63325 1.02173,-1.65889 1.44624,-2.33719 0.63029,-1.00708 0.74746,-0.67974 -0.89787,-2.5092 -0.78903,-0.87732 -1.45474,-1.59506 -1.47927,-1.59506 -0.0245,0 -0.77386,0.55571 -1.665164,1.23497 -2.040403,1.555 -1.613378,1.46137 -3.240481,0.7107 -1.665611,-0.76843 -1.452673,-0.42984 -1.869571,-2.97178 -0.187681,-1.14435 -0.362597,-2.13835 -0.388765,-2.2089 -0.03818,-0.10279 -1.582887,-0.15815 -2.765661,-0.14552 z"
       sodipodi:nodetypes="ccscscsccssscsssssssscccssscssscccssscsscssssssscscscc"
       inkscape:export-filename="Y:\app\static\images\logo.png"
       inkscape:export-xdpi="96"
       inkscape:export-ydpi="96" />
  </g>
</svg>
