<?xml version="1.0" encoding="UTF-8" standalone="no"?>
<svg
   xmlns:dc="http://purl.org/dc/elements/1.1/"
   xmlns:cc="http://creativecommons.org/ns#"
   xmlns:rdf="http://www.w3.org/1999/02/22-rdf-syntax-ns#"
   xmlns:svg="http://www.w3.org/2000/svg"
   xmlns="http://www.w3.org/2000/svg"
   xmlns:sodipodi="http://sodipodi.sourceforge.net/DTD/sodipodi-0.dtd"
   xmlns:inkscape="http://www.inkscape.org/namespaces/inkscape"
   height="512"
   viewBox="0 0 45 58"
   width="512"
   version="1.1"
   id="svg35"
   sodipodi:docname="3d-laser.svg"
   inkscape:version="1.0.2-2 (e86c870879, 2021-01-15)">
  <metadata
     id="metadata41">
    <rdf:RDF>
      <cc:Work
         rdf:about="">
        <dc:format>image/svg+xml</dc:format>
        <dc:type
           rdf:resource="http://purl.org/dc/dcmitype/StillImage" />
        <dc:title></dc:title>
      </cc:Work>
    </rdf:RDF>
  </metadata>
  <defs
     id="defs39" />
  <sodipodi:namedview
     pagecolor="#ffffff"
     bordercolor="#666666"
     borderopacity="1"
     objecttolerance="10"
     gridtolerance="10"
     guidetolerance="10"
     inkscape:pageopacity="0"
     inkscape:pageshadow="2"
     inkscape:window-width="1858"
     inkscape:window-height="1057"
     id="namedview37"
     showgrid="false"
     inkscape:zoom="1.2291505"
     inkscape:cx="297.28815"
     inkscape:cy="296.79825"
     inkscape:window-x="1912"
     inkscape:window-y="-8"
     inkscape:window-maximized="1"
     inkscape:current-layer="svg35"
     inkscape:document-rotation="0" />
  <g
     id="018---Laser-Cutting"
     fill="none"
     transform="matrix(0.63494592,0,0,0.63494592,1.6153847,5.5334024)">
    <path
       id="path5"
       d="m 23,50 c -0.552285,0 -1,-0.447715 -1,-1 V 34 c 0,-0.552285 0.447715,-1 1,-1 0.552285,0 1,0.447715 1,1 v 15 c 0,0.552285 -0.447715,1 -1,1 z"
       fill="#e64c3c" />
    <path
       id="path7"
       d="m 34,7 v 8 L 23,17 12,15 V 7 Z"
       fill="#3b97d3" />
    <path
       id="path9"
       d="M 34,15 28,25 23,27 18,25 12,15 Z"
       fill="#3f5c6c" />
    <path
       id="path11"
       d="m 18,25 h 10 c 0,4.1 0,3.92 -0.14,4.24 l -2.57,4.27 c -0.180064,0.3037 -0.506933,0.489938 -0.86,0.49 h -2.86 c -0.353067,-6.2e-5 -0.679936,-0.1863 -0.86,-0.49 L 18.14,29.24 C 18,28.92 18,29.1 18,25 Z"
       fill="#bdc3c7" />
    <rect
       id="Rectangle-path"
       fill="#2980ba"
       height="9"
       rx="1"
       width="32"
       x="7"
       y="0" />
    <g
       fill="#285680"
       id="g28">
      <path
         id="path14"
         d="M 12,0 V 3 C 12,3.5522848 11.552285,4 11,4 10.447715,4 10,3.5522848 10,3 V 0 Z" />
      <path
         id="path16"
         d="M 16,0 V 3 C 16,3.5522848 15.552285,4 15,4 14.447715,4 14,3.5522848 14,3 V 0 Z" />
      <path
         id="path18"
         d="M 20,0 V 3 C 20,3.5522848 19.552285,4 19,4 18.447715,4 18,3.5522848 18,3 V 0 Z" />
      <path
         id="path20"
         d="M 24,0 V 3 C 24,3.5522848 23.552285,4 23,4 22.447715,4 22,3.5522848 22,3 V 0 Z" />
      <path
         id="path22"
         d="M 28,0 V 3 C 28,3.5522848 27.552285,4 27,4 26.447715,4 26,3.5522848 26,3 V 0 Z" />
      <path
         id="path24"
         d="M 32,0 V 3 C 32,3.5522848 31.552285,4 31,4 30.447715,4 30,3.5522848 30,3 V 0 Z" />
      <path
         id="path26"
         d="M 36,0 V 3 C 36,3.5522848 35.552285,4 35,4 34.447715,4 34,3.5522848 34,3 V 0 Z" />
    </g>
    <path
       id="path30"
       d="m 30.26,37.05 c 2.81,-0.93 3.83,-3.27 2.58,-6 C 31.93944,29.424394 31.842982,27.47324 32.578814,25.766736 33.314646,24.060232 34.799703,22.791017 36.6,22.33 c 0.339402,-0.112539 0.713062,-0.03546 0.980224,0.202202 0.267163,0.237662 0.38724,0.5998 0.315,0.95 -0.07224,0.3502 -0.325822,0.635259 -0.665224,0.747798 -2.81,0.93 -3.84,3.27 -2.58,6 0.920519,1.630945 1.0267,3.59817 0.287079,5.318721 C 34.197458,37.269273 32.696874,38.54579 30.88,39 30.341522,39.171208 29.766208,38.873478 29.595,38.335 29.423792,37.796522 29.721522,37.221208 30.26,37.05 Z"
       fill="#95a5a5" />
    <path
       id="path32"
       d="m 37.77,27.22 c 2.81,-0.92 3.84,-3.26 2.58,-6 C 39.453571,19.593822 39.360589,17.644221 40.098189,15.940111 40.835788,14.236002 42.320844,12.969432 44.12,12.51 c 0.521744,-0.171671 1.084291,0.109603 1.26,0.63 0.08511,0.253246 0.06535,0.53002 -0.05488,0.768604 -0.120231,0.238584 -0.330933,0.419137 -0.58512,0.501396 -2.81,0.92 -3.83,3.27 -2.58,6 0.896574,1.624798 0.990852,3.573029 0.255352,5.276805 C 41.679853,27.390582 40.197359,28.658139 38.4,29.12 c -0.339402,0.112539 -0.713062,0.03546 -0.980224,-0.202202 -0.267163,-0.237662 -0.38724,-0.5998 -0.315,-0.95 0.07224,-0.3502 0.325822,-0.635259 0.665224,-0.747798 z"
       fill="#95a5a5" />
  </g>
  <path
     style="fill:#000000;stroke-width:0.0841158"
     d="m 15.484759,47.589149 c 0,-1.123636 0.567941,-2.046554 1.556146,-2.528771 0.351824,-0.171681 0.575453,-0.210398 1.36795,-0.236834 l 0.947371,-0.0316 -0.02209,-2.951716 -0.0221,-2.951714 -1.184784,-0.424841 C 16.787041,37.983095 16.444665,37.792387 16.067758,37.316503 15.668074,36.811862 15.48476,36.245232 15.48476,35.514447 V 34.88448 h 5.331912 5.331911 l 5.287732,3.144864 c 5.017179,2.983955 5.289057,3.157952 5.313637,3.400628 0.09367,0.924827 -0.77617,1.863275 -1.729255,1.865637 -0.187765,5.04e-4 -0.189261,0.01036 -0.189261,1.251265 v 1.250796 l 0.512722,0.100872 c 0.426383,0.08388 0.574047,0.162197 0.876911,0.465062 0.39686,0.39686 0.543822,0.77782 0.544566,1.41165 l 4.69e-4,0.399551 H 26.125431 15.484759 Z M 25.7146,47.060269 C 25.62776,46.615164 25.238723,46.142908 24.747504,45.886293 24.318075,45.661956 24.244885,45.651326 23.129708,45.651326 H 21.96169 V 41.5717 37.492076 h 1.073034 c 0.590169,0 1.201418,-0.03682 1.358333,-0.08182 0.622953,-0.178661 1.208356,-0.76787 1.320624,-1.329211 l 0.05426,-0.271286 h -4.726679 -4.726677 l 0.05896,0.18926 c 0.03243,0.104094 0.08803,0.2671 0.123568,0.362235 0.124146,0.332368 0.54027,0.735844 0.960938,0.931733 0.379855,0.176883 0.544479,0.197534 1.580613,0.19827 l 1.156594,8.16e-4 v 4.079625 4.079626 H 19.09048 c -0.607627,0 -1.251401,0.04393 -1.430608,0.09762 -0.586792,0.175806 -1.082215,0.712469 -1.288203,1.395436 l -0.05709,0.189262 h 4.726677 4.726679 z m 10.126227,0.196738 c 0,-0.169842 -0.524446,-0.504562 -0.862588,-0.550534 -0.466424,-0.06341 -9.119145,-0.886915 -9.319017,-0.886915 -0.130567,0 -0.110426,0.06369 0.135902,0.42973 0.159053,0.236351 0.31274,0.57702 0.341526,0.757044 l 0.05234,0.327314 h 4.825918 c 2.847302,0 4.825918,-0.03142 4.825917,-0.07664 z m -1.869839,-2.790426 -0.02277,-1.68944 -5.719011,-2.348127 c -3.145456,-1.29147 -5.767131,-2.348127 -5.825945,-2.348127 -0.08516,0 -0.102466,0.723642 -0.08499,3.5539 l 0.02194,3.553901 1.303797,0.06217 c 0.717089,0.03419 3.158556,0.247222 5.425482,0.473398 2.266926,0.226175 4.302265,0.415849 4.522976,0.421498 l 0.401292,0.01027 z m 1.616032,-2.30467 c 0.139594,-0.13374 0.253041,-0.302323 0.252104,-0.374629 -0.0011,-0.08363 -1.746934,-1.168458 -4.797781,-2.98123 -2.637842,-1.56737 -4.806861,-2.835419 -4.820041,-2.817886 -0.01318,0.01753 -0.08716,0.202684 -0.164387,0.411446 -0.320822,0.867186 -1.072193,1.403887 -2.084194,1.488729 -0.36975,0.031 -0.551833,0.07604 -0.476903,0.117973 0.06667,0.0373 2.46465,1.028683 5.328861,2.203057 2.86421,1.174375 5.264433,2.159054 5.333829,2.188177 0.0694,0.02912 0.362093,0.04273 0.650439,0.03024 0.446868,-0.01936 0.561736,-0.05861 0.778073,-0.265873 z"
     id="path38" />
</svg>
