<svg id="Layer_1" enable-background="new 0 0 512 512" height="512" viewBox="0 0 512 512" width="512" xmlns="http://www.w3.org/2000/svg"><g fill="#ff3980"><path d="m224.133 209.878v79.051c0 35.787 19.667 66.975 48.778 83.362v-162.413z"/><path d="m0 448.266h272.911v63.734h-272.911z"/></g><g><path d="m416.398 320.797h-96.664c-17.6 0-31.867-14.268-31.867-31.867v-79.051h-31.867v150.301c16.914 15.14 39.247 24.351 63.735 24.351h96.664c17.6 0 31.867 14.268 31.867 31.867 0 17.6-14.268 31.867-31.867 31.867h-160.399v63.735h160.398c52.8 0 95.602-42.802 95.602-95.601 0-52.8-42.802-95.602-95.602-95.602z" fill="#e20a6c"/></g><g><g><g><g><path d="m186.536 149.536 37.597 96.177h43.824l4.954-96.177-16.911-30.723z" fill="#d0e8ff"/><path d="m256 118.813v126.9h31.867l37.598-96.177z" fill="#9dcfff"/></g><path d="m186.536 0h86.376v89.404h-86.376z" fill="#3e34c2"/><path d="m256 0h69.465v89.404h-69.465z" fill="#23238e"/></g><path d="m146.541 73.321h126.37v76.214h-126.37z" fill="#6e67d5"/><path d="m256 73.321h109.459v76.214h-109.459z" fill="#554cce"/></g></g></svg>