<?xml version="1.0" encoding="UTF-8" standalone="no"?>
<svg
   xmlns:dc="http://purl.org/dc/elements/1.1/"
   xmlns:cc="http://creativecommons.org/ns#"
   xmlns:rdf="http://www.w3.org/1999/02/22-rdf-syntax-ns#"
   xmlns:svg="http://www.w3.org/2000/svg"
   xmlns="http://www.w3.org/2000/svg"
   xmlns:sodipodi="http://sodipodi.sourceforge.net/DTD/sodipodi-0.dtd"
   xmlns:inkscape="http://www.inkscape.org/namespaces/inkscape"
   id="Capa_1"
   enable-background="new 0 0 512.085 512.085"
   height="400"
   viewBox="0 0 512.085 400.06641"
   width="512"
   version="1.1"
   sodipodi:docname="approved.svg"
   inkscape:version="1.0.2-2 (e86c870879, 2021-01-15)">
  <metadata
     id="metadata43">
    <rdf:RDF>
      <cc:Work
         rdf:about="">
        <dc:format>image/svg+xml</dc:format>
        <dc:type
           rdf:resource="http://purl.org/dc/dcmitype/StillImage" />
        <dc:title></dc:title>
      </cc:Work>
    </rdf:RDF>
  </metadata>
  <defs
     id="defs41" />
  <sodipodi:namedview
     pagecolor="#ffffff"
     bordercolor="#666666"
     borderopacity="1"
     objecttolerance="10"
     gridtolerance="10"
     guidetolerance="10"
     inkscape:pageopacity="0"
     inkscape:pageshadow="2"
     inkscape:window-width="1920"
     inkscape:window-height="1027"
     id="namedview39"
     showgrid="false"
     inkscape:zoom="0.8691406"
     inkscape:cx="-83.794086"
     inkscape:cy="252.29611"
     inkscape:window-x="-8"
     inkscape:window-y="286"
     inkscape:window-maximized="1"
     inkscape:current-layer="Capa_1"
     inkscape:document-rotation="0" />
  <g
     id="g855"
     transform="matrix(0.96849892,0,0,0.96849892,568.26952,-52.773888)">
    <path
       style="fill:#d3edc6;stroke-width:1.00017"
       d="m -562.21545,427.31421 c -0.67481,-1.26089 -1.03536,-19.66655 -1.03536,-52.85378 0,-48.0595 0.10272,-51.01217 1.82905,-52.57447 1.67553,-1.51634 9.92294,-1.65419 98.26631,-1.64249 l 96.43727,0.0128 7.80183,2.49159 c 22.65087,7.2338 50.76025,7.2338 73.41112,0 7.75731,-2.47737 8.02326,-2.49166 46.60372,-2.50435 l 38.8019,-0.0128 2.45495,-2.45496 c 1.35023,-1.35023 2.45496,-3.15053 2.45496,-4.00067 0,-1.28569 1.5983,-1.5457 9.50158,-1.5457 8.71553,0 9.50157,0.15947 9.50157,1.92774 0,1.06025 1.18589,2.86055 2.6353,4.00066 2.57392,2.02465 3.64412,2.07293 45.95092,2.07293 h 43.315632 l 1.556969,2.22287 c 1.358825,1.94001 1.556958,8.59372 1.556958,52.28618 0,43.69245 -0.198133,50.34616 -1.556958,52.28617 l -1.556969,2.22288 H -322.7324 c -234.72262,0 -238.46387,-0.0302 -239.48305,-1.93459 z m 27.06402,-22.66186 c 0.87723,-0.79023 2.18698,-3.23057 2.91054,-5.42299 l 1.31557,-3.98621 h 9.36624 c 9.30948,0 9.37229,0.0167 10.3623,2.75046 1.94408,5.36832 3.25886,7.13434 6.22657,8.3636 3.63526,1.50578 7.32217,-0.13093 9.65421,-4.28575 1.39686,-2.48868 0.96994,-3.95791 -8.27031,-28.46201 -5.35877,-14.21084 -10.70223,-26.85872 -11.87438,-28.10641 -2.62989,-2.79938 -8.61482,-3.0658 -11.64203,-0.51823 -2.23903,1.88426 -21.1456,50.33473 -21.1456,54.18824 0,6.86914 7.88977,10.16995 13.09689,5.4793 z m 10.98319,-26.16198 c 0.0418,-0.41257 0.66593,-2.32539 1.38684,-4.25071 0.89881,-2.40041 1.49424,-3.02908 1.89457,-2.00033 2.79599,7.18497 2.80601,7.00116 -0.38176,7.00116 -1.63666,0 -2.9415,-0.33755 -2.89965,-0.75012 z m 53.18275,25.60082 c 1.33831,-1.5816 1.75029,-3.89221 1.75029,-9.81653 v -7.74805 l 6.01331,-0.62851 c 7.40513,-0.77399 12.85229,-3.45371 16.83017,-8.27956 8.86506,-10.75486 4.75409,-27.47673 -8.07256,-32.83604 -2.58427,-1.07978 -7.04222,-1.54799 -14.73879,-1.54799 -16.1342,0 -15.03462,-2.2724 -15.03462,31.0709 0,17.24153 0.38688,27.79314 1.06555,29.06124 2.25735,4.2179 8.89666,4.61263 12.18665,0.72454 z m 1.75029,-39.85319 v -6.00099 h 4.00066 c 2.66712,0 4.66745,0.66678 6.001,2.00033 4.31416,4.31415 0.90166,10.00166 -6.001,10.00166 h -4.00066 z m 49.35087,41.89669 c 3.43154,-1.56352 4.6581,-4.93371 4.6581,-12.79901 v -6.81417 l 5.65366,-0.58352 c 7.55743,-0.77998 14.13442,-4.31482 17.84109,-9.58876 2.71779,-3.86695 3.00965,-5.03264 3.00965,-12.02062 0,-6.60258 -0.36701,-8.28056 -2.50042,-11.43199 -1.37523,-2.03146 -4.26019,-4.92397 -6.41101,-6.4278 -3.68094,-2.57366 -4.65695,-2.75342 -16.61975,-3.06111 l -12.70915,-0.32687 -2.13337,2.71213 c -2.05554,2.6132 -2.13336,3.67686 -2.13336,29.15859 v 26.44646 l 2.92357,2.92356 c 3.18148,3.18149 4.70009,3.50846 8.42099,1.81311 z m 4.6581,-41.89669 v -6.00099 h 3.54604 c 2.43138,0 4.31773,0.77168 6.00099,2.45495 2.98486,2.98486 3.01677,3.56221 0.38204,6.91174 -1.61076,2.04775 -2.9487,2.6353 -6.001,2.6353 h -3.92807 z m 51.00847,40.40725 c 0.90061,-0.88132 1.70013,-4.09999 2.00033,-8.05286 l 0.50008,-6.58474 6.43984,7.57544 c 7.4477,8.76103 10.97783,10.78069 14.95094,8.55371 3.53601,-1.98198 5.39634,-6.01916 4.21066,-9.13773 -0.508,-1.33614 -3.41717,-5.28848 -6.46482,-8.78297 l -5.54119,-6.35362 2.74649,-1.67024 c 10.73405,-6.52776 12.75668,-22.25247 3.93885,-30.62199 -5.77144,-5.47801 -8.57801,-6.33574 -20.73118,-6.33574 -16.15465,0 -15.05216,-2.27576 -15.05216,31.0709 0,17.24153 0.38688,27.79314 1.06554,29.06124 2.09256,3.90997 8.54169,4.60077 11.93662,1.2786 z m 2.00033,-41.40741 c 0,-4.98379 0.0112,-5.00083 3.27803,-5.00083 3.97311,0 7.72379,2.42841 7.72379,5.00083 0,2.57241 -3.75068,5.00083 -7.72379,5.00083 -3.26686,0 -3.27803,-0.0171 -3.27803,-5.00083 z m 80.47309,40.65382 c 6.88649,-3.15275 11.54619,-7.42172 15.09637,-13.83052 2.6823,-4.84208 2.94689,-6.17286 2.94689,-14.82131 0,-11.06168 -1.93645,-16.20353 -8.61908,-22.88615 -6.68262,-6.68263 -11.82447,-8.61908 -22.88615,-8.61908 -8.64845,0 -9.97922,0.26459 -14.82131,2.94689 -13.95079,7.72811 -20.04621,24.0782 -14.74459,39.55028 2.77846,8.10852 11.12729,16.15256 19.64649,18.92923 7.90321,2.5759 15.93462,2.13989 23.38138,-1.26934 z m -20.28347,-14.33121 c -9.96597,-4.91104 -12.03064,-18.31844 -4.04992,-26.29915 6.08327,-6.08326 15.45753,-6.20078 22.01557,-0.27598 8.61636,7.78437 6.82665,21.18861 -3.49631,26.18587 -5.12283,2.47992 -9.96255,2.61012 -14.46934,0.38926 z m 76.47758,14.25206 c 2.20289,-2.50046 18.35854,-49.31007 18.35854,-53.19231 0,-3.67823 -3.74629,-7.38569 -7.46304,-7.38569 -5.39921,0 -6.99516,2.39184 -12.16725,18.23485 -2.64557,8.10385 -5.09084,14.40489 -5.43392,14.00233 -0.34307,-0.40257 -2.75314,-7.03299 -5.35571,-14.73427 -2.80104,-8.28854 -5.56363,-14.71655 -6.77006,-15.75261 -4.35614,-3.74099 -12.81833,-0.55865 -12.81833,4.82054 0,2.31556 14.82354,46.15126 17.54829,51.89324 2.81359,5.92923 9.8155,6.97887 14.10148,2.11392 z m 62.45649,0.57138 c 2.65957,-3.28836 2.4341,-7.70707 -0.54527,-10.68645 -2.17268,-2.17269 -3.32266,-2.45495 -10.00166,-2.45495 h -7.54671 v -4.00067 -4.00066 h 6.57802 c 5.93688,0 6.86297,-0.28495 9.50157,-2.92357 3.17193,-3.17192 3.55875,-5.01682 1.76004,-8.39405 -1.98812,-3.73283 -4.10299,-4.62032 -11.08851,-4.65323 l -6.75112,-0.0318 v -3.89476 -3.89476 l 8.09931,-0.36781 c 7.05144,-0.32023 8.34542,-0.67176 10.00166,-2.71713 2.82063,-3.48332 2.48647,-8.52421 -0.73294,-11.0566 -2.35127,-1.84952 -4.00175,-2.07293 -15.31399,-2.07293 -11.35388,0 -12.90613,0.21191 -14.85549,2.02802 -1.19725,1.11541 -2.42995,3.03654 -2.73932,4.26918 -0.30937,1.23263 -0.42734,13.63689 -0.26215,27.56503 l 0.30035,25.32386 2.89529,2.48887 c 2.81251,2.41772 3.26549,2.47955 15.84326,2.16223 12.20607,-0.30793 13.05741,-0.46193 14.85766,-2.68781 z m 51.63194,-0.73513 c 10.48918,-5.34648 15.971642,-16.97826 15.040107,-31.90963 -0.836549,-13.40885 -6.077747,-21.99794 -16.254307,-26.63697 -3.16081,-1.44085 -6.55751,-1.82833 -16.18011,-1.84568 -17.52597,-0.0316 -16.49683,-2.09137 -16.12014,32.26331 l 0.29493,26.90053 2.94621,2.53282 c 2.84213,2.44333 3.32674,2.51714 13.71628,2.08907 9.4537,-0.38951 11.47738,-0.80427 16.55703,-3.39345 z m -17.71694,-28.90901 v -16.50274 h 3.59947 c 9.00641,0 13.52837,5.50334 13.52837,16.46437 0,10.5492 -4.62294,16.54111 -12.76198,16.54111 h -4.36586 z m -445.0739,-62.88801 c 0,-0.20768 0.78763,-0.99531 1.75029,-1.75029 1.58632,-1.24407 1.6217,-1.2087 0.37762,0.37763 -1.30658,1.66602 -2.12791,2.19584 -2.12791,1.37266 z m 501.955782,-1.37266 c -1.244076,-1.58633 -1.2087,-1.6217 0.377623,-0.37763 0.96266,0.75498 1.750291,1.54261 1.750291,1.75029 0,0.82318 -0.821327,0.29336 -2.127914,-1.37266 z m -488.140982,-5.9341 c 0.72199,-0.28892 1.58464,-0.25339 1.91698,0.0789 0.33235,0.33235 -0.25837,0.56874 -1.31271,0.52531 -1.16514,-0.048 -1.40214,-0.28499 -0.60427,-0.60426 z m 475.078874,0 c 0.72199,-0.28892 1.584643,-0.25339 1.916988,0.0789 0.332345,0.33235 -0.258383,0.56874 -1.312718,0.52531 -1.165143,-0.048 -1.402133,-0.28499 -0.60427,-0.60426 z M -234.19618,291.72596 c 1.29197,-1.37523 2.57406,-2.50041 2.84911,-2.50041 0.27504,0 -0.55698,1.12518 -1.84894,2.50041 -1.29197,1.37523 -2.57406,2.50042 -2.8491,2.50042 -0.27505,0 0.55697,-1.12519 1.84893,-2.50042 z m -177.6245,-0.75012 -1.9053,-2.25038 2.25037,1.90531 c 2.11479,1.79052 2.70569,2.59544 1.90531,2.59544 -0.1898,0 -1.20246,-1.01267 -2.25038,-2.25037 z m 67.17771,-44.87984 -2.69863,-2.12274 2.82275,-1.71661 c 2.50171,-1.52138 69.81759,-73.51208 73.12931,-78.20785 0.72216,-1.02397 1.38377,-2.80101 1.47024,-3.94898 0.14363,-1.90663 0.39779,-1.81798 2.93768,1.02466 2.13948,2.39449 2.78046,4.11708 2.78046,7.47234 0,5.06138 2.79542,1.70115 -39.75074,47.78243 -14.98677,16.23201 -28.39767,30.03626 -29.80201,30.67612 -3.85826,1.75794 -7.88567,1.40311 -10.88906,-0.95937 z m -9.57313,-8.379 c -2.42944,-2.47542 -4.19212,-4.50075 -3.91707,-4.50075 0.27504,0 2.4878,2.02533 4.91723,4.50075 2.42944,2.47541 4.19212,4.50074 3.91707,4.50074 -0.27504,0 -2.4878,-2.02533 -4.91723,-4.50074 z m 8.40638,-22.75378 -1.9053,-2.25038 2.25037,1.90531 c 2.11479,1.79052 2.70569,2.59544 1.90531,2.59544 -0.1898,0 -1.20246,-1.01267 -2.25038,-2.25037 z m 15.09752,-2.75046 c 0.99565,-1.10018 2.03532,-2.00033 2.31036,-2.00033 0.27505,0 -0.31454,0.90015 -1.3102,2.00033 -0.99565,1.10018 -2.03531,2.00033 -2.31036,2.00033 -0.27504,0 0.31454,-0.90015 1.3102,-2.00033 z m -117.26729,-9.50158 c 0.0111,-2.20036 0.21592,-2.98274 0.45515,-1.73862 0.23923,1.24411 0.23015,3.04441 -0.0202,4.00066 -0.25033,0.95625 -0.44607,-0.0617 -0.43497,-2.26204 z m 251.0215,-0.50008 c 0,-1.92532 0.20583,-2.71295 0.4574,-1.75029 0.25156,0.96266 0.25156,2.53792 0,3.50058 -0.25157,0.96266 -0.4574,0.17503 -0.4574,-1.75029 z m -121.25214,-3.50058 c 1.29197,-1.37523 2.57406,-2.50042 2.84911,-2.50042 0.27504,0 -0.55698,1.12519 -1.84894,2.50042 -1.29196,1.37523 -2.57406,2.50041 -2.8491,2.50041 -0.27505,0 0.55697,-1.12518 1.84893,-2.50041 z m 6.50108,-18.50307 c 2.1486,-2.20037 4.13159,-4.00067 4.40664,-4.00067 0.27504,0 -1.25787,1.8003 -3.40647,4.00067 -2.1486,2.20036 -4.13159,4.00066 -4.40663,4.00066 -0.27505,0 1.25787,-1.8003 3.40646,-4.00066 z M -332.39998,77.507283 c 0.72199,-0.288919 1.58463,-0.253386 1.91699,0.07896 0.33234,0.332347 -0.25839,0.568735 -1.31272,0.525307 -1.16514,-0.04799 -1.40213,-0.284988 -0.60427,-0.604267 z m 19.00315,0 c 0.72199,-0.288919 1.58465,-0.253386 1.91699,0.07896 0.33235,0.332347 -0.25838,0.568735 -1.31272,0.525307 -1.16514,-0.04799 -1.40213,-0.284988 -0.60427,-0.604267 z"
       id="path863" />
    <path
       style="fill:#abdf93;stroke-width:1.00017"
       d="m -350.34302,403.49452 c -1.24408,-1.58632 -1.2087,-1.6217 0.37762,-0.37762 1.66603,1.30658 2.19585,2.12791 1.37267,2.12791 -0.20768,0 -0.99532,-0.78763 -1.75029,-1.75029 z m 244.66818,-4.25071 c 0.99566,-1.10018 2.03532,-2.00033 2.31036,-2.00033 0.27505,0 -0.31454,0.90015 -1.31019,2.00033 -0.99566,1.10019 -2.03532,2.00034 -2.31037,2.00034 -0.27504,0 0.31455,-0.90015 1.3102,-2.00034 z m -230.45931,-36.5894 c 0.048,-1.16514 0.28499,-1.40213 0.60426,-0.60427 0.28892,0.72199 0.25339,1.58464 -0.0789,1.91699 -0.33236,0.33234 -0.56874,-0.25839 -0.52531,-1.31272 z m -8.08029,-52.41004 c -15.50639,-3.36389 -25.89835,-7.75352 -39.01861,-16.48172 -16.08688,-10.70174 -30.45466,-27.43674 -38.49341,-44.83557 -25.14128,-54.415 -2.23087,-118.33345 51.88923,-144.76739 5.59195,-2.73128 14.65737,-6.172207 20.14536,-7.646494 9.02706,-2.425014 11.64654,-2.680521 27.48108,-2.680521 15.81569,0 18.46704,0.257904 27.50457,2.675434 12.63444,3.379702 29.67582,11.817271 39.64009,19.626701 14.09174,11.04429 25.7019,33.00169 30.38101,57.45723 1.91019,9.98363 1.92054,30.9074 0.0206,41.74025 -8.49809,48.4547 -47.11363,86.83576 -95.93143,95.34887 -10.95207,1.90988 -12.97348,1.8725 -23.61855,-0.43679 z m 17.63987,-49.08977 c 3.5193,-1.70367 12.27976,-10.55865 38.7119,-39.12954 18.78979,-20.31015 35.238,-38.73066 36.55158,-40.93446 1.6747,-2.80965 2.53679,-6.08196 2.88522,-10.95159 0.45078,-6.30022 0.20529,-7.53701 -2.64515,-13.32709 -4.87857,-9.90977 -12.76329,-14.85164 -23.70509,-14.85754 -8.75189,-0.005 -14.07708,2.70927 -22.46329,11.44846 -7.64474,7.96651 -8.86874,10.57913 -7.12302,15.20407 1.11209,2.94626 0.94361,3.25837 -4.99094,9.24615 -5.45146,5.50035 -6.41469,6.09323 -8.5689,5.2742 -4.17872,-1.58874 -7.04398,0.0439 -14.40298,8.20714 l -7.1352,7.91492 -8.28559,-7.9545 c -8.58724,-8.24409 -14.22198,-11.08737 -21.97265,-11.08737 -13.85996,0 -25.25821,10.8317 -26.26935,24.96362 -0.7877,11.0092 1.3717,14.49566 20.86906,33.69407 9.02116,8.88285 17.92283,17.41054 19.78148,18.95041 7.85185,6.50522 19.44286,7.85081 28.76292,3.33905 z m -21.76812,-17.68665 c -1.24408,-1.58632 -1.2087,-1.6217 0.37762,-0.37762 0.96266,0.75497 1.75029,1.5426 1.75029,1.75029 0,0.82318 -0.82132,0.29336 -2.12791,-1.37267 z m -28.47218,-27.50457 -1.9053,-2.25037 2.25037,1.90531 c 2.11479,1.79051 2.70569,2.59544 1.90531,2.59544 -0.18979,0 -1.20246,-1.01267 -2.25038,-2.25038 z m 26.52373,-5.50091 -2.42471,-2.75046 2.75045,2.42472 c 2.57072,2.26626 3.20912,3.0762 2.42471,3.0762 -0.17915,0 -1.41685,-1.23771 -2.75045,-2.75046 z M -518.068,304.47846 c 22.37513,-0.15 59.28126,-0.15006 82.01362,-1.3e-4 22.73235,0.14992 4.42542,0.27266 -40.68207,0.27273 -45.10748,8e-5 -63.70668,-0.1226 -41.33155,-0.2726 z m 280.1212,0.003 c 6.46357,-0.17421 17.04033,-0.17421 23.5039,0 6.46358,0.17422 1.1752,0.31675 -11.75195,0.31675 -12.92715,0 -18.21552,-0.14253 -11.75195,-0.31675 z m 90.01495,-0.002 c 11.41439,-0.16047 30.09249,-0.16047 41.50689,0 11.414391,0.16047 2.07534,0.29177 -20.75345,0.29177 -22.82879,0 -32.16784,-0.1313 -20.75344,-0.29177 z"
       id="path861" />
    <path
       style="fill:#94d479;stroke-width:1.00017"
       d="m -441.98068,444.50137 c 65.87344,-0.14201 173.66634,-0.14201 239.53978,0 65.87343,0.14199 11.97698,0.25817 -119.76989,0.25817 -131.74687,0 -185.64332,-0.11618 -119.76989,-0.25817 z m 0.58034,-15.0025 c 65.64254,-0.14203 172.76032,-0.14202 238.03952,2e-5 65.27921,0.14202 11.57168,0.25822 -119.35005,0.25821 -130.92174,-10e-6 -184.332,-0.11621 -118.68947,-0.25823 z m -100.03435,-22.93695 c 0.722,-0.28892 1.58464,-0.25339 1.91699,0.0789 0.33234,0.33235 -0.25838,0.56874 -1.31272,0.52531 -1.16514,-0.048 -1.40213,-0.28499 -0.60427,-0.60426 z m 64.01063,0 c 0.72199,-0.28892 1.58463,-0.25339 1.91699,0.0789 0.33234,0.33235 -0.25838,0.56874 -1.31272,0.52531 -1.16514,-0.048 -1.40213,-0.28499 -0.60427,-0.60426 z m 107.01777,0 c 0.72199,-0.28892 1.58463,-0.25339 1.91699,0.0789 0.33234,0.33235 -0.25839,0.56874 -1.31272,0.52531 -1.16514,-0.048 -1.40213,-0.28499 -0.60427,-0.60426 z m 74.46889,-0.01 c 0.97313,-0.25359 2.32336,-0.23691 3.0005,0.0371 0.67714,0.27398 -0.11905,0.48145 -1.76932,0.46107 -1.65028,-0.0204 -2.20431,-0.24454 -1.23118,-0.49812 z m 63.55402,0.01 c 0.72199,-0.28892 1.58465,-0.25339 1.91699,0.0789 0.33235,0.33235 -0.25838,0.56874 -1.31272,0.52531 -1.16514,-0.048 -1.40213,-0.28499 -0.60427,-0.60426 z m 47.98466,-0.0583 c 3.45962,-0.19586 8.86052,-0.19425 12.00199,0.004 3.14146,0.19784 0.31086,0.35809 -6.29023,0.35612 -6.6011,-0.002 -9.17139,-0.16385 -5.71176,-0.35971 z m 49.99554,0.008 c 2.35243,-0.21127 5.95303,-0.2083 8.00133,0.007 2.0483,0.21491 0.12359,0.38778 -4.27714,0.38415 -4.40073,-0.004 -6.07662,-0.17947 -3.72419,-0.39076 z m -205.8106,-0.64426 c 0,-0.20768 0.78763,-0.99531 1.75029,-1.75029 1.58632,-1.24407 1.6217,-1.2087 0.37762,0.37763 -1.30658,1.66602 -2.12791,2.19584 -2.12791,1.37266 z m -75.58011,-12.37121 0.0676,-7.75457 3.0005,-0.0932 c 2.74522,-0.0853 2.76998,-0.0589 0.29103,0.31035 -2.62783,0.39143 -2.72028,0.62791 -3.06808,7.84782 l -0.3586,7.44422 0.0676,-7.75458 z m -14.99923,-18.75639 c 5.7e-4,-14.30238 0.14105,-20.01427 0.31216,-12.69308 0.17111,7.32117 0.17065,19.02312 -0.001,26.00432 -0.17168,6.98118 -0.31169,0.99113 -0.31112,-13.31124 z m 113.02016,22.25369 -2.93758,-3.25054 3.25054,2.93758 c 1.7878,1.61567 3.25054,3.07841 3.25054,3.25054 0,0.77269 -0.82527,0.0924 -3.5635,-2.93758 z m -38.03842,0 -1.9053,-2.25037 2.25037,1.9053 c 2.11479,1.79052 2.70569,2.59544 1.90531,2.59544 -0.1898,0 -1.20246,-1.01266 -2.25038,-2.25037 z m 81.60856,1.87275 c 0,-0.20768 0.78763,-0.99531 1.75029,-1.75029 1.58632,-1.24408 1.6217,-1.2087 0.37762,0.37762 -1.30658,1.66603 -2.12791,2.19585 -2.12791,1.37267 z m 77.44641,-24.12644 c -6.1e-4,-13.75229 0.14025,-19.51695 0.31303,-12.81035 0.17278,6.7066 0.17328,17.95847 10e-4,25.00415 -0.17217,7.04569 -0.31353,1.55848 -0.31414,-12.1938 z m 52.00974,-0.50009 c 0,-14.02733 0.14068,-19.76578 0.31261,-12.75211 0.17192,7.01366 0.17192,18.49057 0,25.50423 -0.17193,7.01366 -0.31261,1.27521 -0.31261,-12.75212 z m -376.99725,21.00349 -10.00166,-0.61277 9.69259,-0.19369 c 5.60242,-0.11196 9.95344,0.22835 10.31073,0.80646 0.33998,0.55009 0.47906,0.913 0.30907,0.80646 -0.16999,-0.10652 -4.80981,-0.46943 -10.31073,-0.80646 z m 357.43179,-1.75029 c -1.24408,-1.58632 -1.20871,-1.6217 0.37762,-0.37762 0.96266,0.75497 1.75029,1.5426 1.75029,1.75029 0,0.82317 -0.82133,0.29336 -2.12791,-1.37267 z m -13.09819,-1.98383 c 2.35243,-0.21128 5.95303,-0.20831 8.00133,0.007 2.0483,0.21491 0.12359,0.38778 -4.27714,0.38414 -4.40073,-0.004 -6.07662,-0.17947 -3.72419,-0.39075 z m -164.93137,-2.01684 c -1.24408,-1.58632 -1.2087,-1.62169 0.37762,-0.37762 1.66603,1.30659 2.19584,2.12792 1.37267,2.12792 -0.20769,0 -0.99532,-0.78764 -1.75029,-1.7503 z m 35.00581,-3.00049 c -1.24408,-1.58633 -1.2087,-1.6217 0.37762,-0.37763 0.96266,0.75498 1.75029,1.54261 1.75029,1.75029 0,0.82318 -0.82132,0.29336 -2.12791,-1.37266 z m -160.64911,-0.93949 c 0.96266,-0.25156 2.53792,-0.25156 3.50058,0 0.96266,0.25157 0.17503,0.45741 -1.75029,0.45741 -1.92532,0 -2.71295,-0.20584 -1.75029,-0.45741 z m 338.19787,-14.31305 c 0,-7.42623 0.15744,-10.46423 0.34989,-6.75112 0.19244,3.71312 0.19244,9.78913 0,13.50224 -0.19245,3.71312 -0.34989,0.67512 -0.34989,-6.75112 z m -48.6498,11.27848 c 1.7878,-0.22186 4.71328,-0.22186 6.50108,0 1.7878,0.22186 0.32505,0.40339 -3.25054,0.40339 -3.57559,0 -5.03834,-0.18153 -3.25054,-0.40339 z m 81.342455,-1.86024 c 0.04801,-1.16515 0.284988,-1.40213 0.604261,-0.60427 0.288918,0.72199 0.253392,1.58464 -0.07891,1.91699 -0.332346,0.33234 -0.568735,-0.25839 -0.525308,-1.31272 z M -525.2445,379.44133 c 0,-0.43964 1.57526,-0.61544 3.50058,-0.39066 1.92532,0.22477 3.50058,0.58447 3.50058,0.79933 0,0.21486 -1.57526,0.39066 -3.50058,0.39066 -1.92532,0 -3.50058,-0.3597 -3.50058,-0.79933 z m 413.14754,-0.78426 c 0.048,-1.16515 0.28499,-1.40214 0.60426,-0.60427 0.28892,0.72199 0.2534,1.58464 -0.0789,1.91698 -0.33234,0.33235 -0.56873,-0.25838 -0.52531,-1.31271 z m -214.91968,-3.91732 c 0.0204,-1.65028 0.24454,-2.20431 0.49812,-1.23118 0.25359,0.97313 0.23691,2.32336 -0.0371,3.0005 -0.27398,0.67714 -0.48145,-0.11905 -0.46107,-1.76932 z m 214.91968,-4.08401 c 0.048,-1.16515 0.28499,-1.40214 0.60426,-0.60427 0.28892,0.72199 0.2534,1.58464 -0.0789,1.91699 -0.33234,0.33234 -0.56873,-0.25839 -0.52531,-1.31272 z M -415.90628,364.238 c 0,-3.57559 0.18153,-5.03833 0.4034,-3.25054 0.22186,1.7878 0.22186,4.71328 0,6.50108 -0.22187,1.7878 -0.4034,0.32506 -0.4034,-3.25054 z m 318.811815,4.41741 c 0.04801,-1.16515 0.284988,-1.40214 0.604261,-0.60428 0.288918,0.72199 0.253392,1.58465 -0.07891,1.91699 -0.332346,0.33235 -0.568735,-0.25838 -0.525308,-1.31271 z m -81.364755,-1.13859 c 1.77552,-0.22095 4.92604,-0.22458 7.00116,-0.008 2.0751,0.21652 0.6224,0.39729 -3.22824,0.40173 -3.85064,0.004 -5.54846,-0.17271 -3.77292,-0.39365 z m -263.57651,-2.77874 c 0.0204,-1.65027 0.24454,-2.2043 0.49812,-1.23117 0.25358,0.97313 0.23691,2.32336 -0.0371,3.0005 -0.27397,0.67714 -0.48145,-0.11905 -0.46106,-1.76933 z m 263.57651,-6.22276 c 1.77552,-0.22095 4.92604,-0.22458 7.00116,-0.008 2.0751,0.21652 0.6224,0.39729 -3.22824,0.40173 -3.85064,0.004 -5.54846,-0.17271 -3.77292,-0.39366 z m -140.75107,-4.6566 c 0,-0.20769 0.78763,-0.99532 1.75029,-1.75029 1.58632,-1.24408 1.6217,-1.2087 0.37762,0.37762 -1.30659,1.66603 -2.12791,2.19585 -2.12791,1.37267 z m 213.90795,-3.373 c -1.24407,-1.58632 -1.2087,-1.6217 0.37763,-0.37762 0.96266,0.75497 1.75029,1.5426 1.75029,1.75029 0,0.82317 -0.82133,0.29336 -2.12792,-1.37267 z m -343.52448,-1.50025 -1.90531,-2.25037 2.25038,1.9053 c 2.11479,1.79052 2.70568,2.59544 1.9053,2.59544 -0.18979,0 -1.20246,-1.01267 -2.25037,-2.25037 z m 18.5981,-2.12791 c 0,-0.20769 0.78763,-0.99532 1.75029,-1.75029 1.58632,-1.24408 1.6217,-1.20871 0.37762,0.37762 -1.30659,1.66602 -2.12791,2.19584 -2.12791,1.37267 z m 265.91659,-1.37267 c -1.24408,-1.58633 -1.20871,-1.6217 0.37762,-0.37762 0.96266,0.75497 1.75029,1.5426 1.75029,1.75029 0,0.82317 -0.82133,0.29335 -2.12791,-1.37267 z m 20.1309,1.37267 c 0,-0.20769 0.78763,-0.99532 1.75029,-1.75029 1.58632,-1.24408 1.6217,-1.20871 0.37762,0.37762 -1.30659,1.66602 -2.12791,2.19584 -2.12791,1.37267 z m -40.71517,-3.3655 c 3.73599,-0.19296 9.58696,-0.19152 13.00216,0.003 3.41518,0.19471 0.35847,0.35259 -6.79272,0.35084 -7.15119,-0.002 -9.94544,-0.16106 -6.20944,-0.35402 z m -148.04714,-15.95314 c 0.97313,-0.25358 2.32335,-0.23691 3.0005,0.0371 0.67714,0.27398 -0.11905,0.48145 -1.76933,0.46107 -1.65027,-0.0204 -2.2043,-0.24454 -1.23117,-0.49812 z m 19.00315,0 c 0.97313,-0.25358 2.32336,-0.23691 3.0005,0.0371 0.67714,0.27398 -0.11905,0.48145 -1.76932,0.46107 -1.65028,-0.0204 -2.20431,-0.24454 -1.23118,-0.49812 z m -27.46109,-0.99029 c 0.72199,-0.28891 1.58464,-0.25339 1.91699,0.0789 0.33235,0.33234 -0.25838,0.56873 -1.31272,0.5253 -1.16514,-0.048 -1.40213,-0.28498 -0.60427,-0.60426 z m 37.00615,0 c 0.72199,-0.28891 1.58464,-0.25339 1.91699,0.0789 0.33234,0.33234 -0.25839,0.56873 -1.31272,0.5253 -1.16515,-0.048 -1.40213,-0.28498 -0.60427,-0.60426 z m 108.28443,-13.90252 c 0.048,-1.16515 0.28498,-1.40214 0.60426,-0.60427 0.28891,0.72199 0.25339,1.58464 -0.0789,1.91698 -0.33234,0.33235 -0.56873,-0.25838 -0.5253,-1.31271 z m -134.02541,0.22953 c 0.31675,-0.34715 4.59049,-1.33129 9.4972,-2.18695 42.64749,-7.43709 77.69899,-37.40921 91.56103,-78.29274 4.16096,-12.27197 5.88373,-23.46557 5.88373,-38.2292 0,-26.26302 -7.23557,-48.14015 -23.30657,-70.46868 -2.0106,-2.79347 -1.00587,-2.03897 3.32969,2.50041 28.74513,30.09649 38.40879,72.5736 25.38103,111.56359 -12.28326,36.7618 -44.16116,65.16429 -81.84966,72.92622 -8.0519,1.65829 -31.55154,3.3438 -30.49645,2.18735 z m -8.26467,-1.3295 c 0.72199,-0.28891 1.58464,-0.25339 1.91699,0.0789 0.33235,0.33234 -0.25838,0.56873 -1.31272,0.5253 -1.16514,-0.048 -1.40213,-0.28498 -0.60427,-0.60426 z m -6.00099,-1.00016 c 0.72199,-0.28892 1.58463,-0.25339 1.91698,0.0789 0.33235,0.33235 -0.25838,0.56873 -1.31271,0.52531 -1.16515,-0.048 -1.40214,-0.28499 -0.60427,-0.60426 z m -56.35316,-30.57197 -5.96969,-6.25104 6.25104,5.96969 c 3.43807,3.28333 6.25103,6.0963 6.25103,6.25104 0,0.73903 -0.98705,-0.163 -6.53238,-5.96969 z m -8.59769,-9.50158 c -1.24407,-1.58632 -1.2087,-1.6217 0.37762,-0.37762 1.66603,1.30659 2.19585,2.12791 1.37267,2.12791 -0.20768,0 -0.99531,-0.78763 -1.75029,-1.75029 z m -3.0005,-4.00066 c -1.24407,-1.58632 -1.2087,-1.6217 0.37763,-0.37762 0.96266,0.75497 1.75029,1.5426 1.75029,1.75029 0,0.82317 -0.82133,0.29336 -2.12792,-1.37267 z m 71.8895,-2.95622 c 1.2377,-0.2384 3.26304,-0.2384 4.50075,0 1.2377,0.23839 0.22503,0.43344 -2.25038,0.43344 -2.47541,0 -3.48808,-0.19505 -2.25037,-0.43344 z m 17.25286,-4.67261 c 0,-0.20768 0.78763,-0.99531 1.75029,-1.75029 1.58633,-1.24407 1.6217,-1.2087 0.37763,0.37763 -1.30659,1.66602 -2.12792,2.19584 -2.12792,1.37266 z m -44.52615,-12.87457 -9.9829,-10.25171 10.25171,9.9829 c 9.52182,9.27216 10.70638,10.52051 9.98289,10.52051 -0.14784,0 -4.76111,-4.61327 -10.2517,-10.2517 z m 53.02757,4.2507 c 2.14859,-2.20036 4.13158,-4.00066 4.40663,-4.00066 0.27504,0 -1.25787,1.8003 -3.40647,4.00066 -2.1486,2.20037 -4.13158,4.00067 -4.40663,4.00067 -0.27505,0 1.25787,-1.8003 3.40647,-4.00067 z m 12.00199,-13.00216 c 2.14859,-2.20036 4.13158,-4.00066 4.40663,-4.00066 0.27505,0 -1.25787,1.8003 -3.40647,4.00066 -2.14859,2.20037 -4.13158,4.00067 -4.40663,4.00067 -0.27504,0 1.25787,-1.8003 3.40647,-4.00067 z m -16.50274,-4.50074 c 1.29196,-1.37523 2.57406,-2.50042 2.8491,-2.50042 0.27505,0 -0.55697,1.12519 -1.84894,2.50042 -1.29196,1.37522 -2.57405,2.50041 -2.8491,2.50041 -0.27504,0 0.55697,-1.12519 1.84894,-2.50041 z m 28.50473,-8.50142 c 2.1486,-2.20036 4.13159,-4.00066 4.40663,-4.00066 0.27505,0 -1.25787,1.8003 -3.40646,4.00066 -2.1486,2.20037 -4.13159,4.00067 -4.40663,4.00067 -0.27505,0 1.25786,-1.8003 3.40646,-4.00067 z m -79.5132,-1.50025 c -2.42943,-2.47541 -4.19212,-4.50074 -3.91707,-4.50074 0.27504,0 2.4878,2.02533 4.91724,4.50074 2.42943,2.47542 4.19211,4.50075 3.91707,4.50075 -0.27505,0 -2.48781,-2.02533 -4.91724,-4.50075 z m 62.51038,-2.50041 c 0.99565,-1.10018 2.03532,-2.00033 2.31036,-2.00033 0.27505,0 -0.31454,0.90015 -1.3102,2.00033 -0.99565,1.10018 -2.03531,2.00033 -2.31036,2.00033 -0.27505,0 0.31454,-0.90015 1.3102,-2.00033 z m -32.75544,-2.66272 c 0.68761,-0.27746 1.8128,-0.27746 2.50041,0 0.68762,0.27745 0.12503,0.50447 -1.2502,0.50447 -1.37523,0 -1.93782,-0.22702 -1.25021,-0.50447 z m -106.60981,-2.33811 c 0,-1.37523 0.22702,-1.93782 0.50447,-1.25021 0.27746,0.68762 0.27746,1.8128 0,2.50042 -0.27745,0.68761 -0.50447,0.12502 -0.50447,-1.25021 z m 248.96239,-0.58343 c 0.048,-1.16514 0.28499,-1.40213 0.60426,-0.60427 0.28892,0.72199 0.2534,1.58464 -0.0789,1.91699 -0.33234,0.33235 -0.56873,-0.25838 -0.52531,-1.31272 z m -233.92283,-1.91699 c 0.0204,-1.65027 0.24454,-2.2043 0.49812,-1.23117 0.25358,0.97313 0.23691,2.32336 -0.0371,3.0005 -0.27397,0.67714 -0.48145,-0.11905 -0.46106,-1.76933 z m 153.3305,-1.50024 c 2.1486,-2.20037 4.13159,-4.00067 4.40663,-4.00067 0.27505,0 -1.25786,1.8003 -3.40646,4.00067 -2.1486,2.20036 -4.13159,4.00066 -4.40663,4.00066 -0.27505,0 1.25787,-1.8003 3.40646,-4.00066 z m -117.44054,0.41673 c 0.048,-1.16514 0.28498,-1.40213 0.60426,-0.60427 0.28891,0.72199 0.25339,1.58464 -0.0789,1.91699 -0.33235,0.33235 -0.56873,-0.25838 -0.5253,-1.31272 z m 100.43772,-4.4174 c 0.99566,-1.10018 2.03532,-2.00033 2.31036,-2.00033 0.27505,0 -0.31454,0.90015 -1.31019,2.00033 -0.99566,1.10018 -2.03532,2.00033 -2.31037,2.00033 -0.27504,0 0.31455,-0.90015 1.3102,-2.00033 z m -61.05719,-3.25054 -3.9536,-4.2507 4.2507,3.9536 c 3.95312,3.67681 4.71031,4.54781 3.95361,4.54781 -0.16341,0 -2.07623,-1.91282 -4.25071,-4.25071 z m 32.05237,1.25021 c 0.99566,-1.10018 2.03532,-2.00033 2.31037,-2.00033 0.27504,0 -0.31454,0.90015 -1.3102,2.00033 -0.99565,1.10018 -2.03532,2.00033 -2.31036,2.00033 -0.27505,0 0.31454,-0.90015 1.31019,-2.00033 z m -71.4329,-2.58376 c 0.048,-1.16514 0.28498,-1.40213 0.60426,-0.60427 0.28891,0.72199 0.25339,1.58463 -0.0789,1.91699 -0.33235,0.33234 -0.56873,-0.25838 -0.5253,-1.31272 z m 129.90082,-4.66744 c 2.45242,-2.61294 4.59027,-4.75079 4.75079,-4.75079 0.75101,0 -0.043,0.89798 -4.45895,5.04262 l -4.75079,4.45895 z m -72.97032,0.87258 c 0,-0.20768 0.78763,-0.99532 1.75029,-1.75029 1.58632,-1.24408 1.6217,-1.2087 0.37762,0.37762 -1.30659,1.66603 -2.12791,2.19585 -2.12791,1.37267 z m -31.73624,-3.31598 c 0.97313,-0.25358 2.32335,-0.23691 3.0005,0.0371 0.67714,0.27397 -0.11905,0.48145 -1.76933,0.46106 -1.65027,-0.0204 -2.2043,-0.24454 -1.23117,-0.49812 z m 87.24545,-1.30723 c 0.99566,-1.10018 2.03532,-2.00033 2.31037,-2.00033 0.27504,0 -0.31455,0.90015 -1.3102,2.00033 -0.99566,1.10019 -2.03532,2.00033 -2.31036,2.00033 -0.27505,0 0.31454,-0.90014 1.31019,-2.00033 z m -148.32967,-1.50025 c 0.0204,-1.65027 0.24454,-2.2043 0.49812,-1.23117 0.25358,0.97313 0.23691,2.32335 -0.0371,3.0005 -0.27397,0.67714 -0.48145,-0.11905 -0.46106,-1.76933 z m 233.92283,-2.08367 c 0.048,-1.16515 0.28499,-1.40214 0.60426,-0.60427 0.28892,0.72199 0.2534,1.58463 -0.0789,1.91699 -0.33234,0.33234 -0.56873,-0.25839 -0.52531,-1.31272 z m -193.11101,0.27046 c 0,-0.17213 1.46275,-1.63487 3.25054,-3.25054 l 3.25054,-2.93758 -2.93758,3.25054 c -2.73823,3.02997 -3.5635,3.71027 -3.5635,2.93758 z m 39.44364,-2.93758 -2.93758,-3.25054 3.25054,2.93758 c 3.02997,2.73824 3.71027,3.5635 2.93758,3.5635 -0.17213,0 -1.63487,-1.46274 -3.25054,-3.25054 z m 23.06674,-0.75012 c 2.1486,-2.20037 4.13159,-4.00066 4.40663,-4.00066 0.27505,0 -1.25787,1.80029 -3.40646,4.00066 -2.1486,2.20037 -4.13159,4.00066 -4.40663,4.00066 -0.27505,0 1.25786,-1.80029 3.40646,-4.00066 z m 72.51204,-0.50008 c 1.29196,-1.37523 2.57406,-2.50042 2.8491,-2.50042 0.27505,0 -0.55697,1.12519 -1.84893,2.50042 -1.29197,1.37523 -2.57406,2.50041 -2.84911,2.50041 -0.27504,0 0.55698,-1.12518 1.84894,-2.50041 z m -174.9501,-2.08368 c 0.048,-1.16514 0.28499,-1.40213 0.60426,-0.60427 0.28892,0.72199 0.2534,1.58463 -0.0789,1.91699 -0.33235,0.33234 -0.56873,-0.25838 -0.52531,-1.31272 z m 113.93997,-0.41674 c -0.90144,-0.58255 -1.0248,-0.97565 -0.30907,-0.98485 0.65515,-0.008 1.46934,0.43476 1.80932,0.98485 0.76743,1.24174 0.42119,1.24174 -1.50025,0 z m -4.1882,-1.68339 c 0.72199,-0.28892 1.58465,-0.25339 1.91699,0.0789 0.33235,0.33234 -0.25838,0.56873 -1.31271,0.5253 -1.16515,-0.048 -1.40214,-0.28498 -0.60428,-0.60426 z m 50.19584,-1.81719 c 1.29196,-1.37523 2.57406,-2.50041 2.8491,-2.50041 0.27505,0 -0.55697,1.12518 -1.84894,2.50041 -1.29196,1.37523 -2.57405,2.50042 -2.8491,2.50042 -0.27504,0 0.55697,-1.12519 1.84894,-2.50042 z m -100.75298,-0.21762 c 1.52031,-0.22989 3.77069,-0.22374 5.00083,0.0136 1.23015,0.2374 -0.0137,0.42549 -2.76421,0.41799 -2.75045,-0.008 -3.75693,-0.20176 -2.23662,-0.43165 z m 122.8356,-7.86705 c 0.048,-1.16515 0.28498,-1.40213 0.60426,-0.60427 0.28891,0.72199 0.25339,1.58463 -0.0789,1.91699 -0.33234,0.33234 -0.56873,-0.25839 -0.5253,-1.31272 z m -49.27464,-0.0998 c 0.72199,-0.28892 1.58465,-0.25339 1.91699,0.0789 0.33235,0.33235 -0.25838,0.56874 -1.31272,0.52531 -1.16514,-0.048 -1.40213,-0.28499 -0.60427,-0.60426 z m 9.68911,-6.31792 c 0.99566,-1.10018 2.03532,-2.00033 2.31037,-2.00033 0.27504,0 -0.31455,0.90015 -1.3102,2.00033 -0.99566,1.10019 -2.03532,2.00034 -2.31036,2.00034 -0.27505,0 0.31454,-0.90015 1.31019,-2.00034 z m 39.58553,-2.58376 c 0.048,-1.16514 0.28498,-1.40213 0.60426,-0.60427 0.28891,0.72199 0.25339,1.58464 -0.0789,1.91699 -0.33234,0.33235 -0.56873,-0.25838 -0.5253,-1.31272 z m -53.08777,-4.91748 c 1.29197,-1.37523 2.57406,-2.50042 2.8491,-2.50042 0.27505,0 -0.55697,1.12519 -1.84893,2.50042 -1.29197,1.37523 -2.57406,2.50041 -2.84911,2.50041 -0.27504,0 0.55698,-1.12518 1.84894,-2.50041 z m 7.50125,-8.50141 c 0.99565,-1.10019 2.03531,-2.00034 2.31036,-2.00034 0.27505,0 -0.31454,0.90015 -1.3102,2.00034 -0.99565,1.10018 -2.03532,2.00033 -2.31036,2.00033 -0.27505,0 0.31454,-0.90015 1.3102,-2.00033 z m 38.37881,-0.75013 c -1.24408,-1.58632 -1.2087,-1.6217 0.37762,-0.37762 1.66603,1.30659 2.19585,2.12791 1.37267,2.12791 -0.20769,0 -0.99532,-0.78763 -1.75029,-1.75029 z m -19.06311,-7.93443 c 0.72199,-0.28891 1.58465,-0.25339 1.91699,0.0789 0.33235,0.33234 -0.25838,0.56873 -1.31272,0.5253 -1.16514,-0.048 -1.40213,-0.28498 -0.60427,-0.60426 z m -133.83472,-6.69556 c 0,-0.20768 0.78763,-0.99531 1.75029,-1.75029 1.58633,-1.24407 1.6217,-1.2087 0.37763,0.37762 -1.30659,1.66603 -2.12792,2.19585 -2.12792,1.37267 z m 8.50141,-9.62404 c 2.1486,-2.20036 4.13159,-4.00066 4.40664,-4.00066 0.27504,0 -1.25787,1.8003 -3.40647,4.00066 -2.1486,2.20037 -4.13159,4.00067 -4.40663,4.00067 -0.27505,0 1.25787,-1.8003 3.40646,-4.00067 z m -16.50274,-4.37828 c 0,-0.20769 0.78764,-0.99532 1.7503,-1.75029 1.58632,-1.24408 1.62169,-1.2087 0.37762,0.37762 -1.30659,1.66603 -2.12792,2.19584 -2.12792,1.37267 z m 24.00399,-2.00033 c 0,-0.20769 0.78763,-0.99532 1.75029,-1.75029 1.58632,-1.24408 1.6217,-1.20871 0.37762,0.37762 -1.30658,1.66602 -2.12791,2.19584 -2.12791,1.37267 z m 139.42814,-1.87276 -1.90531,-2.25037 2.25038,1.90531 c 2.11479,1.79051 2.70569,2.59544 1.9053,2.59544 -0.18979,0 -1.20246,-1.01267 -2.25037,-2.25038 z m -153.43046,-6.12857 c 0,-0.20769 0.78763,-0.99532 1.75029,-1.75029 1.58632,-1.24408 1.6217,-1.2087 0.37762,0.37762 -1.30659,1.66603 -2.12791,2.19584 -2.12791,1.37267 z m 167.90031,-1.37267 c -1.24408,-1.58632 -1.2087,-1.6217 0.37762,-0.37762 0.96266,0.75497 1.75029,1.5426 1.75029,1.75029 0,0.82317 -0.82132,0.29336 -2.12791,-1.37267 z M -343.40181,94.510106 c 0.72199,-0.288919 1.58463,-0.253386 1.91699,0.07896 0.33235,0.332347 -0.25838,0.568735 -1.31272,0.525307 -1.16514,-0.04799 -1.40213,-0.284988 -0.60427,-0.604267 z m 41.00681,0 c 0.72199,-0.288919 1.58464,-0.253386 1.91699,0.07896 0.33234,0.332347 -0.25838,0.568735 -1.31272,0.525307 -1.16514,-0.04799 -1.40213,-0.284988 -0.60427,-0.604267 z m -35.06832,-0.97933 c 0.68761,-0.277458 1.8128,-0.277458 2.50041,0 0.68762,0.277459 0.12502,0.50447 -1.2502,0.50447 -1.37523,0 -1.93783,-0.227011 -1.25021,-0.50447 z m 28.00465,0 c 0.68761,-0.277458 1.8128,-0.277458 2.50041,0 0.68762,0.277459 0.12502,0.50447 -1.25021,0.50447 -1.37522,0 -1.93782,-0.227011 -1.2502,-0.50447 z m -16.00266,-1.061291 c 1.7878,-0.221863 4.71328,-0.221863 6.50108,0 1.7878,0.221864 0.32505,0.403389 -3.25054,0.403389 -3.57559,0 -5.03834,-0.181525 -3.25054,-0.403389 z m -0.50008,-15.007564 c 2.06284,-0.215781 5.4384,-0.215781 7.50124,0 2.06285,0.21578 0.37506,0.392327 -3.75062,0.392327 -4.12568,0 -5.81347,-0.176547 -3.75062,-0.392327 z"
       id="path859" />
    <path
       style="fill:#040404;stroke-width:1.00017"
       d="m -567.012,442.60154 c -4.52118,-2.23326 -8.95312,-7.56924 -10.23221,-12.31944 -0.72184,-2.68071 -0.98231,-21.72967 -0.79221,-57.93764 l 0.2832,-53.94386 3.01388,-4.33582 c 1.76143,-2.53404 4.8628,-5.27099 7.46313,-6.5862 l 4.44925,-2.25038 84.05207,-0.0349 84.05206,-0.0349 -5.00083,-4.13324 c -18.82925,-15.5626 -32.56038,-34.92968 -40.27581,-56.80707 -5.18521,-14.70289 -6.64434,-23.77971 -6.67234,-41.5069 -0.028,-17.71213 1.38867,-26.52481 6.67234,-41.50689 14.87531,-42.1795 52.27328,-73.813976 96.28511,-81.446377 11.5144,-1.996793 31.7298,-2.005792 43.12179,-0.01919 43.88615,7.653105 81.32333,39.365967 96.17046,81.465567 5.21676,14.79237 6.65822,23.77827 6.65822,41.5069 0,17.72862 -1.44146,26.71452 -6.65822,41.50689 -7.75467,21.98864 -21.35081,41.16533 -40.27581,56.80704 l -5.00083,4.13324 24.75411,0.0349 c 23.39535,0.033 24.86391,0.14472 26.75444,2.03526 2.69508,2.69508 2.64217,8.11022 -0.10355,10.59677 -1.97361,1.78734 -4.58984,1.93801 -42.25701,2.43349 -39.71492,0.52243 -40.25963,0.55756 -49.91035,3.21943 -21.01084,5.79521 -42.63919,5.78564 -63.49936,-0.0281 l -9.75721,-2.71933 -98.40216,-0.25976 c -72.13031,-0.19042 -98.76643,0.0426 -99.76656,0.87258 -1.12056,0.92998 -1.36441,10.46723 -1.36441,53.3636 0,49.33057 0.10158,52.32316 1.82905,53.8865 1.69111,1.53043 19.70077,1.65526 238.81713,1.65526 212.87401,0 237.214289,-0.15842 239.21098,-1.55696 l 2.222879,-1.55697 v -52.25196 c 0,-39.30688 -0.297339,-52.54932 -1.200199,-53.45218 -0.895519,-0.89551 -11.902146,-1.20019 -43.35798,-1.20019 -28.20054,0 -43.20755,-0.36596 -45.32863,-1.10537 -5.5368,-1.93014 -6.79636,-7.31982 -2.67401,-11.44217 l 2.45495,-2.45496 h 44.84101 c 44.516715,0 44.873184,0.0163 49.290268,2.25038 2.601301,1.31571 5.701026,4.05164 7.463119,6.58723 l 3.01388,4.33686 v 56.17319 c 0,54.3749 -0.06401,56.28185 -2.000332,59.56773 -1.100183,1.86699 -3.729869,4.79247 -5.84375,6.50108 l -3.843408,3.10653 -242.697527,0.23059 c -221.41209,0.21038 -242.98352,0.0893 -245.95862,-1.38025 z m 267.37214,-131.91325 c 37.6885,-7.76193 69.5664,-36.16442 81.84966,-72.92622 15.6525,-46.8454 -1.92036,-98.54094 -42.95442,-126.36262 -62.97585,-42.698506 -148.96081,-9.39378 -168.60833,65.30742 -2.07625,7.89407 -2.35876,11.15481 -2.29627,26.5044 0.0639,15.68596 0.34893,18.53871 2.74608,27.48108 11.54395,43.06387 48.17617,75.43438 92.18994,81.46477 9.28039,1.27153 27.21818,0.56084 37.07334,-1.46883 z m -49.27802,-49.41926 c -6.11162,-2.77459 -40.29216,-35.77893 -43.87891,-42.36897 -5.4092,-9.93848 -3.26414,-22.89764 5.0602,-30.57074 5.76463,-5.31366 10.37816,-7.12171 18.17218,-7.12171 8.59186,0 11.68647,1.48838 21.79629,10.48313 l 8.59283,7.6451 7.58598,-8.06395 c 8.536,-9.07381 11.43809,-10.09596 15.92506,-5.60899 4.47439,4.47439 3.60225,6.31757 -9.84137,20.79891 -13.3481,14.37845 -13.21009,14.37492 -27.40743,0.70044 -5.7396,-5.52823 -11.63917,-10.50891 -13.11014,-11.06817 -8.52281,-3.24037 -17.76072,6.5155 -14.23333,15.03136 0.66644,1.60893 9.26074,10.61312 19.09845,20.00931 17.23236,16.45898 18.03766,17.08399 22.01166,17.08399 2.2687,0 5.31954,-0.7332 6.77964,-1.62934 4.61005,-2.82941 67.58963,-71.96004 68.541,-75.23522 1.19183,-4.10297 0.0791,-7.84894 -3.35017,-11.2782 -2.36254,-2.36255 -3.72165,-2.87235 -7.65755,-2.87235 -4.63846,0 -5.00939,0.23006 -12.09435,7.50124 -6.27615,6.4411 -7.79144,7.50125 -10.72171,7.50125 -3.71417,0 -7.55842,-3.6335 -7.55842,-7.14406 0,-2.68464 11.8122,-15.84349 17.23216,-19.1967 8.91199,-5.51366 21.69616,-4.47458 30.09181,2.44582 8.60413,7.09225 11.71702,21.00143 6.91853,30.91376 -2.35948,4.87405 -65.94365,74.55693 -72.17473,79.09742 -1.96424,1.4313 -5.10124,3.11908 -6.97112,3.75062 -5.17676,1.74841 -14.01687,1.37051 -18.80656,-0.80395 z m -197.25751,142.34065 c -1.14011,-1.44941 -2.07293,-3.21792 -2.07293,-3.93001 0,-0.7121 4.31144,-12.6909 9.58097,-26.61956 6.62383,-17.50842 10.34541,-26.01941 12.05776,-27.57522 2.96412,-2.69315 7.34147,-2.90589 10.2892,-0.50008 2.38719,1.94831 21.08087,50.51046 21.08087,54.76354 0,5.2573 -7.01444,8.40137 -11.47187,5.14202 -1.0189,-0.74503 -2.62498,-3.33296 -3.56907,-5.75095 l -1.71654,-4.39635 -9.53508,-0.28519 -9.53509,-0.28518 -1.14627,3.47323 c -1.89631,5.74587 -4.72778,8.59905 -8.53363,8.59905 -2.43362,0 -3.92486,-0.72395 -5.42832,-2.6353 z m 27.93205,-24.74713 c 0,-0.75796 -0.72083,-3.10331 -1.60185,-5.21189 l -1.60186,-3.83378 -1.27238,3.0261 c -3.01461,7.16963 -2.98661,7.39768 0.90811,7.39768 2.36421,0 3.56798,-0.46495 3.56798,-1.37811 z m 36.07857,24.74713 c -1.97827,-2.51497 -2.07292,-3.8414 -2.07292,-29.05027 v -26.41499 l 2.45495,-2.45495 c 2.25537,-2.25537 3.21079,-2.45451 11.75196,-2.44937 11.29779,0.007 15.76302,1.14693 20.38508,5.20515 4.91058,4.31155 7.41498,9.66548 7.41498,15.85179 0,11.89574 -9.3313,20.87052 -21.75361,20.92249 l -5.25087,0.022 v 7.86644 c 0,9.59367 -2.02327,13.13705 -7.50125,13.13705 -2.43362,0 -3.92485,-0.72395 -5.42832,-2.6353 z m 22.53146,-34.13612 c 0.60526,-0.40415 1.66385,-1.80368 2.3524,-3.11009 1.06872,-2.02765 0.96613,-2.75951 -0.70103,-5.00083 -1.53502,-2.06367 -2.94812,-2.69079 -6.60311,-2.93039 l -4.65015,-0.30484 v 6.05579 6.0558 l 4.25071,-0.0153 c 2.33788,-0.008 4.74591,-0.34598 5.35118,-0.75013 z m 31.40492,34.77108 c -1.90309,-1.90308 -2.00033,-3.33388 -2.00033,-29.4323 v -27.43198 l 2.73971,-2.15505 c 2.48433,-1.95418 3.71967,-2.12411 13.2522,-1.82289 8.23879,0.26034 11.36625,0.78005 14.45985,2.40291 8.48639,4.45183 13.05383,14.3356 10.71342,23.18346 -2.55866,9.67299 -9.50584,15.2764 -20.06651,16.18517 l -6.59627,0.56761 -0.50008,8.83515 c -0.4094,7.23301 -0.85214,9.09202 -2.44153,10.2517 -2.77089,2.02175 -7.22704,1.74964 -9.56046,-0.58378 z m 23.17511,-35.66091 c 2.27738,-2.06101 2.35984,-6.10211 0.17377,-8.51768 -1.1697,-1.29252 -3.07673,-1.82904 -6.50107,-1.82904 h -4.84582 v 6.00099 6.001 h 4.67204 c 2.94382,0 5.3486,-0.61229 6.50108,-1.65527 z m 29.90628,35.02595 c -1.97828,-2.51497 -2.07292,-3.8414 -2.07292,-29.05027 v -26.41499 l 2.45495,-2.45495 c 2.27415,-2.27416 3.18043,-2.45496 12.3057,-2.45496 8.62573,0 10.50541,0.32624 15.11511,2.62335 14.24322,7.0977 14.86632,25.59465 1.16162,34.48339 l -2.46817,1.60083 6.21879,7.20759 c 4.39209,5.09042 6.21881,8.02102 6.21881,9.97677 0,3.64484 -3.7587,7.11854 -7.70258,7.11854 -2.59553,0 -4.2558,-1.32594 -10.68733,-8.53526 l -7.61441,-8.53526 v 5.89996 c 0,7.49658 -2.46715,11.17056 -7.50125,11.17056 -2.43362,0 -3.92486,-0.72395 -5.42832,-2.6353 z m 21.99681,-36.40637 c 1.23683,-0.66193 1.93458,-2.09217 1.93458,-3.96547 0,-3.46588 -2.28224,-5.00083 -7.43549,-5.00083 h -3.56633 v 5.00083 5.00083 h 3.56633 c 1.96149,0 4.4369,-0.46591 5.50091,-1.03536 z m 47.51873,37.45004 c -7.47816,-2.38511 -16.87151,-12.16785 -19.12426,-19.91705 -3.53407,-12.15677 -0.18223,-24.99603 8.59584,-32.92649 6.63622,-5.99542 12.10361,-8.0428 21.52438,-8.06026 7.01686,-0.013 8.83966,0.37762 13.94426,2.98822 22.90728,11.71521 22.93695,44.55951 0.0508,56.24807 -6.4128,3.27519 -17.60824,4.02219 -24.99103,1.66751 z m 20.28761,-16.15673 c 4.27667,-3.19299 6.39979,-6.90151 6.89367,-12.04135 0.94853,-9.87157 -5.48438,-17.29238 -15.60371,-17.99999 -4.69796,-0.32851 -6.24063,0.004 -9.12994,1.96739 -7.61815,5.177 -10.23674,14.35497 -6.40157,22.43698 4.00054,8.43053 16.5815,11.35603 24.24155,5.63697 z m 48.26829,15.99807 c -1.39815,-1.16488 -5.12099,-10.44788 -11.13052,-27.7543 -8.04199,-23.15952 -8.90335,-26.30908 -7.87448,-28.79299 2.09999,-5.06982 7.18232,-6.18785 11.19406,-2.46251 1.60023,1.486 4.04034,7.00645 7.18387,16.2527 2.61829,7.70128 5.05526,14.3317 5.41551,14.73426 0.36025,0.40257 2.83616,-5.86403 5.50201,-13.92578 3.04253,-9.20086 5.71328,-15.52401 7.17391,-16.98464 3.76579,-3.76578 8.52221,-2.96162 11.01692,1.86261 1.46919,2.84109 1.21187,3.88316 -7.16299,29.00846 -4.77781,14.33382 -9.5309,26.90546 -10.56242,27.93698 -2.37805,2.37806 -7.97366,2.44319 -10.75587,0.12521 z m 42.88603,-0.25005 c -1.90073,-1.90072 -2.00034,-3.33388 -2.00034,-28.78226 0,-22.62102 0.24189,-27.1273 1.55696,-29.00482 1.48168,-2.11539 2.22781,-2.22288 15.42998,-2.22288 13.79597,0 13.88454,0.0146 15.94595,2.6353 1.14011,1.44941 2.07292,3.41404 2.07292,4.36586 0,0.95182 -0.93281,2.91646 -2.07292,4.36587 -1.92796,2.451 -2.62739,2.6353 -10.00166,2.6353 h -7.92874 v 5.00083 5.00083 h 7.44454 c 6.55916,0 7.6297,0.26436 9.00149,2.22288 2.14553,3.06317 1.94954,7.3862 -0.44337,9.77911 -1.61932,1.61932 -3.33388,2.00033 -9.00149,2.00033 h -7.00117 v 5.00083 5.00083 h 7.92874 c 7.37427,0 8.0737,0.18429 10.00166,2.6353 1.14011,1.44941 2.07292,3.41405 2.07292,4.36586 0,0.95182 -0.93281,2.91646 -2.07292,4.36587 -2.05553,2.61319 -2.18558,2.6353 -15.50257,2.6353 -12.0961,0 -13.62829,-0.19864 -15.42998,-2.00034 z m 52.00863,0 c -1.90309,-1.90308 -2.00033,-3.33388 -2.00033,-29.4323 v -27.43198 l 2.75045,-2.16807 c 2.53616,-1.99914 3.64665,-2.13801 14.25237,-1.78236 13.32737,0.44692 17.46914,2.0269 23.3628,8.91232 5.007081,5.84964 7.085426,12.59088 7.059402,22.89758 -0.0176,6.96082 -0.48147,9.49827 -2.559895,14.00232 -3.469617,7.51886 -6.971467,11.3808 -13.079667,14.42465 -4.6428,2.3136 -6.33392,2.57818 -16.47926,2.57818 -9.97199,0 -11.54149,-0.23595 -13.30587,-2.00034 z m 25.55872,-15.04374 c 6.97836,-5.7758 7.09287,-22.7167 0.1928,-28.52272 -2.29535,-1.9314 -4.03386,-2.44117 -8.32536,-2.44117 h -5.42417 v 10.85511 c 0,5.97031 0.27925,13.52681 0.62056,16.79223 l 0.62055,5.9371 5.27642,-0.58078 c 2.90205,-0.31943 6.06968,-1.23732 7.0392,-2.03977 z"
       id="path857" />
  </g>
</svg>
