<?xml version="1.0" encoding="UTF-8" standalone="no"?>
<svg
   xmlns:dc="http://purl.org/dc/elements/1.1/"
   xmlns:cc="http://creativecommons.org/ns#"
   xmlns:rdf="http://www.w3.org/1999/02/22-rdf-syntax-ns#"
   xmlns:svg="http://www.w3.org/2000/svg"
   xmlns="http://www.w3.org/2000/svg"
   xmlns:sodipodi="http://sodipodi.sourceforge.net/DTD/sodipodi-0.dtd"
   xmlns:inkscape="http://www.inkscape.org/namespaces/inkscape"
   id="Layer_5"
   enable-background="new 0 0 64 64"
   height="512"
   viewBox="0 0 64 64"
   width="512"
   version="1.1"
   sodipodi:docname="assembly.svg"
   inkscape:version="1.0.2-2 (e86c870879, 2021-01-15)">
  <metadata
     id="metadata95">
    <rdf:RDF>
      <cc:Work
         rdf:about="">
        <dc:format>image/svg+xml</dc:format>
        <dc:type
           rdf:resource="http://purl.org/dc/dcmitype/StillImage" />
        <dc:title></dc:title>
      </cc:Work>
    </rdf:RDF>
  </metadata>
  <defs
     id="defs93" />
  <sodipodi:namedview
     pagecolor="#ffffff"
     bordercolor="#666666"
     borderopacity="1"
     objecttolerance="10"
     gridtolerance="10"
     guidetolerance="10"
     inkscape:pageopacity="0"
     inkscape:pageshadow="2"
     inkscape:window-width="776"
     inkscape:window-height="480"
     id="namedview91"
     showgrid="false"
     inkscape:zoom="1.7382812"
     inkscape:cx="256"
     inkscape:cy="256"
     inkscape:window-x="62"
     inkscape:window-y="0"
     inkscape:window-maximized="0"
     inkscape:current-layer="Layer_5" />
  <g
     id="g88">
    <g
       id="g74">
      <g
         id="g4">
        <path
           d="m16 10h-2c-2.21 0-4 1.79-4 4v1c-1.23.61-2 1.87-2 3.24v.26c0 .96.38 1.88 1.06 2.56l.94.94v3l-1.98-.49c-3.54-.89-6.02-4.07-6.02-7.72v-3.41c0-3.25 1.98-6.17 5-7.38.62-1.22 1.55-2.22 2.67-2.92 1.12-.69 2.43-1.08 3.8-1.08h6.53c2.21 0 4 1.79 4 4 0 1.1-.45 2.1-1.17 2.83-.73.72-1.73 1.17-2.83 1.17h-1z"
           fill="#b27946"
           id="path2" />
      </g>
      <g
         id="g8">
        <path
           d="m4 52h16v10h-6-10z"
           fill="#969faa"
           id="path6" />
      </g>
      <g
         id="g12">
        <path
           d="m16 35.22v-1.69c7.13-1.37 12.24-5.43 14.16-8.37l3.13 3.13c-1.82 3.59-7.04 9.16-14.93 10.44h-.01c-.52-1.06-1.16-2.06-1.9-2.97-.15-.18-.3-.36-.46-.53z"
           fill="#b4dd7f"
           id="path10" />
      </g>
      <g
         id="g16">
        <path
           d="m20 48.05v3.95h-16v-13.41c0 3.72 2.64 6.91 6.3 7.61z"
           fill="#b4dd7f"
           id="path14" />
      </g>
      <g
         id="g20">
        <path
           d="m19.74 42.94 4.26 1.06v4.79c-.32-.05-.64-.1-.96-.16l-3.04-.58-9.7-1.85c-3.66-.7-6.3-3.89-6.3-7.61 0-1.67.53-3.25 1.46-4.53.93-1.3 2.26-2.3 3.84-2.83l.7-.23c1.91.76 3.6 1.86 5.99 4.23.16.17.31.35.46.53.74.91 1.38 1.91 1.9 2.97.66 1.32 1.13 2.73 1.39 4.21z"
           fill="#b4dd7f"
           id="path18" />
      </g>
      <g
         id="g24">
        <path
           d="m39.38 28.38c.4.4.62.94.62 1.5v.12c-.66.5-1.2 1.16-1.55 1.92-.18.05-.37.08-.57.08-.56 0-1.1-.22-1.5-.62l-3.09-3.09-3.13-3.13-1.54-1.54c-.4-.4-.62-.94-.62-1.5 0-.58.24-1.12.62-1.5s.92-.62 1.5-.62c.56 0 1.1.22 1.5.62z"
           fill="#cf9e76"
           id="path22" />
      </g>
      <g
         id="g28">
        <path
           d="m30 39v7c0-1.66-1.34-3-3-3h-.29c-.24 0-.48.03-.71.09v-4.09c0-1.1.9-2 2-2 .55 0 1.05.22 1.41.59.37.36.59.86.59 1.41z"
           fill="#cf9e76"
           id="path26" />
      </g>
      <g
         id="g32">
        <path
           d="m62 62h-34c0-1.1.45-2.1 1.17-2.83.73-.72 1.73-1.17 2.83-1.17h6 10 10c2.21 0 4 1.79 4 4z"
           fill="#969faa"
           id="path30" />
      </g>
      <g
         id="g36">
        <path
           d="m52 32h8c0 2.21-1.79 4-4 4s-4-1.79-4-4z"
           fill="#ccd1d9"
           id="path34" />
      </g>
      <g
         id="g40">
        <path
           d="m44.97 29.41-5.75 7.83c-.75-.87-1.22-2-1.22-3.24 0-.74.16-1.45.45-2.08.35-.76.89-1.42 1.55-1.92.83-.63 1.87-1 3-1 .7 0 1.36.15 1.97.41z"
           fill="#ccd1d9"
           id="path38" />
      </g>
      <g
         id="g44">
        <path
           d="m62 30v2h-2-8-2l-4.65 9.29c-.99-1.95-3.01-3.29-5.35-3.29-.51 0-1 .06-1.47.19l.69-.95 5.75-7.83.43-.59c.38-.52.98-.82 1.61-.82h12.99c1.1 0 2 .9 2 2z"
           fill="#aab2bd"
           id="path42" />
      </g>
      <g
         id="g48">
        <path
           d="m44.61 47.84 3.39 10.16h-10l-1.53-9.15c.99.73 2.21 1.15 3.53 1.15 1.85 0 3.51-.84 4.61-2.16z"
           fill="#aab2bd"
           id="path46" />
      </g>
      <g
         id="g52">
        <path
           d="m45.35 41.3c.42.81.65 1.73.65 2.7 0 1.46-.52 2.8-1.39 3.84-1.1 1.32-2.76 2.16-4.61 2.16-1.32 0-2.54-.42-3.53-1.15-1.5-1.09-2.47-2.86-2.47-4.85 0-2.8 1.93-5.16 4.53-5.81.47-.13.96-.19 1.47-.19 2.34 0 4.36 1.34 5.35 3.29z"
           fill="#fcd770"
           id="path50" />
      </g>
      <g
         id="g56">
        <circle
           cx="40"
           cy="44"
           fill="#ccd1d9"
           r="2"
           id="circle54" />
      </g>
      <g
         id="g60">
        <path
           d="m27 43c1.66 0 3 1.34 3 3 0 .83-.34 1.58-.88 2.12s-1.29.88-2.12.88c-1 0-2.01-.07-3-.21v-4.79l1.37-.68c.2-.1.41-.18.63-.23.23-.06.47-.09.71-.09z"
           fill="#f0d0b4"
           id="path58" />
      </g>
      <g
         id="g64">
        <path
           d="m16 33.53v1.69l-.01.01c-2.39-2.37-4.08-3.47-5.99-4.23v-6-3l-.94-.94c-.68-.68-1.06-1.6-1.06-2.56v-.26c0-1.37.77-2.63 2-3.24v-1h5l.53 2.13c.28 1.1 1.27 1.87 2.4 1.87h5.07v.51c0 .32.08.64.22.93l.56 1.12c.14.29.22.61.22.93 0 .9-.58 1.7-1.43 1.99l-1.57.52v1.59c0 .9-.36 1.77-1 2.41s-1.51 1-2.41 1h-1.59z"
           fill="#f0d0b4"
           id="path62" />
      </g>
      <g
         id="g68">
        <path
           d="m23 14h-8-5c0-2.21 1.79-4 4-4h2 3c2.21 0 4 1.79 4 4z"
           fill="#f0d0b4"
           id="path66" />
      </g>
      <g
         id="g72">
        <path
           d="m23 14v4h-5.07c-1.13 0-2.12-.77-2.4-1.87l-.53-2.13z"
           fill="#69d6f4"
           id="path70" />
      </g>
    </g>
    <g
       id="g86">
      <path
         d="m40 47c1.654 0 3-1.346 3-3s-1.346-3-3-3-3 1.346-3 3 1.346 3 3 3zm0-4c.552 0 1 .448 1 1s-.448 1-1 1-1-.448-1-1 .448-1 1-1z"
         id="path76" />
      <path
         d="m60.899 33h2.101v-3c0-1.654-1.346-3-3-3h-12.986c-.951 0-1.854.457-2.418 1.223-.519-.143-1.052-.223-1.596-.223-.833 0-1.627.171-2.349.48-.148-.295-.33-.573-.566-.808l-7.758-7.758c-.58-.581-1.384-.914-2.206-.914-1.721 0-3.121 1.4-3.121 3.121 0 .822.333 1.626.914 2.207l.938.938c-2.048 2.63-6.349 5.677-11.852 7.018v-2.284h.585c1.179 0 2.288-.46 3.122-1.293.821-.82 1.293-1.958 1.293-3.121v-.865l.888-.296c1.264-.422 2.112-1.6 2.112-2.932 0-.479-.113-.957-.326-1.382l-.559-1.116c-.076-.152-.115-.317-.115-.488v-4.506c0-1.44-.621-2.73-1.599-3.643 1.541-.853 2.599-2.476 2.599-4.358 0-2.757-2.243-5-5-5h-6.527c-3.014 0-5.735 1.607-7.19 4.22-3.222 1.443-5.283 4.608-5.283 8.165v3.406c0 4.115 2.789 7.688 6.782 8.686l1.218.304v4.498l-.018.006c-3.578 1.194-5.982 4.53-5.982 8.302v13.413 1 10h18v-10-1-2.743l1.848.352c1.367.261 2.765.393 4.152.393 2.206 0 4-1.794 4-4v-7.002c0-1.654-1.346-3-3-3-.157 0-.309.023-.459.046 2.788-1.944 4.778-4.255 5.962-6.129l2.169 2.169c.396.396.898.665 1.435.804-.068.36-.107.73-.107 1.11 0 1.145.356 2.262.989 3.232l-.059.081c-2.852.885-4.93 3.548-4.93 6.687 0 2.172.995 4.117 2.553 5.402l1.267 7.598h-4.82c-2.757 0-5 2.243-5 5v1h36v-1c0-2.757-2.243-5-5-5h-9.28l-2.995-8.986c.801-1.138 1.275-2.52 1.275-4.014 0-.952-.193-1.859-.538-2.687l4.156-8.313h.483c.399 1.956 1.943 3.5 3.899 3.899v5.202c-2.279.465-4 2.484-4 4.899v.162l1.052 3.154 1.896-.633-.944-2.835c.079-1.583 1.392-2.848 2.996-2.848s2.917 1.265 2.996 2.849l-.944 2.835 1.896.633 1.052-3.155v-.162c0-2.414-1.721-4.434-4-4.899v-5.202c1.956-.399 3.5-1.943 3.899-3.899zm-38.644-10.473-2.255.752v2.307c0 .636-.258 1.258-.707 1.707-.457.456-1.063.708-1.708.708h-4.585v2h2v2.843c-1.193-1.002-2.535-1.844-4-2.499v-8.758l-1.233-1.233c-.495-.495-.767-1.153-.767-1.852v-.266c0-.998.555-1.895 1.447-2.341l.553-.276v-.618h3.219l.342 1.368c.387 1.549 1.772 2.631 3.37 2.631l4.127.001c.05.308.129.61.268.889l.56 1.117c.074.149.114.317.114.486 0 .47-.3.886-.745 1.034zm-8.255-11.526h5c1.302 0 2.402.839 2.816 2h-10.632c.414-1.162 1.514-2 2.816-2zm3.931 5.999c-.677 0-1.265-.458-1.429-1.116l-.221-.883h5.719v2zm-9.664 6.537c-3.101-.776-5.267-3.55-5.267-6.746v-3.406c0-2.86 1.716-5.394 4.371-6.455l.354-.142.17-.34c1.062-2.127 3.2-3.448 5.578-3.448h6.527c1.654 0 3 1.346 3 3s-1.346 3-3 3h-4c-.552 0-1-.448-1-1s.448-1 1-1h1v-2h-1c-1.654 0-3 1.346-3 3 0 .382.079.745.209 1.081-2.38.382-4.209 2.434-4.209 4.92v.431c-1.247.854-2 2.261-2 3.805v.266c0 1.233.48 2.394 1.353 3.266l.647.646v1.305zm10.733 37.463h-4v-3.586l1.707-1.707-1.414-1.414-2.293 2.293v4.414h-8v-8h14zm0-10h-14v-6.851c1.264 1.534 3.046 2.64 5.113 3.034l8.887 1.693zm-8.512-5.781c-3.18-.607-5.488-3.396-5.488-6.632 0-2.91 1.854-5.483 4.614-6.404l.348-.116c4.138 1.77 7.194 5.238 8.437 9.503l-4.314-1.078c-.745-.187-1.324-.795-1.476-1.549l-.628-3.138-1.961.393.628 3.138c.302 1.508 1.461 2.724 2.952 3.096l9.4 2.351v2.82zm16.512 2.782c-.666 0-1.334-.038-2-.105v-3.278l.813-.406c.277-.138.587-.211.896-.211h.291c1.103 0 2 .897 2 2s-.897 2-2 2zm2-9.001v3.557c-.591-.344-1.268-.556-2-.556v-3.001c0-.552.448-1 1-1s1 .448 1 1zm-4 0v3.394c-.026.012-.055.016-.081.029l-1.035.519-3.282-.821c-.201-.916-.481-1.801-.821-2.654 2.145-.478 4.065-1.239 5.753-2.167-.336.483-.534 1.068-.534 1.7zm-6.098-1.398c-.543-.988-1.176-1.92-1.902-2.776v-.495c6.088-1.365 10.836-4.625 13.274-7.644l1.776 1.776c-1.72 2.908-6.177 7.743-13.148 9.139zm18.184-6.93-7.758-7.758c-.209-.209-.328-.498-.328-.793 0-.618.503-1.121 1.121-1.121.295 0 .584.119.793.328l7.758 7.758c.139.139.22.318.271.507-.441.406-.821.876-1.125 1.397-.272-.018-.538-.125-.732-.318zm1.914 3.328c0-2.206 1.794-4 4-4 .092 0 .181.021.272.028l-3.981 5.429c-.188-.462-.291-.951-.291-1.457zm-4 10c0-2.757 2.243-5 5-5s5 2.243 5 5-2.243 5-5 5-5-2.243-5-5zm25.829 17h-31.658c.413-1.164 1.525-2 2.829-2h26c1.304 0 2.416.836 2.829 2zm-21.982-4-1.061-6.365c.697.234 1.44.365 2.214.365 1.556 0 2.99-.517 4.154-1.379l2.459 7.379zm10.535-26-4.171 8.342c-1.154-1.289-2.772-2.151-4.593-2.311l5.59-7.622c.187-.256.488-.409.806-.409h12.986c.552 0 1 .448 1 1v1zm3.802 2h5.631c-.414 1.161-1.514 2-2.816 2s-2.401-.839-2.815-2z"
         id="path78" />
      <path
         d="m40.5 16.757h1.999v9.487h-1.999z"
         transform="matrix(.949 -.316 .316 .949 -4.669 14.227)"
         id="path80" />
      <path
         d="m42.972 17.5h9.055v2h-9.055z"
         transform="matrix(.11 -.994 .994 .11 23.873 63.669)"
         id="path82" />
      <path
         d="m49.095 21.499h7.81v2.001h-7.81z"
         transform="matrix(.768 -.64 .64 .768 -2.118 39.152)"
         id="path84" />
    </g>
  </g>
</svg>
