<?xml version="1.0" encoding="UTF-8" standalone="no"?>
<svg
   xmlns:dc="http://purl.org/dc/elements/1.1/"
   xmlns:cc="http://creativecommons.org/ns#"
   xmlns:rdf="http://www.w3.org/1999/02/22-rdf-syntax-ns#"
   xmlns:svg="http://www.w3.org/2000/svg"
   xmlns="http://www.w3.org/2000/svg"
   xmlns:sodipodi="http://sodipodi.sourceforge.net/DTD/sodipodi-0.dtd"
   xmlns:inkscape="http://www.inkscape.org/namespaces/inkscape"
   id="Capa_1"
   enable-background="new 0 0 512.085 512.085"
   height="512"
   viewBox="0 0 512.085 512.085"
   width="512"
   version="1.1"
   sodipodi:docname="casting.svg"
   inkscape:version="1.0.2-2 (e86c870879, 2021-01-15)">
  <metadata
     id="metadata43">
    <rdf:RDF>
      <cc:Work
         rdf:about="">
        <dc:format>image/svg+xml</dc:format>
        <dc:type
           rdf:resource="http://purl.org/dc/dcmitype/StillImage" />
        <dc:title />
      </cc:Work>
    </rdf:RDF>
  </metadata>
  <defs
     id="defs41" />
  <sodipodi:namedview
     pagecolor="#ffffff"
     bordercolor="#666666"
     borderopacity="1"
     objecttolerance="10"
     gridtolerance="10"
     guidetolerance="10"
     inkscape:pageopacity="0"
     inkscape:pageshadow="2"
     inkscape:window-width="1920"
     inkscape:window-height="1017"
     id="namedview39"
     showgrid="false"
     inkscape:zoom="0.8691406"
     inkscape:cx="-83.794086"
     inkscape:cy="252.29611"
     inkscape:window-x="-8"
     inkscape:window-y="-8"
     inkscape:window-maximized="1"
     inkscape:current-layer="Capa_1"
     inkscape:document-rotation="0" />
  <g
     id="g879"
     transform="matrix(0.90301796,0,0,0.90301796,732.92903,-331.7524)"
     style="stroke:#000000;stroke-width:8.10135;stroke-miterlimit:4;stroke-dasharray:none">
    <path
       style="fill:#bcc2c5;stroke:#000000;stroke-width:8.10135;stroke-miterlimit:4;stroke-dasharray:none"
       d="m -777.65388,842.09027 c 0.32804,-0.53076 21.47118,-25.62773 46.98476,-55.77103 26.76075,-31.61681 47.73302,-55.54161 49.56642,-56.54454 2.85754,-1.56316 7.65252,-1.76953 47.5372,-2.04598 44.35911,-0.30745 44.35911,-0.30745 43.75143,4.50075 -0.33422,2.64452 -1.05598,10.62252 -1.6039,17.72891 -0.54792,7.10639 -1.14999,13.07448 -1.33794,13.26243 -0.18794,0.18795 -5.92554,0.9983 -12.75022,1.80077 -14.71093,1.72979 -25.81648,4.42656 -32.79801,7.96436 -22.37766,11.33962 5.15146,23.88789 55.46705,25.28289 30.52416,0.84628 56.18602,-2.50103 69.534,-9.06998 7.98153,-3.92797 10.13958,-7.12438 7.5147,-11.13046 -3.9518,-6.03119 -21.4325,-11.41433 -44.34321,-13.65537 -14.25636,-1.3945 -13.40502,0.7032 -7.25393,-17.87377 7.12632,-21.52229 1.36576,-19.1555 45.77447,-18.80696 34.76806,0.27287 39.05043,0.4842 41.95265,2.07034 1.90499,1.04115 22.33599,24.33129 49.75826,56.72152 25.58937,30.22529 46.52612,55.19499 46.52612,55.48823 0,0.29324 -91.09716,0.64785 -202.43814,0.78804 -129.85506,0.16347 -202.22429,-0.0911 -201.84171,-0.71015 z m 271.91013,-175.56614 c -2.66671,-0.47326 -5.09038,-1.10229 -5.38594,-1.39785 -0.7592,-0.7592 12.72331,-16.52732 22.23648,-26.00611 4.40073,-4.38484 12.96602,-11.64814 19.03397,-16.14066 14.06581,-10.41389 23.97888,-20.47423 31.99091,-32.46616 32.38761,-48.47588 36.67672,-121.94159 8.87259,-151.97338 -28.8038,-31.11155 -76.19701,-4.48053 -100.38438,56.40764 -7.82728,19.70403 -11.19743,37.40574 -11.52975,60.55993 -0.25122,17.5029 -0.25122,17.5029 -4.87335,25.28464 -5.5394,9.32601 -9.83241,17.68201 -14.12753,27.49805 -3.1833,7.27514 -3.1833,7.27514 -6.29137,-5.50091 -4.49344,-18.47069 -5.51165,-26.80154 -5.47326,-44.78137 0.0481,-22.52516 3.76369,-42.74987 12.2938,-66.9175 9.89516,-28.03509 27.71299,-55.56319 46.91692,-72.48544 9.90053,-8.72423 15.21426,-12.32629 25.31233,-17.15872 21.77405,-10.41995 41.74012,-10.57151 61.79215,-0.46904 3.01313,1.51805 5.62939,3.15559 5.8139,3.63897 0.18451,0.48338 0.7471,0.62447 1.2502,0.31353 0.50311,-0.31094 0.91475,-0.0621 0.91475,0.55288 0,0.61502 0.56259,0.79446 1.2502,0.39876 0.68762,-0.39571 0.92493,-0.35953 0.52735,0.0804 -0.39758,0.43993 2.52791,4.26437 6.50108,8.49877 11.94847,12.73409 20.03427,29.62951 24.76319,51.74322 2.64566,12.37185 3.67464,38.59001 2.08502,53.12588 -6.20735,56.76124 -35.54133,109.64431 -74.8585,134.95432 -13.85598,8.91963 -35.97331,14.48647 -48.63076,12.24015 z"
       id="path893" />
    <path
       style="fill:#f1d35a;stroke:#000000;stroke-width:8.10135;stroke-miterlimit:4;stroke-dasharray:none"
       d="m -652.92044,655.63412 c -4.6284,-2.13614 -7.91794,-5.42279 -9.43496,-9.42662 -2.71285,-7.16001 0.0167,-16.4746 6.09637,-20.80369 4.62875,-3.29597 13.18978,-3.76793 18.5689,-1.02372 13.57954,6.92777 11.27647,27.99376 -3.50941,32.1002 -5.1403,1.42761 -7.10099,1.28605 -11.7209,-0.84617 z m 216.88021,-85.20153 c -10.0708,-4.03688 -31.68352,-10.44219 -44.23247,-13.10907 -8.26981,-1.75749 -13.94179,-2.26365 -25.62333,-2.2866 -14.03364,-0.0276 -15.32544,0.13201 -20.00332,2.47095 -3.23856,1.61928 -6.58688,4.50573 -9.50158,8.19092 -4.50075,5.69049 -4.50075,5.69049 -5.34158,2.00033 -1.15579,-5.07247 -0.0739,-27.77738 1.84108,-38.63652 7.13992,-40.48842 28.05222,-77.08589 53.94302,-94.4027 29.83228,-19.95306 59.96222,-6.46733 70.43573,31.52602 6.80555,24.68759 4.72835,58.20254 -5.41307,87.33809 -3.15624,9.06765 -8.03052,20.18849 -8.71431,19.88199 -0.12825,-0.0575 -3.45383,-1.39552 -7.39017,-2.97341 z"
       id="path891" />
    <path
       style="fill:#94a4a4;stroke:#000000;stroke-width:8.10135;stroke-miterlimit:4;stroke-dasharray:none"
       d="m -778.20569,873.81038 0.26449,-30.7551 202.78367,-0.25246 202.78367,-0.25247 v 31.00757 31.00757 H -575.42202 -778.47019 Z M -367.54533,679.6097 c -3.12027,-0.32607 -5.96862,-0.88827 -6.32966,-1.24932 -0.36105,-0.36104 0.73207,-1.68302 2.42914,-2.93772 5.16948,-3.82196 15.30681,-16.60956 25.70163,-32.42099 26.65944,-40.55128 44.15282,-87.97929 49.97872,-135.5021 1.75025,-14.27713 1.48702,-33.85188 -0.53161,-39.53208 -0.86339,-2.42952 0.14084,-1.70898 5.47718,3.92982 12.29733,12.99437 20.60119,34.61437 22.38547,58.28306 3.34609,44.386 -13.00683,92.27018 -41.88341,122.64183 -18.6294,19.59394 -38.23711,28.77207 -57.22746,26.7875 z m -57.83733,-5.65848 c -0.82514,-0.18923 -9.15152,-1.05637 -18.50307,-1.92701 -27.20034,-2.53236 -52.20228,-5.23353 -49.7161,-5.37125 10.55908,-0.58491 26.66333,-6.04392 36.48884,-12.36898 39.31717,-25.31001 68.65115,-78.19308 74.8585,-134.95432 1.58962,-14.53587 0.56064,-40.75403 -2.08502,-53.12588 -4.83433,-22.60659 -12.83701,-39.08179 -25.50179,-52.50075 -7.96254,-8.43671 -7.96254,-8.43671 31.50523,11.28523 21.70727,10.84707 39.59112,19.83305 39.74189,19.96885 0.15075,0.1358 0.98388,3.57413 1.85139,7.64074 8.61774,40.39728 -16.12359,128.7904 -51.06037,182.42289 -10.19138,15.64507 -18.889,26.72678 -26.52701,33.79822 -5.76334,5.33585 -7.21839,6.0115 -11.05249,5.13226 z M -642.91878,476.44021 c -42.35703,-17.55898 -90.17747,-37.38442 -106.26764,-44.05652 l -29.25486,-12.13111 v -13.88605 -13.88606 l 34.75577,-0.005 34.75577,-0.005 81.59317,33.72477 81.59315,33.72477 -5.46063,11.53769 c -3.00335,6.34573 -7.3149,17.26839 -9.58121,24.27257 -2.26631,7.0042 -4.3456,12.71247 -4.62065,12.68507 -0.27505,-0.0274 -35.15584,-14.41627 -77.51287,-31.97524 z"
       id="path889" />
    <path
       style="fill:#f09a1e;stroke:#000000;stroke-width:8.10135;stroke-miterlimit:4;stroke-dasharray:none"
       d="m -593.41056,796.25143 c 0,-8.29758 2.31295,-46.82347 3.585,-59.71384 6.42135,-65.07128 22.60104,-120.48116 46.4468,-159.06442 12.76083,-20.64745 15.87284,-22.48509 37.98281,-22.42878 18.70021,0.0476 36.08037,3.65723 63.51055,13.19019 14.74916,5.12586 13.9871,4.38474 10.85995,10.56159 -7.48715,14.78896 -23.89196,33.678 -36.86427,42.44677 -28.27406,19.11214 -63.94193,64.41076 -81.63775,103.68094 -9.33319,20.71199 -15.19354,43.34311 -16.5398,63.87239 -0.6395,9.75162 -0.6395,9.75162 -13.99139,9.75162 -13.25903,0 -13.3519,-0.016 -13.3519,-2.29646 z M -701.15852,603.73836 c -3.01806,-0.48274 -6.27097,-4.84238 -6.27097,-8.40452 0,-4.16835 3.97041,-7.82099 8.50141,-7.82099 6.76875,0 10.79763,7.27844 7.0168,12.67633 -1.70022,2.4274 -5.98322,4.07126 -9.24724,3.54918 z m 23.05723,-46.48053 c -3.00726,-3.34091 -3.45821,-5.49371 -1.92128,-9.1721 2.38682,-5.71245 10.48333,-6.73067 14.23669,-1.79041 2.16389,2.84817 1.67031,8.57533 -0.9513,11.03821 -3.14638,2.95586 -8.66841,2.91907 -11.36411,-0.0757 z"
       id="path887" />
    <path
       style="fill:#e37d24;stroke:#000000;stroke-width:8.10135;stroke-miterlimit:4;stroke-dasharray:none"
       d="m -566.07218,788.86459 c 0.59286,-9.04662 2.01569,-19.21916 3.30273,-23.61281 0.45671,-1.55912 1.32314,-1.71337 6.69536,-1.19203 23.65651,2.29575 39.69264,6.05293 46.92752,10.99484 2.87914,1.96664 3.75062,3.23413 3.75062,5.45492 0,8.54626 -18.55836,14.59322 -53.91424,17.56712 -7.40652,0.62299 -7.40652,0.62299 -6.76199,-9.21204 z m -44.84129,7.12794 c -12.78301,-1.93338 -21.13234,-4.25272 -27.72672,-7.70212 -5.91987,-3.0966 -7.38029,-5.21363 -6.37091,-9.23533 1.5297,-6.09479 20.00657,-12.07032 44.34934,-14.34284 8.25137,-0.77031 8.25137,-0.77031 8.25137,6.87744 0,4.20626 -0.29243,11.76757 -0.64985,16.8029 -0.64986,9.15514 -0.64986,9.15514 -4.75079,9.05827 -2.25551,-0.0533 -8.15161,-0.70952 -13.10244,-1.45832 z"
       id="path885" />
    <path
       style="fill:#5d5e61;stroke:#000000;stroke-width:8.10135;stroke-miterlimit:4;stroke-dasharray:none"
       d="m -437.74553,682.5266 c 14.22249,-2.08258 30.34015,-17.41392 49.94237,-47.50586 13.83679,-21.24128 28.49517,-53.27268 38.36894,-83.8436 10.30458,-31.90478 16.01022,-67.32505 14.08586,-87.44416 -1.08975,-11.3932 -2.99644,-20.37657 -4.17082,-19.65076 -0.45455,0.28093 -0.57401,-0.14709 -0.26546,-0.95115 0.69115,-1.80112 -1.83716,-6.861 -4.8453,-9.69686 -2.03401,-1.91752 -1.68861,-1.86825 3.76131,0.53648 3.30055,1.45635 11.84429,5.2064 18.98608,8.33345 16.88954,7.39512 21.35496,11.42106 24.51104,22.09873 4.45542,15.0736 3.55567,39.05893 -2.58621,68.94269 -5.10097,24.81908 -16.67051,57.11157 -29.25357,81.65146 -12.77302,24.91039 -33.21374,53.58294 -44.13918,61.91479 -8.38515,6.39459 -9.29977,6.53834 -41.03037,6.4483 -16.97634,-0.0482 -26.4259,-0.38527 -23.36469,-0.83351 z"
       id="path883" />
    <path
       style="fill:#2b2e37;stroke:#000000;stroke-width:8.10135;stroke-miterlimit:4;stroke-dasharray:none"
       d="m -448.20922,680.84543 c -2.92563,-1.44167 -8.6919,-8.13854 -7.78688,-9.04358 0.18632,-0.1863 7.2136,0.35071 15.61622,1.19336 8.4026,0.84265 16.22707,1.5464 17.38771,1.56389 2.10062,0.0317 2.10113,0.039 0.10992,1.60963 -7.4636,5.8871 -18.67103,7.95658 -25.32697,4.6767 z m 96.39767,-243.01287 c -11.28711,-5.71387 -12.69484,-6.69306 -11.00182,-7.65275 1.06777,-0.60527 4.24823,-1.10529 7.06766,-1.11116 7.67792,-0.016 13.06014,4.19516 16.31991,12.76903 0.55444,1.45828 0.9067,2.62796 0.78279,2.59928 -0.12391,-0.0287 -6.04976,-3.00067 -13.16854,-6.6044 z"
       id="path881" />
  </g>
</svg>
