<?xml version="1.0" encoding="UTF-8" standalone="no"?>
<svg
   xmlns:dc="http://purl.org/dc/elements/1.1/"
   xmlns:cc="http://creativecommons.org/ns#"
   xmlns:rdf="http://www.w3.org/1999/02/22-rdf-syntax-ns#"
   xmlns:svg="http://www.w3.org/2000/svg"
   xmlns="http://www.w3.org/2000/svg"
   xmlns:sodipodi="http://sodipodi.sourceforge.net/DTD/sodipodi-0.dtd"
   xmlns:inkscape="http://www.inkscape.org/namespaces/inkscape"
   height="512pt"
   viewBox="0 0 512 512"
   width="512pt"
   version="1.1"
   id="svg34"
   sodipodi:docname="comment.svg"
   inkscape:version="1.0.2-2 (e86c870879, 2021-01-15)">
  <metadata
     id="metadata40">
    <rdf:RDF>
      <cc:Work
         rdf:about="">
        <dc:format>image/svg+xml</dc:format>
        <dc:type
           rdf:resource="http://purl.org/dc/dcmitype/StillImage" />
        <dc:title />
      </cc:Work>
    </rdf:RDF>
  </metadata>
  <defs
     id="defs38" />
  <sodipodi:namedview
     pagecolor="#ffffff"
     bordercolor="#666666"
     borderopacity="1"
     objecttolerance="10"
     gridtolerance="10"
     guidetolerance="10"
     inkscape:pageopacity="0"
     inkscape:pageshadow="2"
     inkscape:window-width="1858"
     inkscape:window-height="1057"
     id="namedview36"
     showgrid="false"
     inkscape:zoom="0.92186282"
     inkscape:cx="385.24304"
     inkscape:cy="256.32378"
     inkscape:window-x="54"
     inkscape:window-y="438"
     inkscape:window-maximized="1"
     inkscape:current-layer="svg34"
     inkscape:document-rotation="0" />
  <g
     id="g864"
     transform="translate(163.52758,-100.06911)">
    <path
       style="fill:#fd3c78;stroke-width:0.75"
       d="m -80.560165,504.17924 c -4.870817,-2.79341 -4.449159,-5.38305 2.0625,-12.66702 11.30213,-12.64259 20.264041,-26.02407 27.190162,-40.59902 3.285907,-6.91468 3.285907,-6.91468 -4.758616,-15.18388 -94.759521,-97.40616 -7.192021,-238.39926 149.505954,-240.72067 10.934135,-0.16199 12.068515,-0.10494 4.875,0.24517 -9.375,0.45629 -9.375,0.45629 -0.537675,1.39959 215.81909,23.03652 214.84421,270.17694 -1.17219,297.16104 -19.72023,2.46339 -45.580732,-1.01144 -73.076625,-9.81915 -6.981195,-2.23629 -6.981195,-2.23629 -12.784853,0.37185 -24.863835,11.17369 -50.656796,17.79345 -77.72507,19.94811 -11.73639,0.93423 -11.712011,0.93447 -13.578587,-0.13602 z M 23.46542,377.49182 c 17.884522,-3.79469 27.853013,-22.95918 20.315805,-39.05724 -8.28624,-17.69787 -30.01179,-22.33694 -44.1393675,-9.42513 -20.7990595,19.00918 -3.47061,54.2736 23.8235625,48.48237 z m 79.58971,-0.27814 c 8.7057,-2.26754 15.68407,-7.80173 19.01671,-15.08117 12.95465,-28.29669 -21.29507,-53.82928 -44.004358,-32.80449 -20.85162,19.30492 -2.237317,54.97687 24.987648,47.88566 z m 82.24694,-1.05473 c 22.67962,-8.61757 24.34897,-40.88211 2.66276,-51.46467 -24.05892,-11.7404 -49.28746,13.54137 -37.51803,37.59721 6.29986,12.87644 21.5233,18.93322 34.85527,13.86746 z"
       id="path868" />
    <path
       style="fill:#b1006d;stroke-width:0.75"
       d="m 97.564835,493.75861 c 216.152145,-27.99221 216.152145,-270.10294 0,-297.28678 -8.625,-1.08471 -8.625,-1.08471 7.875005,-0.79124 113.77449,2.02358 200.11899,85.88304 180.4139,175.22149 -15.83795,71.80572 -97.46906,125.2067 -190.08532,124.34895 -9.078585,-0.0841 -9.078585,-0.0841 1.796415,-1.49242 z"
       id="path866" />
  </g>
</svg>
