<?xml version="1.0" encoding="UTF-8" standalone="no"?>
<svg
   xmlns:dc="http://purl.org/dc/elements/1.1/"
   xmlns:cc="http://creativecommons.org/ns#"
   xmlns:rdf="http://www.w3.org/1999/02/22-rdf-syntax-ns#"
   xmlns:svg="http://www.w3.org/2000/svg"
   xmlns="http://www.w3.org/2000/svg"
   xmlns:sodipodi="http://sodipodi.sourceforge.net/DTD/sodipodi-0.dtd"
   xmlns:inkscape="http://www.inkscape.org/namespaces/inkscape"
   version="1.1"
   id="Capa_1"
   x="0px"
   y="0px"
   viewBox="0 0 496 496"
   style="enable-background:new 0 0 496 496;"
   xml:space="preserve"
   sodipodi:docname="cutting.svg"
   inkscape:version="1.0.2-2 (e86c870879, 2021-01-15)"><metadata
   id="metadata73"><rdf:RDF><cc:Work
       rdf:about=""><dc:format>image/svg+xml</dc:format><dc:type
         rdf:resource="http://purl.org/dc/dcmitype/StillImage" /><dc:title></dc:title></cc:Work></rdf:RDF></metadata><defs
   id="defs71" /><sodipodi:namedview
   pagecolor="#ffffff"
   bordercolor="#666666"
   borderopacity="1"
   objecttolerance="10"
   gridtolerance="10"
   guidetolerance="10"
   inkscape:pageopacity="0"
   inkscape:pageshadow="2"
   inkscape:window-width="1858"
   inkscape:window-height="1057"
   id="namedview69"
   showgrid="false"
   inkscape:zoom="1.7943548"
   inkscape:cx="248"
   inkscape:cy="248"
   inkscape:window-x="54"
   inkscape:window-y="-8"
   inkscape:window-maximized="1"
   inkscape:current-layer="Capa_1" />
<circle
   style="fill:#ECECEC;"
   cx="304"
   cy="220"
   r="108"
   id="circle2" />
<path
   style="fill:#AFB8C9;"
   d="M292,88l-38.232-46.776c-0.624-0.76-1.592-1.224-2.584-1.224h-51.856  c-1.832,0-3.328,1.496-3.328,3.328c0,0.768,0.272,1.512,0.76,2.12L292,160l-48-8l-71.944-86.216  C166.848,59.456,164,51.52,164,43.328l0,0C164,23.816,179.816,8,199.328,8h51.856c10.64,0,20.712,4.792,27.416,13.048L340,96L292,88  z"
   id="path4" />
<rect
   x="132"
   y="328"
   style="fill:#ECECEC;"
   width="32"
   height="56"
   id="rect6" />
<g
   id="g12">
	<path
   style="fill:#AFB8C9;"
   d="M132,472c0,8.84,7.16,16,16,16h16c8.84,0,16-7.16,16-16v-40h-48V472z"
   id="path8" />
	<path
   style="fill:#AFB8C9;"
   d="M372,432v40c0,8.84,7.16,16,16,16h16c8.84,0,16-7.16,16-16v-40H372z"
   id="path10" />
</g>
<g
   id="g18">
	<rect
   x="132"
   y="432"
   style="fill:#8C95A4;"
   width="48"
   height="24"
   id="rect14" />
	<rect
   x="372"
   y="432"
   style="fill:#8C95A4;"
   width="48"
   height="24"
   id="rect16" />
</g>
<path
   style="fill:#B6C1CE;"
   d="M304,112c-38.456,0-72.128,20.16-91.264,50.432l43.064,43.064c-2.488,5.84-3.8,12.12-3.8,18.504  c0,26.472,21.528,48,48,48c6.384,0,12.664-1.312,18.504-3.8l43.064,43.064C391.84,292.128,412,258.456,412,220  C412,160.352,363.648,112,304,112z"
   id="path20" />
<path
   style="fill:#48C397;"
   d="M306.544,72C262.264,72,222.68,91.856,196,123.072l79.984,79.984C271.072,208.68,268,215.944,268,224  c0,17.672,14.328,32,32,32c8.056,0,15.32-3.072,20.944-7.984L400.928,328C432.144,301.32,452,261.736,452,217.456  C452,137.12,386.88,72,306.544,72z"
   id="path22" />
<circle
   style="fill:#ECECEC;"
   cx="300"
   cy="224"
   r="16"
   id="circle24" />
<path
   style="fill:#48C397;"
   d="M356,328v48H100v48c0,8.84,7.16,16,16,16h320c8.84,0,16-7.16,16-16v-96H356z"
   id="path26" />
<circle
   style="fill:#92E0C0;"
   cx="404"
   cy="376"
   r="16"
   id="circle28" />
<path
   d="M460,217.456c0-78.44-59.192-143.216-135.232-152.272L284.808,16c-8.264-10.168-20.52-16-33.624-16H199.32  C175.432,0,156,19.44,156,43.328c0,10.032,3.512,19.816,9.88,27.536l31.816,38.632c-2.672,2.696-5.288,5.464-7.776,8.376  l-4.808,5.624L211.616,150C196.416,170.064,188,194.728,188,220c0,42.616,23.168,79.832,57.504,100H76v-8H60v8H36v16h24v8h16v-8h48  v32H92v56c0,13.232,10.768,24,24,24h8v24c0,13.232,10.768,24,24,24h16c13.232,0,24-10.768,24-24v-24h176v24  c0,13.232,10.768,24,24,24h16c13.232,0,24-10.768,24-24v-24h8c13.232,0,24-10.768,24-24V320h-39.488  C445.776,291.96,460,255.576,460,217.456z M178.232,60.696C174.216,55.824,172,49.648,172,43.328C172,28.256,184.256,16,199.328,16  h51.864c8.264,0,15.992,3.68,21.2,10.096l30.872,38c-6.496,0.136-12.936,0.68-19.296,1.624L259.96,36.168  C257.8,33.512,254.6,32,251.184,32h-51.856C193.08,32,188,37.08,188,43.328c0,2.576,0.896,5.112,2.584,7.2l31.864,38.688  c-4.456,2.928-8.752,6.096-12.904,9.496L178.232,60.696z M266.344,69.392c-10.368,2.824-20.384,6.736-29.904,11.648L209.224,48  h39.736L266.344,69.392z M207.024,122.784C232.968,95.504,268.832,80,306.544,80C382.336,80,444,141.664,444,217.456  c0,37.712-15.504,73.576-42.784,99.52L321.32,237.08l-5.632,4.904C312.544,244.728,307.264,248,300,248c-13.232,0-24-10.768-24-24  c0-7.272,3.272-12.536,6.008-15.688l4.912-5.624L207.024,122.784z M381.616,320H362.64c3.928-2.304,7.712-4.856,11.36-7.616  L381.616,320z M204,220c0-21.048,6.776-41.608,19.048-58.576l42.488,42.488C261.936,210.024,260,216.944,260,224  c0,22.056,17.944,40,40,40c7.048,0,13.976-1.928,20.08-5.528l42.488,42.488C345.608,313.224,325.048,320,304,320  C248.856,320,204,275.144,204,220z M172,336h128v-0.2c1.336,0.04,2.648,0.2,4,0.2c15.176,0,30.112-3.104,44-8.792V368H172V336z   M140,336h16v32h-16V336z M172,472c0,4.416-3.592,8-8,8h-16c-4.408,0-8-3.584-8-8v-24h32V472z M412,472c0,4.416-3.592,8-8,8h-16  c-4.408,0-8-3.584-8-8v-24h32V472z M444,336v88c0,4.416-3.592,8-8,8H116c-4.408,0-8-3.584-8-8v-40h256v-48h33.616h6.264H444z"
   id="path30" />
<path
   d="M405.704,183.568l15.064-5.392C403.16,129.024,356.232,96,304,96c-22.152,0-43.896,5.912-62.888,17.112l8.128,13.784  C265.768,117.152,284.704,112,304,112C349.496,112,390.368,140.768,405.704,183.568z"
   id="path32" />
<path
   d="M411.432,208.824l15.912-1.64c-0.496-4.848-1.296-9.728-2.36-14.48l-15.608,3.504  C410.304,200.344,411,204.584,411.432,208.824z"
   id="path34" />
<path
   d="M380,376c0,13.232,10.768,24,24,24s24-10.768,24-24s-10.768-24-24-24S380,362.768,380,376z M412,376c0,4.416-3.592,8-8,8  s-8-3.584-8-8s3.592-8,8-8S412,371.584,412,376z"
   id="path36" />
<g
   id="g38">
</g>
<g
   id="g40">
</g>
<g
   id="g42">
</g>
<g
   id="g44">
</g>
<g
   id="g46">
</g>
<g
   id="g48">
</g>
<g
   id="g50">
</g>
<g
   id="g52">
</g>
<g
   id="g54">
</g>
<g
   id="g56">
</g>
<g
   id="g58">
</g>
<g
   id="g60">
</g>
<g
   id="g62">
</g>
<g
   id="g64">
</g>
<g
   id="g66">
</g>
</svg>
