<?xml version="1.0" encoding="UTF-8" standalone="no"?>
<!-- Created with Inkscape (http://www.inkscape.org/) -->

<svg
   width="32"
   height="32"
   viewBox="0 0 8.4666659 8.4666662"
   version="1.1"
   id="svg4402"
   inkscape:version="1.1.1 (3bf5ae0d25, 2021-09-20)"
   sodipodi:docname="favicon.svg"
   inkscape:export-filename="Y:\app\static\favicon.png"
   inkscape:export-xdpi="96"
   inkscape:export-ydpi="96"
   xmlns:inkscape="http://www.inkscape.org/namespaces/inkscape"
   xmlns:sodipodi="http://sodipodi.sourceforge.net/DTD/sodipodi-0.dtd"
   xmlns="http://www.w3.org/2000/svg"
   xmlns:svg="http://www.w3.org/2000/svg"
   xmlns:rdf="http://www.w3.org/1999/02/22-rdf-syntax-ns#"
   xmlns:cc="http://creativecommons.org/ns#"
   xmlns:dc="http://purl.org/dc/elements/1.1/">
  <defs
     id="defs4396" />
  <sodipodi:namedview
     id="base"
     pagecolor="#ffffff"
     bordercolor="#666666"
     borderopacity="1.0"
     inkscape:pageopacity="0"
     inkscape:pageshadow="2"
     inkscape:zoom="16"
     inkscape:cx="15.4375"
     inkscape:cy="19.09375"
     inkscape:document-units="px"
     inkscape:current-layer="layer1"
     showgrid="false"
     fit-margin-top="0"
     fit-margin-left="0"
     fit-margin-right="0"
     fit-margin-bottom="0"
     inkscape:window-width="1920"
     inkscape:window-height="1017"
     inkscape:window-x="1912"
     inkscape:window-y="-8"
     inkscape:window-maximized="1"
     inkscape:pagecheckerboard="0"
     units="px" />
  <metadata
     id="metadata4399">
    <rdf:RDF>
      <cc:Work
         rdf:about="">
        <dc:format>image/svg+xml</dc:format>
        <dc:type
           rdf:resource="http://purl.org/dc/dcmitype/StillImage" />
      </cc:Work>
    </rdf:RDF>
  </metadata>
  <g
     inkscape:label="Layer 1"
     inkscape:groupmode="layer"
     id="layer1"
     transform="translate(-76.079543,167.54216)">
    <path
       id="path1296-6"
       style="fill:#000080;stroke:#000080;stroke-width:0.0142563"
       d="m 80.24815,-167.53486 c -0.04331,-1.3e-4 -0.08606,1.2e-4 -0.127243,5e-4 v 2.5e-4 c -0.197672,0.002 -0.359118,0.01 -0.371797,0.025 -0.0095,0.0114 -0.04887,0.18907 -0.08752,0.39476 -0.03863,0.20569 -0.08451,0.45 -0.101909,0.54281 -0.04045,0.21576 -0.0034,0.18499 -0.431244,0.35762 -0.469717,0.18952 -0.381497,0.20159 -0.844208,-0.11555 -0.478429,-0.32791 -0.52829,-0.3611 -0.544382,-0.3611 -0.05009,0 -0.807733,0.79455 -0.789367,0.82783 0.01992,0.0361 0.291025,0.43259 0.487813,0.71343 0.121948,0.17403 0.134571,0.20316 0.112849,0.26167 -0.049,0.13199 -0.314101,0.73345 -0.332933,0.75535 -0.01578,0.0183 -0.07244,0.0357 -0.185539,0.057 -0.444088,0.0835 -0.618245,0.11571 -0.753958,0.13903 -0.206179,0.0354 -0.18741,-0.0253 -0.18741,0.60949 0,0.66341 -0.104671,0.5559 0.678533,0.69757 0.466267,0.0843 0.404014,0.0305 0.601094,0.51869 0.139855,0.34645 0.200128,0.38697 0.07658,0.59118 -0.01078,0.0157 -0.02215,0.0323 -0.03541,0.0512 -0.196789,0.28084 -0.467869,0.6772 -0.487813,0.7133 -0.01836,0.0333 0.73913,0.82783 0.789224,0.82783 0.01609,0 0.06609,-0.0331 0.544524,-0.36097 0.222544,-0.15253 0.317627,-0.22883 0.408646,-0.24594 8.36e-4,1.3e-4 0.0016,7e-5 0.0024,2.5e-4 l 0.0832,1.3e-4 c 0.07742,0.0135 0.17505,0.0594 0.349918,0.13 0.427867,0.17263 0.390795,0.14187 0.431244,0.35762 0.0174,0.0928 0.06313,0.337 0.101766,0.54268 0.03864,0.2057 0.07813,0.38334 0.08766,0.39477 0.01268,0.0152 0.173982,0.0231 0.371654,0.0251 v 2.5e-4 c 0.32945,0.003 0.759727,-0.0107 0.770367,-0.0364 0.0073,-0.0176 0.05597,-0.26561 0.108243,-0.5512 0.116123,-0.63437 0.05684,-0.54991 0.520775,-0.74168 0.13687,-0.0566 0.221407,-0.098 0.2886,-0.11787 l 0.153152,1.3e-4 c 0.09163,0.0317 0.208395,0.12266 0.460896,0.29507 0.248264,0.16952 0.45695,0.30823 0.463775,0.30823 0.0068,0 0.192323,-0.17917 0.412101,-0.39812 0.01632,-0.0163 0.02752,-0.0271 0.0426,-0.042 0.195271,-0.17924 0.376691,-0.36262 0.376691,-0.39876 0,-0.008 -0.131864,-0.20608 -0.293205,-0.44042 -0.358625,-0.52087 -0.340651,-0.40625 -0.141349,-0.90237 0.200315,-0.49865 0.112621,-0.4326 0.720419,-0.54229 0.27109,-0.0489 0.507271,-0.0978 0.52495,-0.10872 0.03375,-0.0208 0.05208,-1.07547 0.01957,-1.12651 -0.01036,-0.0163 -0.319893,-0.0792 -0.990163,-0.20118 -0.125029,-0.0228 -0.114663,-0.008 -0.304434,-0.44674 -0.192393,-0.44527 -0.185309,-0.39739 -0.08161,-0.54939 0.107815,-0.15804 0.284644,-0.4139 0.402888,-0.58318 0.175562,-0.25133 0.208124,-0.16969 -0.250168,-0.62626 -0.219777,-0.21894 -0.405124,-0.39811 -0.411956,-0.39811 -0.0068,0 -0.215655,0.13871 -0.463919,0.30823 -0.568336,0.38807 -0.44929,0.36466 -0.902504,0.17732 -0.463941,-0.19179 -0.404652,-0.10719 -0.520775,-0.74156 -0.05228,-0.28559 -0.100954,-0.53372 -0.108242,-0.55133 -0.0093,-0.0224 -0.339917,-0.0359 -0.643125,-0.0367 z m 1.780782,2.87664 c 0.590501,-0.0252 0.69924,0.76208 -0.01953,0.80745 -0.718772,0.0454 -0.772315,-0.20566 -1.288393,0.0714 -0.516078,0.27703 -0.185262,2.0424 -0.0633,2.57943 -0.121034,-8e-4 0.03976,0.0204 -0.449524,0.0147 0.0091,-0.2062 -0.01509,-0.72271 -0.04394,-0.92414 -0.218172,-1.38633 -0.388346,-1.73728 -0.64039,-1.59453 -0.252044,0.14275 -0.463587,0.20795 -0.74461,0.16916 -0.281023,-0.0388 -1.057972,0.0111 -0.806903,-0.44881 0.251069,-0.45993 1.635986,-0.19388 2.242713,-0.28313 0.606727,-0.0893 0.967439,-0.20935 1.813842,-0.3915 0.846402,-0.18215 -0.590463,0.0252 3.8e-5,0 z"
       sodipodi:nodetypes="ccccccccsccccccscccccsccccccscccccccccsccsccccccccccscccccczzzccczzzzzzz" />
  </g>
</svg>
