<?xml version="1.0" encoding="UTF-8" standalone="no"?>
<svg
   xmlns:dc="http://purl.org/dc/elements/1.1/"
   xmlns:cc="http://creativecommons.org/ns#"
   xmlns:rdf="http://www.w3.org/1999/02/22-rdf-syntax-ns#"
   xmlns:svg="http://www.w3.org/2000/svg"
   xmlns="http://www.w3.org/2000/svg"
   xmlns:sodipodi="http://sodipodi.sourceforge.net/DTD/sodipodi-0.dtd"
   xmlns:inkscape="http://www.inkscape.org/namespaces/inkscape"
   height="512pt"
   viewBox="0 0 512 512"
   width="512pt"
   version="1.1"
   id="svg34"
   sodipodi:docname="file.svg"
   inkscape:version="1.0.2-2 (e86c870879, 2021-01-15)">
  <metadata
     id="metadata40">
    <rdf:RDF>
      <cc:Work
         rdf:about="">
        <dc:format>image/svg+xml</dc:format>
        <dc:type
           rdf:resource="http://purl.org/dc/dcmitype/StillImage" />
        <dc:title></dc:title>
      </cc:Work>
    </rdf:RDF>
  </metadata>
  <defs
     id="defs38" />
  <sodipodi:namedview
     pagecolor="#ffffff"
     bordercolor="#666666"
     borderopacity="1"
     objecttolerance="10"
     gridtolerance="10"
     guidetolerance="10"
     inkscape:pageopacity="0"
     inkscape:pageshadow="2"
     inkscape:window-width="1920"
     inkscape:window-height="1027"
     id="namedview36"
     showgrid="false"
     inkscape:zoom="0.92186282"
     inkscape:cx="346.17123"
     inkscape:cy="365.34755"
     inkscape:window-x="1912"
     inkscape:window-y="438"
     inkscape:window-maximized="1"
     inkscape:current-layer="svg34"
     inkscape:document-rotation="0" />
  <g
     id="g877">
    <path
       style="fill:#fdf5bd;stroke-width:0.75"
       d="m 226.66016,219.47398 c -14.73928,-7.70124 -26.8049,-14.18062 -26.8125,-14.39863 -0.008,-0.218 12.14395,-6.72835 27.00342,-14.46743 l 27.01724,-14.07105 26.98276,14.06832 c 14.84053,7.73757 26.97984,14.24791 26.97625,14.46742 -0.006,0.35217 -52.58433,27.95397 -53.86355,28.27637 -0.27771,0.07 -12.56433,-6.17376 -27.30362,-13.875 z"
       id="path885" />
    <path
       style="fill:#fdbbba;stroke-width:0.75"
       d="m 114.27709,447.53422 -1.81823,-2.0625 2.0625,1.81824 c 1.13437,1.00003 2.0625,1.92816 2.0625,2.0625 0,0.58821 -0.60735,0.10948 -2.30677,-1.81824 z m 277.93176,0.5625 c 0.74662,-0.825 1.52624,-1.5 1.73249,-1.5 0.20625,0 -0.23587,0.675 -0.98249,1.5 -0.74661,0.82501 -1.52623,1.5 -1.73248,1.5 -0.20625,0 0.23587,-0.67499 0.98248,-1.5 z m -186.5625,-33.5624 c 26.50313,-0.10923 69.87188,-0.10923 96.375,0 26.50313,0.10924 4.81875,0.19863 -48.1875,0.19863 -53.00625,0 -74.69062,-0.0894 -48.1875,-0.19863 z m 53.34183,-52.5001 c -0.9329,-1.18954 -0.90637,-1.21607 0.28317,-0.28317 1.24932,0.97978 1.64661,1.59567 1.02933,1.59567 -0.15573,0 -0.74636,-0.59062 -1.3125,-1.3125 z m -101.29495,-2.19983 c 0.5414,-0.21665 1.18828,-0.19001 1.4375,0.0592 0.24922,0.24921 -0.19375,0.42648 -0.98437,0.39391 -0.87372,-0.036 -1.05143,-0.2137 -0.45313,-0.45312 z m 95.5924,-0.007 c 0.72972,-0.19015 1.74222,-0.17765 2.25,0.0278 0.50777,0.20544 -0.0893,0.36103 -1.32678,0.34574 -1.2375,-0.0153 -1.65295,-0.18338 -0.92322,-0.37353 z m 95.6576,0.007 c 0.5414,-0.21665 1.18829,-0.19001 1.4375,0.0592 0.24922,0.24921 -0.19375,0.42648 -0.98437,0.39391 -0.87372,-0.036 -1.05143,-0.2137 -0.45313,-0.45312 z m -87.59042,-80.98767 0.019,-32.125 27.47732,-14.25 c 15.11253,-7.83749 27.76025,-14.3625 28.10605,-14.49999 0.34578,-0.13751 0.62086,14.20624 0.61127,31.875 l -0.0174,32.12499 -27.44451,14.25 c -15.09448,7.8375 -27.74289,14.3625 -28.10757,14.5 -0.37783,0.14247 -0.6549,-13.56916 -0.6441,-31.875 z m -84.86462,12.6875 c -0.93291,-1.18954 -0.90638,-1.21607 0.28316,-0.28317 0.72188,0.56614 1.3125,1.15677 1.3125,1.3125 0,0.61728 -0.61589,0.21999 -1.59566,-1.02933 z m 153.09566,1.02933 c 0,-0.15573 0.59063,-0.74636 1.3125,-1.3125 1.18955,-0.9329 1.21608,-0.90637 0.28317,0.28317 -0.97977,1.24932 -1.59567,1.64661 -1.59567,1.02933 z M 174.68473,245.97172 c 1.1e-4,-23.5125 0.0952,-33.02284 0.21125,-21.1341 0.11608,11.88875 0.11599,31.12625 -2e-4,42.75 -0.11618,11.62376 -0.21115,1.8966 -0.21105,-21.6159 z m 158.24981,-0.375 c 0,-23.30624 0.0951,-32.84062 0.21134,-21.1875 0.11623,11.65313 0.11623,30.72188 0,42.375 -0.11624,11.65313 -0.21134,2.11875 -0.21134,-21.1875 z m -2.84024,-80.81174 c 9.9745,-0.11808 26.512,-0.11819 36.75,-2.5e-4 10.23801,0.11794 2.07706,0.21454 -18.13545,0.21468 -20.2125,1.4e-4 -28.58904,-0.0964 -18.61455,-0.21443 z m -21.60612,-2.25076 c -0.9329,-1.18954 -0.90637,-1.21607 0.28317,-0.28317 1.24932,0.97978 1.64661,1.59567 1.02933,1.59567 -0.15573,0 -0.74636,-0.59062 -1.3125,-1.3125 z m -1.80727,-39.93749 c 0,-20.00625 0.0967,-28.19063 0.21481,-18.1875 0.11814,10.00312 0.11814,26.37187 0,36.37499 -0.11814,10.00313 -0.21481,1.81876 -0.21481,-18.18749 z m 52.15032,-9.5625 -40.12238,-40.312505 40.3125,40.122375 c 37.47167,37.29493 40.64925,40.50262 40.12238,40.50262 -0.10457,0 -18.2452,-18.14062 -40.3125,-40.31249 z M 114.33386,79.471725 c 0.9688,-1.03125 1.93022,-1.875 2.13647,-1.875 0.20625,0 -0.41767,0.84375 -1.38647,1.875 -0.96881,1.03125 -1.93023,1.875 -2.13648,1.875 -0.20625,0 0.41767,-0.84375 1.38648,-1.875 z"
       id="path883" />
    <path
       style="fill:#64dcf2;stroke-width:0.75"
       d="m 180.5704,374.78508 c 7.76137,-0.12199 20.24886,-0.12181 27.75001,4.2e-4 7.50114,0.12223 1.15095,0.22205 -14.11156,0.22181 -15.2625,-2.3e-4 -21.3998,-0.10023 -13.63845,-0.22223 z m 72.71523,0.0419 c 0.72973,-0.19015 1.74223,-0.17765 2.25,0.0278 0.50777,0.20545 -0.0893,0.36103 -1.32677,0.34574 -1.2375,-0.0153 -1.65296,-0.18337 -0.92323,-0.37353 z m 46.53478,-0.0419 c 7.76136,-0.12199 20.24885,-0.12181 27.75,4.2e-4 7.50114,0.12223 1.15095,0.22205 -14.11156,0.22181 -15.2625,-2.3e-4 -21.3998,-0.10023 -13.63844,-0.22223 z m -41.48656,-1.22153 c 0,-0.15573 0.59063,-0.74636 1.3125,-1.3125 1.18955,-0.9329 1.21608,-0.90637 0.28317,0.28317 -0.97977,1.24932 -1.59567,1.64661 -1.59567,1.02933 z m -83.76227,-13.77862 c 8.587,-0.12042 22.4245,-0.12026 30.75,3.5e-4 8.3255,0.12061 1.29978,0.21914 -15.61273,0.21894 -16.9125,-1.9e-4 -23.72427,-0.0989 -15.13727,-0.21929 z m 128.25,0 c 8.587,-0.12042 22.4245,-0.12026 30.75,3.5e-4 8.3255,0.12061 1.29977,0.21914 -15.61273,0.21894 -16.9125,-1.9e-4 -23.72427,-0.0989 -15.13727,-0.21929 z m -85.15811,-63.45644 -27.54538,-14.35677 -0.0171,-32.12499 c -0.0101,-19.04529 0.26143,-32.02322 0.66702,-31.875 0.37627,0.1375 13.02535,6.6625 28.10906,14.49999 l 27.42492,14.25 0.016,32.0625 c 0.009,17.63438 -0.23718,32.02617 -0.54655,31.98177 -0.30938,-0.0444 -12.95792,-6.54127 -28.10789,-14.4375 z"
       id="path881" />
    <path
       style="fill:#010101;stroke-width:0.75"
       d="m 126.70886,454.55208 c -7.7668,-2.4679 -13.41932,-7.28846 -16.58593,-14.14475 l -2.16407,-4.68561 -0.19394,-170.59843 c -0.17418,-153.22552 -0.0739,-171.011189 0.98437,-174.651643 2.22276,-7.646024 6.89254,-12.957287 14.55034,-16.549087 l 4.15923,-1.950835 h 95.06161 95.06161 l 41.06339,41.063375 41.06338,41.06336 v 140.81163 140.81163 l -2.1203,4.58808 c -2.63954,5.71164 -7.03373,10.08252 -12.8797,12.81136 l -4.5,2.10056 -125.25,0.14181 c -99.54489,0.1127 -125.86569,-0.0539 -128.24999,-0.81145 z m 252.36005,-15.26902 c 1.43552,-0.72124 3.37615,-2.45812 4.3125,-3.85975 l 1.70244,-2.54841 V 298.73581 164.59672 h -36.80769 -36.80769 l -2.19231,-2.1923 -2.19231,-2.19231 V 123.40442 86.596725 l -87.9375,0.0012 c -98.12941,0.0013 -91.15146,-0.379173 -94.86005,5.172246 l -1.70244,2.548413 V 263.59672 432.8749 l 1.70244,2.54841 c 0.93635,1.40163 2.87698,3.13851 4.3125,3.85975 2.45306,1.23245 9.98605,1.31133 125.23505,1.31133 115.24901,0 122.782,-0.0789 125.23506,-1.31133 z M 155.39634,413.53664 c -3.27782,-1.90915 -3.56249,-4.00194 -3.56249,-26.18992 0,-22.36908 0.28667,-24.39648 3.70846,-26.22777 0.92672,-0.49596 13.20686,-0.77223 34.32536,-0.77223 36.35992,0 35.31225,-0.13648 36.94572,4.81302 1.007,3.05122 -0.4086,7.31106 -2.86674,8.62662 -1.00653,0.53868 -10.83427,0.81036 -29.31349,0.81036 h -27.79931 v 12.375 12.375 h 87 87 v -12.375 -12.375 h -27.95811 c -30.57504,0 -30.1538,0.0583 -32.01124,-4.42602 -0.7184,-1.73437 -0.72871,-2.83381 -0.046,-4.90254 1.67447,-5.07369 0.5304,-4.92144 36.98151,-4.92144 21.1185,0 33.39864,0.27627 34.32536,0.77223 3.42207,1.83144 3.70845,3.85782 3.70845,26.23983 0,21.89583 -0.15801,23.13368 -3.27527,25.65876 -1.49739,1.21293 -7.81279,1.29544 -98.72473,1.2897 -64.60613,-0.004 -97.56444,-0.26208 -98.43751,-0.7706 z m 94.20775,-40.03504 c -2.54762,-1.78443 -3.56917,-5.10158 -2.53556,-8.23344 1.11356,-3.37412 3.3112,-4.92144 6.9899,-4.92144 3.96716,0 7.27542,3.23987 7.27542,7.125 0,5.57566 -7.13882,9.24549 -11.72976,6.02988 z m -4.79602,-46.3708 c -4.31707,-2.24881 -21.01172,-10.91505 -37.09922,-19.25832 -16.08749,-8.34327 -30.00937,-15.99979 -30.9375,-17.01449 l -1.6875,-1.84491 v -43.41636 -43.41635 l 1.6875,-1.83213 c 0.92813,-1.00767 18.05625,-10.33957 38.0625,-20.73756 27.03303,-14.05008 37.04916,-18.90936 39,-18.92068 1.98601,-0.0115 11.47968,4.58745 39,18.89265 20.00625,10.39934 37.13438,19.7381 38.0625,20.75281 l 1.6875,1.84491 v 43.41635 43.41636 l -1.6875,1.86253 c -1.85521,2.04765 -72.86086,39.26828 -76.17727,39.93157 -1.54845,0.30969 -4.01606,-0.60565 -9.91101,-3.67638 z m 1.50984,-48.34658 -0.016,-32.0625 -27.42492,-14.25 c -15.0837,-7.8375 -27.73278,-14.3625 -28.10905,-14.49999 -0.40559,-0.14822 -0.67717,12.82971 -0.66702,31.875 l 0.0171,32.12499 27.54538,14.35677 c 15.14996,7.89623 27.79851,14.3931 28.10788,14.4375 0.30938,0.0444 0.55532,-14.34739 0.54656,-31.98177 z m 43.78657,17.4375 27.44451,-14.25 0.0174,-32.12499 c 0.01,-17.66876 -0.26549,-32.01251 -0.61128,-31.875 -0.34576,0.13749 -12.99348,6.6625 -28.10601,14.49999 l -27.47732,14.25 -0.019,32.125 c -0.0108,18.30584 0.26626,32.01747 0.6441,31.875 0.36469,-0.1375 13.0131,-6.6625 28.10758,-14.5 z m -8.21901,-76.875 c 14.6705,-7.63125 26.67752,-14.04375 26.68227,-14.25 0.0121,-0.52327 -53.66999,-28.5 -54.68609,-28.5 -1.01633,0 -54.78927,27.97686 -54.77845,28.5 0.0156,0.75489 53.64493,28.37408 54.85714,28.25153 0.68832,-0.0696 13.25462,-6.37027 27.92513,-14.00153 z m 91.94838,-69.94158 c 0,-0.10536 -11.64374,-11.83165 -25.875,-26.05841 l -25.875,-25.866853 v 26.058423 26.05842 h 25.875 c 14.23126,0 25.875,-0.0862 25.875,-0.19158 z"
       id="path879" />
  </g>
</svg>
