<?xml version="1.0" encoding="UTF-8" standalone="no"?>
<svg
   xmlns:dc="http://purl.org/dc/elements/1.1/"
   xmlns:cc="http://creativecommons.org/ns#"
   xmlns:rdf="http://www.w3.org/1999/02/22-rdf-syntax-ns#"
   xmlns:svg="http://www.w3.org/2000/svg"
   xmlns="http://www.w3.org/2000/svg"
   xmlns:sodipodi="http://sodipodi.sourceforge.net/DTD/sodipodi-0.dtd"
   xmlns:inkscape="http://www.inkscape.org/namespaces/inkscape"
   height="512pt"
   viewBox="0 0 512 512"
   width="512pt"
   version="1.1"
   id="svg34"
   sodipodi:docname="folding.svg"
   inkscape:version="1.0.2-2 (e86c870879, 2021-01-15)">
  <metadata
     id="metadata40">
    <rdf:RDF>
      <cc:Work
         rdf:about="">
        <dc:format>image/svg+xml</dc:format>
        <dc:type
           rdf:resource="http://purl.org/dc/dcmitype/StillImage" />
        <dc:title />
      </cc:Work>
    </rdf:RDF>
  </metadata>
  <defs
     id="defs38" />
  <sodipodi:namedview
     pagecolor="#ffffff"
     bordercolor="#666666"
     borderopacity="1"
     objecttolerance="10"
     gridtolerance="10"
     guidetolerance="10"
     inkscape:pageopacity="0"
     inkscape:pageshadow="2"
     inkscape:window-width="1858"
     inkscape:window-height="1057"
     id="namedview36"
     showgrid="false"
     inkscape:zoom="0.65185545"
     inkscape:cx="270.18875"
     inkscape:cy="483.61686"
     inkscape:window-x="54"
     inkscape:window-y="-8"
     inkscape:window-maximized="1"
     inkscape:current-layer="svg34"
     inkscape:document-rotation="0" />
  <path
     d="m 282.69264,184.14781 v 114.93937 l -25.54209,25.545 -25.54208,-25.545 V 184.14781 Z m 0,0"
     fill="#707070"
     id="path2"
     style="stroke-width:0.748314" />
  <path
     d="m 263.53754,184.14781 v 108.55531 l -19.15802,19.15802 -12.77105,-12.77396 V 184.14781 Z m 0,0"
     fill="#9e9e9e"
     id="path4"
     style="stroke-width:0.748314" />
  <path
     d="m 333.26819,129.10284 -24.96916,59.96163 c -1.97894,4.72665 -3.44926,7.85438 -8.55592,7.85438 h -81.99307 c -5.13589,-0.0263 -9.76024,-3.11603 -11.74796,-7.85438 l -24.96915,-59.96163 c -0.81847,-1.96433 -0.60216,-4.20635 0.57878,-5.97775 1.18093,-1.7714 3.16864,-2.83541 5.29666,-2.83249 h 140.48438 c 2.12802,-0.003 4.11572,1.06109 5.29666,2.83249 1.18094,1.7714 1.39725,4.01342 0.57878,5.97775 z m 0,0"
     fill="#00838f"
     id="path6"
     style="stroke-width:0.748314" />
  <path
     d="m 314.11016,129.10284 -24.96623,59.96163 c -1.98186,4.72665 -3.44927,7.85438 -8.55885,7.85438 h -62.83504 c -5.13589,-0.0263 -9.76024,-3.11603 -11.74796,-7.85438 l -24.96915,-59.96163 c -0.81847,-1.96433 -0.60216,-4.20635 0.57878,-5.97775 1.18093,-1.7714 3.16864,-2.83541 5.29666,-2.83249 h 121.32635 c 2.12802,-0.003 4.11574,1.06109 5.29666,2.83249 1.18094,1.7714 1.39725,4.01342 0.57878,5.97775 z m 0,0"
     fill="#00bcd4"
     id="path8"
     style="stroke-width:0.748314" />
  <path
     d="M 430.51985,247.23716 268.45421,409.36712 c -6.25545,6.21744 -16.35185,6.21744 -22.6073,0 L 83.781266,247.23716 c -1.610629,-1.57263 -2.244943,-3.89357 -1.660322,-6.06544 0.295234,-1.10493 0.868162,-2.11633 1.660322,-2.93772 l 13.536897,-13.53689 c 1.19263,-1.19555 2.812027,-1.86786 4.501577,-1.86786 1.68955,0 3.30895,0.67231 4.50158,1.86786 L 257.15055,375.45912 407.9798,224.69711 c 2.06956,-2.06664 5.27913,-2.46126 7.79007,-0.95878 0.44431,0.26308 0.85354,0.58462 1.21309,0.95878 l 13.53689,13.53689 c 1.19556,1.19262 1.86787,2.81203 1.86787,4.50158 0,1.68956 -0.67231,3.30895 -1.86787,4.50158 z m 0,0"
     fill="#707070"
     id="path10"
     style="stroke-width:0.748314" />
  <path
     d="m 415.76987,223.73833 c -0.30108,1.03185 -0.85062,1.97309 -1.59601,2.74479 L 252.10528,388.61601 c -2.99618,2.99618 -7.06514,4.67404 -11.30072,4.65942 -4.22388,0.0263 -8.27531,-1.65448 -11.23933,-4.65942 L 82.120944,241.17172 c 0.295234,-1.10493 0.868162,-2.11633 1.660322,-2.93772 l 13.536897,-13.53689 c 1.19263,-1.19555 2.812027,-1.86786 4.501577,-1.86786 1.68955,0 3.30895,0.67231 4.50158,1.86786 L 257.15055,375.45912 407.9798,224.69711 c 2.06956,-2.06664 5.27913,-2.46126 7.79007,-0.95878 z m 0,0"
     fill="#9e9e9e"
     id="path12"
     style="stroke-width:0.748314" />
  <path
     d="m 442.33212,350.17426 v 134.0974 c -0.009,3.52234 -2.86172,6.37529 -6.38407,6.38406 H 78.353063 c -3.52234,-0.009 -6.37529,-2.86172 -6.384059,-6.38406 v -134.0974 c 0.0088,-3.52234 2.861719,-6.37528 6.384059,-6.38698 h 66.985847 c 2.04325,-0.006 3.96665,0.96755 5.17097,2.61911 l 79.18397,109.70409 c 1.20431,1.65155 3.12772,2.62494 5.17097,2.6191 h 44.57148 c 2.04325,0.006 3.96666,-0.96755 5.17097,-2.6191 l 79.18397,-109.70409 c 1.20431,-1.65156 3.12772,-2.62495 5.17097,-2.61911 h 66.98584 c 3.52235,0.0117 6.3753,2.86464 6.38407,6.38698 z m 0,0"
     fill="#00695c"
     id="path14"
     style="stroke-width:0.748314" />
  <path
     d="m 423.17702,350.17426 v 134.0974 c -0.0117,3.52234 -2.86464,6.37529 -6.38698,6.38406 H 78.353063 c -3.52234,-0.009 -6.37529,-2.86172 -6.384059,-6.38406 v -134.0974 c 0.0088,-3.52234 2.861719,-6.37528 6.384059,-6.38698 h 63.729507 c 2.04325,-0.006 3.96665,0.96755 5.17097,2.61911 l 79.18104,109.70409 c 1.20724,1.65155 3.13065,2.62494 5.17389,2.6191 h 47.82783 c 2.04325,0.006 3.96666,-0.96755 5.17097,-2.6191 l 79.18397,-109.70409 c 1.20431,-1.65156 3.12772,-2.62495 5.17097,-2.61911 h 47.82783 c 3.52234,0.0117 6.37528,2.86464 6.38698,6.38698 z m 0,0"
     fill="#009688"
     id="path16"
     style="stroke-width:0.748314" />
  <path
     d="m 257.15055,331.01625 c -1.69247,0.003 -3.31772,-0.67232 -4.51326,-1.8708 l -25.54501,-25.54208 c -1.19554,-1.19847 -1.87079,-2.82079 -1.87079,-4.51619 V 196.91885 c 0,-3.52818 2.8588,-6.38698 6.38698,-6.38698 h 51.08417 c 3.52819,0 6.38699,2.8588 6.38699,6.38698 v 102.16833 c 0,1.6954 -0.67525,3.31772 -1.8708,4.51619 l -25.545,25.54208 c -1.19555,1.19848 -2.82079,1.87372 -4.51328,1.8708 z m -19.15801,-34.57155 19.15801,19.15509 19.15803,-19.15509 v -93.14179 h -38.31604 z m 0,0"
     id="path18"
     style="stroke-width:0.748314" />
  <path
     d="m 299.72264,203.30291 h -81.94629 c -7.73746,0.0175 -14.72075,-4.64189 -17.67894,-11.7918 l -24.96915,-59.91779 c -1.64571,-3.94034 -1.21308,-8.44484 1.15755,-11.99934 2.36771,-3.55449 6.35776,-5.69128 10.62841,-5.68836 H 327.3869 c 4.27065,-0.003 8.2607,2.13387 10.6284,5.68836 2.37064,3.5545 2.80327,8.059 1.15755,11.99934 l -24.96915,59.92363 c -1.55509,6.78453 -7.52407,11.6398 -14.48106,11.78596 z M 186.91422,126.67666 h -0.0234 l 24.99253,59.92363 c 0.98801,2.38233 3.31481,3.9345 5.89298,3.93158 h 81.9463 c 0.27477,0.0175 0.55247,-0.009 0.81847,-0.0819 0.75708,-1.21601 1.38555,-2.50218 1.87663,-3.8468 l 24.96915,-59.92656 z m 0,0"
     id="path20"
     style="stroke-width:0.748314" />
  <path
     d="m 257.15055,420.41645 c -5.93097,0.0147 -11.61933,-2.34433 -15.80229,-6.54775 L 79.265071,251.78259 c -2.396944,-2.39403 -3.744496,-5.64159 -3.744496,-9.02947 0,-3.38788 1.347552,-6.63545 3.744496,-9.02947 l 13.542737,-13.54859 c 4.989745,-4.98097 13.072122,-4.98097 18.058932,0 L 257.15055,366.45595 403.43438,220.17506 c 4.98681,-4.98097 13.06919,-4.98097 18.05892,0 l 13.54275,13.54859 c 2.39694,2.39402 3.7445,5.64159 3.7445,9.02947 0,3.38788 -1.34756,6.63544 -3.7445,9.02947 L 272.95286,413.8687 c -4.18296,4.20342 -9.87132,6.56237 -15.80231,6.54775 z M 101.83727,229.20453 88.294539,242.75312 250.38065,404.83631 c 3.79126,3.6188 9.7544,3.6188 13.54567,0 L 426.00658,242.75312 412.46384,229.20453 261.66383,380.00454 c -2.4934,2.49049 -6.53314,2.49049 -9.02654,0 z m 0,0"
     id="path22"
     style="stroke-width:0.748314" />
  <path
     d="M 435.94805,497.0427 H 78.353063 c -7.050527,-0.009 -12.762272,-5.72052 -12.771041,-12.77104 v -134.0974 c 0.0088,-7.05053 5.720514,-12.76519 12.771041,-12.77103 h 66.974157 c 4.09819,0.006 7.94499,1.97017 10.35071,5.28789 l 79.19273,109.65147 h 44.55395 l 79.19274,-109.64562 c 2.40863,-3.31772 6.25544,-5.2879 10.35655,-5.29374 h 66.97415 c 7.05053,0.006 12.76228,5.7205 12.77105,12.77103 v 134.0974 c -0.009,7.05052 -5.72052,12.76227 -12.77105,12.77104 z M 78.353063,350.17426 v 134.0974 H 435.94805 V 350.17426 H 368.9739 l -79.19274,109.64563 c -2.4057,3.31773 -6.25544,5.2879 -10.35655,5.29375 h -44.5481 c -4.09819,-0.006 -7.945,-1.97018 -10.35363,-5.2879 L 145.33307,350.17426 Z m 0,0"
     id="path24"
     style="stroke-width:0.748314" />
  <path
     d="m 148.6011,228.84792 c -2.24495,0.003 -4.3262,-1.17509 -5.48083,-3.10142 l -19.15802,-31.92614 c -1.19262,-1.95848 -1.24524,-4.40512 -0.13739,-6.41329 1.10494,-2.00525 3.20372,-3.26511 5.49544,-3.29726 2.29464,-0.035 4.4285,1.16339 5.59189,3.13649 l 19.15803,31.92906 c 1.18386,1.97017 1.21602,4.42851 0.0819,6.42791 -1.13124,2.00232 -3.25049,3.24172 -5.55098,3.24465 z m 0,0"
     id="path26"
     style="stroke-width:0.748314" />
  <path
     d="m 148.59525,228.84792 c -3.52819,0 -6.38698,-2.8588 -6.38698,-6.38699 V 120.2926 c 0,-3.52818 2.85879,-6.38698 6.38698,-6.38698 3.52526,0 6.38405,2.8588 6.38405,6.38698 v 79.11674 l 7.299,-12.16012 c 1.16339,-1.9731 3.29725,-3.17157 5.58897,-3.13941 2.29464,0.0351 4.3905,1.29494 5.49836,3.30018 1.10786,2.00818 1.05524,4.45482 -0.13739,6.41037 l -19.15802,31.92906 c -1.15462,1.92341 -3.23295,3.0985 -5.47497,3.0985 z m 0,0"
     id="path28"
     style="stroke-width:0.748314" />
  <path
     d="m 365.71172,228.84792 c -2.24495,0.003 -4.3262,-1.17509 -5.48082,-3.10142 l -19.15802,-31.92614 c -1.7831,-3.02249 -0.79509,-6.91607 2.21278,-8.72255 3.0108,-1.80647 6.91022,-0.84477 8.73716,2.14849 l 19.15803,31.92906 c 1.18385,1.97017 1.216,4.42851 0.0848,6.42791 -1.13417,2.00232 -3.25342,3.24172 -5.5539,3.24465 z m 0,0"
     id="path30"
     style="stroke-width:0.748314" />
  <path
     d="m 365.70587,228.84792 c -3.52526,0 -6.38406,-2.8588 -6.38406,-6.38699 V 120.2926 c 0,-3.52818 2.8588,-6.38698 6.38406,-6.38698 3.52818,0 6.38698,2.8588 6.38698,6.38698 v 79.11674 l 7.29606,-12.16012 c 1.16341,-1.9731 3.29727,-3.17157 5.59191,-3.13941 2.29171,0.0351 4.3905,1.29494 5.49543,3.30018 1.10786,2.00818 1.05524,4.45482 -0.13738,6.41037 l -19.15802,31.92906 c -1.15463,1.92341 -3.23296,3.0985 -5.47498,3.0985 z m 0,0"
     id="path32"
     style="stroke-width:0.748314" />
</svg>
