<?xml version="1.0" encoding="UTF-8" standalone="no"?>
<svg
   height="512pt"
   viewBox="-18 0 512 512.00882"
   width="512pt"
   version="1.1"
   id="svg50"
   sodipodi:docname="galvanize.svg"
   inkscape:version="1.1.2 (b8e25be833, 2022-02-05)"
   xmlns:inkscape="http://www.inkscape.org/namespaces/inkscape"
   xmlns:sodipodi="http://sodipodi.sourceforge.net/DTD/sodipodi-0.dtd"
   xmlns="http://www.w3.org/2000/svg"
   xmlns:svg="http://www.w3.org/2000/svg"
   xmlns:rdf="http://www.w3.org/1999/02/22-rdf-syntax-ns#"
   xmlns:cc="http://creativecommons.org/ns#"
   xmlns:dc="http://purl.org/dc/elements/1.1/">
  <metadata
     id="metadata56">
    <rdf:RDF>
      <cc:Work
         rdf:about="">
        <dc:format>image/svg+xml</dc:format>
        <dc:type
           rdf:resource="http://purl.org/dc/dcmitype/StillImage" />
      </cc:Work>
    </rdf:RDF>
  </metadata>
  <defs
     id="defs54" />
  <sodipodi:namedview
     pagecolor="#ffffff"
     bordercolor="#666666"
     borderopacity="1"
     objecttolerance="10"
     gridtolerance="10"
     guidetolerance="10"
     inkscape:pageopacity="0"
     inkscape:pageshadow="2"
     inkscape:window-width="1280"
     inkscape:window-height="666"
     id="namedview52"
     showgrid="false"
     inkscape:zoom="0.46093142"
     inkscape:cx="279.8681"
     inkscape:cy="272.27478"
     inkscape:window-x="-8"
     inkscape:window-y="1076"
     inkscape:window-maximized="1"
     inkscape:current-layer="svg50"
     inkscape:pagecheckerboard="0"
     inkscape:document-units="pt" />
  <g
     id="g491"
     transform="translate(-1.7428105,124.70552)">
    <path
       style="fill:#999999;stroke-width:2.45799"
       d="m 132.46417,317.61397 c -73.3714,-29.74991 -85.051357,-38.35318 -70.824778,-52.1685 2.801587,-2.7206 148.358478,57.48937 151.183508,62.53744 13.42137,23.98266 0.13298,22.26801 -80.35873,-10.36894 z m 76.98628,17.20566 c 0.9121,-6.20172 -0.51182,-6.91152 -87.54147,-43.6379 -63.071379,-26.61602 -60.026609,-25.89165 -59.031325,-14.04391 0.878307,10.45527 -7.129144,6.46286 85.563435,42.66105 58.99432,23.03839 59.80099,23.237 61.00936,15.02076 z m 10.27226,-1.2887 c 0,-10.72331 0,-10.72331 120.70537,-130.27332 C 470.55035,74.380856 465.48056,78.799533 465.60842,94.154072 c 0.087,10.446448 0.087,10.446448 -120.82341,130.273318 -131.0162,129.8421 -125.0623,124.64795 -125.0623,109.10354 z m 62.25042,-56.68792 c 12.40259,-13.41808 20.75397,-23.37292 18.55864,-22.12188 -9.44381,5.38164 -75.89308,72.19912 -75.89308,76.31359 0,5.07469 20.20915,-14.02672 57.33444,-54.19171 z M 135.53665,287.04336 C 95.317838,270.66083 62.411534,256.08089 62.411534,254.64343 c 0,-3.3452 88.927716,-92.28021 92.272666,-92.28021 7.19019,0 109.70575,107.68336 107.1183,112.5181 -5.24763,9.80523 -9.92892,8.50952 -26.86509,-7.43593 -16.8763,-15.88907 -16.60459,-14.46329 1.33803,7.02124 12.87739,15.41947 13.0324,13.31285 -2.16136,29.37799 -16.59372,17.54543 -12.57557,18.23027 -98.57743,-16.80126 z m 92.63053,13.12804 c 13.45352,-13.65891 14.99608,-10.33153 -26.85294,-57.9236 -43.88966,-49.91277 -40.22927,-51.18879 11.08588,-3.86459 65.60447,60.50217 58.20433,45.37019 -14.33778,-29.31824 -44.16602,-45.47276 -44.16602,-45.47276 -88.68026,-1.31762 -34.827096,34.54615 -43.845429,44.77793 -41.440918,47.01694 3.619492,3.37037 139.901728,57.03376 145.728988,57.38321 1.40271,0.0841 7.92637,-5.30512 14.49703,-11.9761 z M 253.4991,172.78916 c -60.93814,-60.98538 -57.35199,-54.66151 -40.45856,-71.34509 16.86529,-16.655794 10.34681,-20.393016 71.50392,40.99511 60.10939,60.33647 57.43276,55.07335 37.39963,73.53925 -14.48701,13.35366 -7.60951,17.6934 -68.44499,-43.18927 z m 54.5259,23.90408 c 9.37537,-14.4687 10.68703,-12.45224 -46.85197,-72.02586 -32.84736,-34.008848 -32.84736,-34.008848 -45.87375,-20.69211 -13.51771,13.81903 1.302,33.5956 69.32804,92.51671 17.33065,15.01105 13.82082,14.98086 23.39768,0.20131 z m 2.0078,-80.43778 C 280.64063,86.840523 256.59252,61.400356 256.59252,59.721759 c 0,-7.212997 9.72178,-1.848325 26.76308,14.768416 18.80828,18.339679 17.71312,14.967721 -2.7977,-8.61393 -6.42149,-7.382907 -11.67544,-14.989305 -11.67544,-16.903109 0,-6.743731 38.22824,-42.1433776 43.65186,-40.4219803 12.17997,3.8657703 146.89467,60.7068863 149.09757,62.9097683 2.51386,2.51386 -90.78679,98.276256 -95.74988,98.276256 -1.32493,0 -26.45706,-24.06677 -55.84921,-53.48172 z m 58.87705,-19.228704 c 31.52411,-52.132713 30.80874,-45.491962 6.1534,-57.120134 -68.2776,-32.2016972 -63.96486,-31.7492678 -86.48959,-9.073203 -20.96987,21.110753 -24.29565,13.390222 29.39861,68.246239 33.43055,34.153862 28.93415,34.335072 50.93758,-2.052902 z"
       id="path497" />
    <path
       style="fill:#666666;stroke-width:2.45799"
       d="m 158.83963,323.98866 c -24.6984,-9.53026 -44.47538,-17.75852 -43.94885,-18.28504 0.52654,-0.52653 6.35509,1.13684 12.95234,3.69637 20.75864,8.05376 24.87995,8.49455 24.56202,2.62704 -0.17208,-3.17584 -3.53715,-6.84824 -8.88003,-9.69105 -16.20053,-8.61989 -5.53913,-4.7786 29.79321,10.73447 31.07798,13.64515 35.34345,16.21608 35.34345,21.30256 0,8.62036 -1.23928,8.36205 -49.82214,-10.38435 z m 65.79906,7.04606 c 0,-4.11447 66.44927,-70.93195 75.89308,-76.31359 4.81137,-2.74181 -34.20926,39.71886 -58.50093,63.65835 -12.21067,12.03364 -17.39215,15.8039 -17.39215,12.65524 z m -55.91745,-35.28293 c -41.3331,-15.82024 -52.33644,-21.11163 -29.79258,-14.32692 8.11699,2.44287 11.16176,2.58553 11.19031,0.52437 0.0216,-1.55741 6.84248,-14.11873 15.15759,-27.91409 17.97147,-29.81597 17.79119,-27.73804 3.99192,-46.013 -16.79571,-22.24329 -15.19336,-24.03 6.54749,-7.30079 8.09136,6.22616 15.38567,10.64616 16.20958,9.82224 1.55743,-1.55743 -1.18301,-4.99824 -23.85385,-29.95013 -7.47211,-8.22393 6.13387,5.0492 30.2355,29.49585 71.99503,73.02559 79.95965,89.13015 13.99292,28.29389 -51.31515,-47.3242 -54.97554,-46.04818 -11.08588,3.86459 41.84902,47.59207 40.30646,44.26469 26.85294,57.9236 -14.45543,14.67613 -8.37367,15.12827 -59.44594,-4.41961 z M 106.6553,210.29397 c 23.62916,-23.65813 43.51514,-43.01478 44.19109,-43.01478 0.67595,0 -18.10395,19.35665 -41.7331,43.01478 -23.629151,23.65812 -43.51514,43.01477 -44.191087,43.01477 -0.675946,0 18.103949,-19.35665 41.733097,-43.01477 z M 275.87597,188.4329 c -24.30433,-21.83017 -68.98732,-67.01159 -52.77491,-53.36362 9.52331,8.01694 9.52331,8.01694 15.7943,-2.62296 3.44905,-5.85194 7.41528,-11.40194 8.81385,-12.33332 2.52865,-1.68397 0.5558,-4.68515 -13.05071,-19.8532 -6.09877,-6.798713 -6.09877,-6.798713 -19.73473,6.14496 -13.63596,12.94368 -13.63596,12.94368 -0.11703,-1.40127 13.51893,-14.344958 13.51893,-14.344958 46.36629,19.66389 57.539,59.57362 56.22734,57.55716 46.85197,72.02586 -9.68231,14.94232 -4.96811,16.15357 -32.14903,-8.26034 z m 42.0963,-89.353242 C 264.27801,44.223641 267.60379,51.944172 288.57366,30.833419 c 22.52473,-22.6760648 18.21199,-23.1284942 86.48959,9.073203 24.65534,11.628172 25.37071,4.987421 -6.1534,57.120134 -22.00343,36.387974 -17.50703,36.206764 -50.93758,2.052902 z M 298.77453,34.78017 c 15.06012,-22.942698 14.65356,-23.059405 -7.77019,-2.230564 -18.4349,17.123708 -18.4349,17.123708 -12.36266,22.069124 4.62888,3.769911 6.32324,4.163235 7.12823,1.654736 0.5808,-1.809875 6.43287,-11.481858 13.00462,-21.493296 z"
       id="path495" />
    <path
       style="fill:#4d4d4d;stroke-width:2.45799"
       d="M 122.63222,307.55446 C 63.096339,286.54688 63.73196,286.87261 62.877655,276.93273 c -0.962462,-11.19827 -4.249113,-11.93051 46.235635,10.30076 36.78351,16.19784 43.05518,19.74155 43.29367,24.46236 0.34858,6.89996 2.27671,7.16815 -29.77474,-4.14139 z m 3.68698,-30.62134 C 86.043815,262.65204 67.327509,255.25299 67.327509,253.61211 c 0,-0.87178 19.336302,-20.89766 42.969561,-44.50198 47.83094,-47.77236 43.19895,-47.03568 73.07688,-11.6222 13.30357,15.76835 10.36558,17.0253 -7.55798,3.23343 -21.74085,-16.72921 -23.3432,-14.9425 -6.54749,7.30079 13.79927,18.27496 13.97955,16.19703 -3.99192,46.013 -8.31511,13.79536 -15.13602,26.46508 -15.15759,28.15494 -0.0216,1.68987 -0.13141,3.06133 -0.24406,3.04771 -0.11266,-0.0136 -10.71273,-3.75074 -23.55571,-8.30468 z m 92.55002,-145.51913 c -16.72687,-13.77047 -16.58999,-12.0533 -2.09844,-26.32695 11.79598,-11.618613 11.79598,-11.618613 17.89124,-4.82357 13.60341,15.16516 15.57567,18.16568 13.04719,19.84953 -1.39857,0.93138 -5.33346,6.42883 -8.74422,12.21654 -6.20133,10.52311 -6.20133,10.52311 -20.09577,-0.91555 z m 59.77246,-76.79526 c -6.07224,-4.945416 -6.07224,-4.945416 12.36266,-22.069124 22.42375,-20.828841 22.83031,-20.712134 7.77019,2.230564 -6.57175,10.011438 -12.42382,19.683421 -13.00462,21.493296 -0.80499,2.508499 -2.49935,2.115175 -7.12823,-1.654736 z"
       id="path493" />
  </g>
  <text
     xml:space="preserve"
     style="font-style:normal;font-weight:normal;font-size:130.667px;line-height:1.25;font-family:sans-serif;fill:#666666;fill-opacity:1;stroke:none;stroke-width:3.26668"
     x="29.946432"
     y="132.35217"
     id="text1473"><tspan
       sodipodi:role="line"
       id="tspan1471"
       style="fill:#666666;fill-opacity:1;stroke-width:3.26668"
       x="29.946432"
       y="132.35217">GAL</tspan></text>
</svg>
