<?xml version="1.0" encoding="UTF-8" standalone="no"?>
<svg
   xmlns:dc="http://purl.org/dc/elements/1.1/"
   xmlns:cc="http://creativecommons.org/ns#"
   xmlns:rdf="http://www.w3.org/1999/02/22-rdf-syntax-ns#"
   xmlns:svg="http://www.w3.org/2000/svg"
   xmlns="http://www.w3.org/2000/svg"
   xmlns:sodipodi="http://sodipodi.sourceforge.net/DTD/sodipodi-0.dtd"
   xmlns:inkscape="http://www.inkscape.org/namespaces/inkscape"
   version="1.1"
   id="Layer_1"
   x="0px"
   y="0px"
   viewBox="0 0 511.988 511.988"
   style="enable-background:new 0 0 511.988 511.988;"
   xml:space="preserve"
   sodipodi:docname="hardware.svg"
   inkscape:version="1.0.2-2 (e86c870879, 2021-01-15)"><metadata
   id="metadata69"><rdf:RDF><cc:Work
       rdf:about=""><dc:format>image/svg+xml</dc:format><dc:type
         rdf:resource="http://purl.org/dc/dcmitype/StillImage" /><dc:title></dc:title></cc:Work></rdf:RDF></metadata><defs
   id="defs67" /><sodipodi:namedview
   pagecolor="#ffffff"
   bordercolor="#666666"
   borderopacity="1"
   objecttolerance="10"
   gridtolerance="10"
   guidetolerance="10"
   inkscape:pageopacity="0"
   inkscape:pageshadow="2"
   inkscape:window-width="776"
   inkscape:window-height="480"
   id="namedview65"
   showgrid="false"
   inkscape:zoom="1.738322"
   inkscape:cx="255.994"
   inkscape:cy="255.994"
   inkscape:window-x="62"
   inkscape:window-y="0"
   inkscape:window-maximized="0"
   inkscape:current-layer="Layer_1" />
<g
   id="g6">
	<polygon
   style="fill:#CCD1D9;"
   points="380.302,87.267 263.349,304.664 317.349,334.664 437.348,118.001  "
   id="polygon2" />
	<polygon
   style="fill:#CCD1D9;"
   points="124.679,299.336 83.35,349.461 289.349,495.334 320.678,446.006  "
   id="polygon4" />
</g>
<g
   id="g12">
	<polygon
   style="fill:#E6E9ED;"
   points="83.35,233.328 10.023,330.664 63.35,364.632 139.35,268.656  "
   id="polygon8" />
	<polygon
   style="fill:#E6E9ED;"
   points="388.02,15.33 362.02,70.001 469.332,126.001 498.676,77.329  "
   id="polygon10" />
</g>
<g
   id="g18">
	<path
   style="fill:#FFCE54;"
   d="M227.349,65.329l-78.015,5.344l-28.656,59.906L161.349,194l73.312-4.672L263.349,124L227.349,65.329   z M192.006,160.25c-16.406,0-29.672-13.281-29.672-29.671c0-16.375,13.266-29.656,29.672-29.656   c16.375,0,29.656,13.281,29.656,29.656C221.662,146.97,208.381,160.25,192.006,160.25z"
   id="path14" />
	<path
   style="fill:#FFCE54;"
   d="M461.988,322.258l-78.015,5.344l-28.656,59.905l40.672,63.421l73.312-4.672l28.688-65.327   L461.988,322.258z M426.644,417.178c-16.405,0-29.671-13.28-29.671-29.671c0-16.375,13.266-29.656,29.671-29.656   c16.375,0,29.656,13.281,29.656,29.656C456.301,403.897,443.019,417.178,426.644,417.178z"
   id="path16" />
</g>
<g
   id="g32">
	<path
   style="fill:#080808;"
   d="M510.535,381.21l-37.328-63.999c-1.906-3.266-5.422-5.281-9.219-5.281h-74.655   c-3.797,0-7.312,2.016-9.219,5.281l-37.327,63.999c-1.938,3.328-1.938,7.438,0,10.75l37.327,63.999   c1.906,3.281,5.422,5.297,9.219,5.297h74.655c3.797,0,7.312-2.016,9.219-5.297l37.328-63.999   C512.473,388.647,512.473,384.538,510.535,381.21z M457.863,439.928h-62.405l-31.109-53.343l31.109-53.327h62.405l31.109,53.327   L457.863,439.928z"
   id="path20" />
	<path
   style="fill:#080808;"
   d="M426.66,343.273c-23.53,0-42.671,19.124-42.671,42.655s19.141,42.655,42.671,42.655   c23.531,0,42.672-19.124,42.672-42.655S450.191,343.273,426.66,343.273z M426.66,407.272c-11.765,0-21.327-9.578-21.327-21.344   s9.562-21.344,21.327-21.344c11.766,0,21.328,9.578,21.328,21.344S438.426,407.272,426.66,407.272z"
   id="path22" />
	<path
   style="fill:#080808;"
   d="M145.444,199.953c1.922,3.281,5.422,5.297,9.219,5.297h74.671c3.781,0,7.297-2.016,9.203-5.297   l37.344-64c1.938-3.312,1.938-7.422,0-10.75l-37.344-64c-1.906-3.266-5.422-5.281-9.203-5.281h-74.671   c-3.797,0-7.297,2.016-9.219,5.281l-37.328,64c-1.938,3.328-1.938,7.438,0,10.75L145.444,199.953z M160.787,77.251h62.422   l31.109,53.328l-31.109,53.343h-62.422l-31.108-53.343L160.787,77.251z"
   id="path24" />
	<path
   style="fill:#080808;"
   d="M191.99,172.594c23.531,0,42.672-19.14,42.672-42.671s-19.141-42.656-42.672-42.656   c-23.516,0-42.655,19.125-42.655,42.656S168.474,172.594,191.99,172.594z M191.99,108.595c11.766,0,21.344,9.562,21.344,21.328   s-9.578,21.344-21.344,21.344c-11.75,0-21.328-9.578-21.328-21.344S180.24,108.595,191.99,108.595z"
   id="path26" />
	<path
   style="fill:#080808;"
   d="M340.084,316.273l15.827-27.781c0,0,0,0,0.016,0v-0.016l31.688-55.586l0,0c0-0.016,0-0.016,0-0.016   l31.702-55.593l0,0l0,0l26.422-46.328l18.531,10.562c1.672,0.953,3.484,1.406,5.266,1.406c3.719,0,7.312-1.938,9.281-5.391   l31.703-55.593c1.406-2.453,1.766-5.375,1.016-8.109c-0.75-2.719-2.547-5.031-5-6.438L395.333,3.986   c-5.109-2.906-11.625-1.125-14.547,3.984l-31.702,55.609c-1.391,2.438-1.766,5.359-1.016,8.094c0.75,2.719,2.547,5.047,4.999,6.438   l18.531,10.578l-10.562,18.531l0,0l0,0l-47.546,83.39l0,0l0,0l-47.547,83.414l0,0l0,0l-15.859,27.797   c-2.906,5.109-1.125,11.641,3.984,14.547l55.609,31.703c1.656,0.953,3.484,1.391,5.266,1.391c3.703,0,7.312-1.938,9.281-5.375   l15.828-27.781c0.016,0,0.016,0,0.016,0C340.084,316.273,340.084,316.273,340.084,316.273z M394.036,27.799l37.062,21.14   l-5.281,9.266c-2.922,5.125-1.125,11.625,3.984,14.547c1.672,0.953,3.484,1.406,5.281,1.406c3.703,0,7.297-1.938,9.266-5.391   l5.281-9.266l37.078,21.141l-21.141,37.062l-92.655-52.843L394.036,27.799z M310.974,324.242l-37.062-21.125l5.281-9.266   c1.672,0.953,3.484,1.391,5.266,1.391c3.719,0,7.312-1.922,9.281-5.375c2.922-5.125,1.141-11.625-3.984-14.547l5.281-9.273l0,0   c1.672,0.938,3.484,1.406,5.281,1.406c3.703,0,7.297-1.938,9.266-5.391c2.922-5.109,1.141-11.641-3.969-14.547l5.281-9.266   c1.656,0.953,3.469,1.391,5.266,1.391c3.703,0,7.312-1.938,9.281-5.375c2.922-5.125,1.125-11.625-3.984-14.562l0,0l5.281-9.25l0,0   c1.672,0.938,3.484,1.406,5.281,1.406c3.703,0,7.297-1.938,9.266-5.391c2.922-5.125,1.141-11.641-3.984-14.547l0,0l5.281-9.281   c1.672,0.969,3.484,1.406,5.281,1.406c3.703,0,7.312-1.938,9.28-5.375c2.906-5.125,1.125-11.641-3.984-14.562l0,0l5.281-9.25l0,0   c1.656,0.938,3.484,1.391,5.266,1.391c3.703,0,7.312-1.938,9.281-5.391c2.922-5.109,1.125-11.625-3.984-14.547l0,0l5.281-9.266l0,0   c1.672,0.953,3.484,1.406,5.281,1.406c3.703,0,7.297-1.938,9.266-5.391c2.922-5.109,1.141-11.625-3.984-14.547l5.297-9.266   l37.062,21.141l-5.281,9.25l0,0c-5.125-2.906-11.64-1.125-14.562,4c-2.906,5.109-1.125,11.625,3.984,14.531l0,0l-5.281,9.281l0,0   c-5.109-2.922-11.625-1.141-14.547,3.968c-2.922,5.125-1.141,11.641,3.984,14.562l-5.281,9.266l0,0   c-5.125-2.922-11.641-1.141-14.547,3.984c-2.922,5.125-1.141,11.625,3.984,14.547l-5.297,9.266l0,0   c-5.109-2.906-11.625-1.125-14.547,3.984s-1.125,11.64,3.984,14.546l0,0l-5.281,9.266c-5.109-2.922-11.624-1.141-14.546,3.984   s-1.141,11.625,3.984,14.547l0,0l-5.281,9.266c-5.125-2.906-11.641-1.125-14.562,3.992c-2.906,5.109-1.125,11.641,3.984,14.547l0,0   l-5.281,9.281c-5.109-2.922-11.625-1.141-14.547,3.969c-2.922,5.125-1.125,11.641,3.984,14.562l0,0L310.974,324.242z"
   id="path28" />
	<path
   style="fill:#080808;"
   d="M330.99,438.865l-76.969-57.374l0,0l0,0l-25.656-19.109l-0.016-0.016l0,0l-94.077-70.093   l12.75-17.109c3.516-4.742,2.547-11.414-2.188-14.93l-51.312-38.25c-2.266-1.688-5.125-2.406-7.922-2s-5.312,1.906-7.016,4.187   L2.117,326.805c-1.688,2.281-2.422,5.125-2,7.938c0.406,2.781,1.906,5.312,4.172,7l51.327,38.249   c1.844,1.375,4.078,2.094,6.375,2.094c0.5,0,1.016-0.031,1.531-0.094c2.797-0.406,5.328-1.922,7.016-4.188l12.75-17.109   l68.422,50.984l0,0l0,0l25.655,19.124l0,0l0,0l51.312,38.234c0.016,0,0.016,0.016,0.016,0.016l0,0l51.312,38.219   c1.859,1.391,4.094,2.125,6.375,2.125c0.516,0,1.031-0.031,1.547-0.109c2.797-0.422,5.312-1.922,7-4.188l38.25-51.328   C336.693,449.053,335.724,442.365,330.99,438.865z M59.804,356.491l-34.218-25.483l25.499-34.203l8.547,6.375   c1.922,1.406,4.156,2.094,6.375,2.094c3.25,0,6.469-1.469,8.562-4.281c3.516-4.719,2.547-11.406-2.188-14.938l-8.547-6.375   l25.484-34.211l34.219,25.484L85.568,321.93l-13.014,17.468l0,0L59.804,356.491z M284.209,483.803l-8.562-6.375l0,0   c3.516-4.719,2.547-11.406-2.188-14.922c-4.719-3.516-11.406-2.547-14.922,2.172l-8.547-6.375   c3.516-4.719,2.547-11.406-2.188-14.922c-4.719-3.516-11.406-2.547-14.922,2.172l0,0l-8.547-6.375   c3.516-4.719,2.531-11.406-2.188-14.906c-4.719-3.531-11.406-2.562-14.922,2.172l0,0l-8.562-6.375   c3.531-4.733,2.547-11.405-2.172-14.921c-4.719-3.531-11.406-2.547-14.922,2.172l0,0l-8.562-6.359l0,0   c3.516-4.734,2.547-11.406-2.172-14.938c-4.734-3.516-11.405-2.547-14.937,2.188l0,0l-8.547-6.375   c3.516-4.719,2.547-11.406-2.188-14.938c-4.719-3.516-11.391-2.531-14.922,2.188l-8.547-6.375   c3.516-4.719,2.547-11.405-2.188-14.937c-4.719-3.5-11.406-2.531-14.922,2.188l-8.547-6.375l25.484-34.219l8.562,6.375l0,0   c-3.531,4.734-2.547,11.406,2.172,14.938c1.922,1.422,4.156,2.109,6.359,2.109c3.266,0,6.469-1.484,8.562-4.297l8.562,6.375l0,0   c-3.531,4.719-2.547,11.406,2.172,14.938c1.922,1.422,4.155,2.109,6.374,2.109c3.25,0,6.469-1.484,8.562-4.297l8.547,6.374   c-3.516,4.719-2.547,11.406,2.172,14.922c1.922,1.422,4.156,2.109,6.375,2.109c3.25,0,6.469-1.469,8.562-4.281l0,0l8.547,6.375l0,0   c-3.516,4.719-2.547,11.406,2.188,14.922c1.906,1.422,4.141,2.109,6.359,2.109c3.25,0,6.469-1.469,8.562-4.281l0,0l8.547,6.375   c-3.516,4.719-2.531,11.406,2.188,14.906c1.906,1.438,4.141,2.125,6.359,2.125c3.266,0,6.469-1.484,8.562-4.297l0,0l8.562,6.375   c-3.531,4.733-2.547,11.405,2.172,14.921c1.922,1.438,4.156,2.125,6.375,2.125c3.25,0,6.453-1.5,8.547-4.297l0,0l8.562,6.359   c-3.516,4.734-2.547,11.406,2.172,14.938c1.922,1.422,4.156,2.125,6.375,2.125c3.25,0,6.469-1.5,8.562-4.312l0,0l8.547,6.375   L284.209,483.803z"
   id="path30" />
</g>
<g
   id="g34">
</g>
<g
   id="g36">
</g>
<g
   id="g38">
</g>
<g
   id="g40">
</g>
<g
   id="g42">
</g>
<g
   id="g44">
</g>
<g
   id="g46">
</g>
<g
   id="g48">
</g>
<g
   id="g50">
</g>
<g
   id="g52">
</g>
<g
   id="g54">
</g>
<g
   id="g56">
</g>
<g
   id="g58">
</g>
<g
   id="g60">
</g>
<g
   id="g62">
</g>
</svg>
