<?xml version="1.0" encoding="UTF-8" standalone="no"?>
<!-- Created with Inkscape (http://www.inkscape.org/) -->

<svg
   width="500"
   height="500"
   viewBox="0 0 132.29167 132.29167"
   version="1.1"
   id="svg104018"
   inkscape:version="1.1.1 (3bf5ae0d25, 2021-09-20)"
   sodipodi:docname="homepage_logo.svg"
   xmlns:inkscape="http://www.inkscape.org/namespaces/inkscape"
   xmlns:sodipodi="http://sodipodi.sourceforge.net/DTD/sodipodi-0.dtd"
   xmlns="http://www.w3.org/2000/svg"
   xmlns:svg="http://www.w3.org/2000/svg">
  <sodipodi:namedview
     id="namedview104020"
     pagecolor="#ffffff"
     bordercolor="#666666"
     borderopacity="1.0"
     inkscape:pageshadow="2"
     inkscape:pageopacity="0.0"
     inkscape:pagecheckerboard="0"
     inkscape:document-units="px"
     showgrid="false"
     units="px"
     fit-margin-top="0"
     fit-margin-left="0"
     fit-margin-right="0"
     fit-margin-bottom="0"
     inkscape:zoom="1.0289025"
     inkscape:cx="287.68517"
     inkscape:cy="207.50265"
     inkscape:window-width="1858"
     inkscape:window-height="1057"
     inkscape:window-x="54"
     inkscape:window-y="-8"
     inkscape:window-maximized="1"
     inkscape:current-layer="layer1" />
  <defs
     id="defs104015" />
  <g
     inkscape:label="Layer 1"
     inkscape:groupmode="layer"
     id="layer1"
     transform="translate(-36.38226,-62.267575)">
    <g
       id="g103117"
       transform="matrix(1.2931484,0,0,1.2931484,38.979946,-190.4663)"
       style="display:inline">
      <path
         style="display:inline;fill:#000080;fill-opacity:1;stroke:#000000;stroke-width:0.157524;stroke-opacity:1"
         d="m 47.024792,199.90596 c -2.1795,0.0209 -3.95882,0.10942 -4.0986,0.27787 -0.10507,0.12658 -0.53953,2.09371 -0.96553,4.37134 -0.42599,2.27762 -0.93141,4.98188 -1.12326,6.00957 -0.446,2.38905 -0.0371,2.04842 -4.75476,3.95997 -5.17904,2.09848 -4.20589,2.23225 -9.30768,-1.27942 -5.27509,-3.63095 -5.82584,-3.99759 -6.00326,-3.99759 -0.55233,0 -8.90502,8.79745 -8.70252,9.16589 0.21977,0.39984 3.20886,4.78977 5.37862,7.89946 1.34458,1.92698 1.48329,2.25005 1.24377,2.89795 -0.54029,1.46156 -3.46324,8.12111 -3.67088,8.36361 -0.174,0.20322 -0.7987,0.39598 -2.04565,0.63154 -4.8964602,0.92499 -6.8162502,1.28043 -8.3126102,1.53858 -2.2733,0.39221 -2.06752,-0.27938 -2.06752,6.74942 0,7.34592 -1.15315,6.15547 7.4823702,7.72419 5.14099,0.93391 4.45335,0.33788 6.62633,5.74372 2.27218,5.6526 2.65524,3.93802 -2.57519,11.52859 -1.23176,1.78758 -2.23963,3.31326 -2.23963,3.39047 0,0.0772 1.97008,2.10585 4.37785,4.50801 2.40778,2.40215 4.43554,4.3676 4.50604,4.3676 0.12525,0 3.21236,-2.08879 7.3843,-4.99638 1.53411,-1.06918 2.0847,-1.48698 2.86173,-1.33713 l 3.08512,0.004 c 11.41651,2.16496 14.74853,-9.51397 12.40791,-18.89163 -3.96468,-14.4332 -5.75943,-18.50879 -11.636,-16.60166 -3.28386,1.06572 -1.04096,5.00605 -4.4488,4.56176 -2.78922,-0.36363 -6.17807,-3.55538 -5.15645,-6.62023 3.22561,-9.67687 15.92123,-1.83553 21.91208,-2.17075 5.38969,-0.4146 15.50234,-5.38647 21.02311,-4.59779 6.89663,0.98523 5.01968,8.62986 -1.324,9.67274 -4.02859,0.66228 -4.70351,-0.16521 -10.25091,-1.63061 -7.25518,-1.91653 -8.00636,7.45974 -1.70898,22.543 3.50125,11.02826 -2.95642,13.75601 8.71831,13.76957 l 4.09059,0.005 c 0.986,0.16649 2.3729,1.22869 6.14406,3.84418 1.38621,0.96141 2.79323,1.91539 3.12679,2.1199 0.55251,0.33876 9.39628,-7.73064 9.39628,-8.57354 0,-0.0878 -1.45539,-2.28248 -3.2343,-4.87724 -3.95415,-5.76759 -3.75591,-4.49716 -1.55846,-9.99061 2.20869,-5.52159 1.24187,-4.79074 7.94337,-6.00543 2.98902,-0.54179 5.59407,-1.0838 5.78901,-1.2044 0.37204,-0.2302 0.57429,-11.90803 0.21603,-12.47324 -0.11452,-0.18066 -3.52743,-0.87707 -10.91773,-2.22782 -1.37855,-0.25196 -1.26464,-0.0843 -3.35699,-4.94735 -2.12133,-4.93045 -2.04288,-4.39938 -0.89955,-6.08243 1.18873,-1.74989 3.1379,-4.58415 4.44165,-6.45856 1.93569,-2.78297 2.29556,-1.8784 -2.75755,-6.93394 -2.42321,-2.42437 -4.46769,-4.40778 -4.54306,-4.40778 -0.0754,0 -2.37665,1.53565 -5.11396,3.41272 -6.26639,4.29705 -4.95493,4.03833 -9.95201,1.96393 -5.11535,-2.12348 -4.46137,-1.18784 -5.74175,-8.21217 -0.5764,-3.16231 -1.11358,-5.90916 -1.19396,-6.10409 -0.11717,-0.28419 -4.86129,-0.43704 -8.49377,-0.40213 z"
         id="path103097" />
      <text
         xml:space="preserve"
         style="font-style:normal;font-variant:normal;font-weight:900;font-stretch:normal;font-size:8.84529px;line-height:1.25;font-family:Arial;-inkscape-font-specification:'Arial, Heavy';font-variant-ligatures:normal;font-variant-caps:normal;font-variant-numeric:normal;font-variant-east-asian:normal;display:inline;fill:#000080;fill-opacity:1;stroke:none;stroke-width:0.221133"
         x="28.73811"
         y="288.11209"
         id="text103101"><tspan
           sodipodi:role="line"
           id="tspan103099"
           style="font-style:normal;font-variant:normal;font-weight:900;font-stretch:normal;font-size:8.84529px;font-family:Arial;-inkscape-font-specification:'Arial, Heavy';font-variant-ligatures:normal;font-variant-caps:normal;font-variant-numeric:normal;font-variant-east-asian:normal;fill:#000080;stroke-width:0.221133"
           x="28.73811"
           y="288.11209">TinyMRP</tspan></text>
      <path
         style="display:inline;fill:#000080;fill-opacity:1;stroke-width:0.0223713"
         d="m 8.0035118,267.43838 c -0.006,-0.0155 -1.13998,-0.64517 -2.23925,-1.242 -0.10776,-0.0587 -0.20596,-0.12507 -0.21812,-0.14773 -0.0138,-0.0261 -0.0221,-0.64463 -0.0221,-1.6846 0,-1.53194 0.002,-1.64652 0.039,-1.69097 0.0216,-0.0264 0.21532,-0.13164 0.43066,-0.23428 1.6582,-0.79023 2.11694,-1.00373 2.16247,-1.00634 l 0.0521,-0.004 10e-6,-1.62627 3e-5,-1.62627 0.0504,-0.0554 c 0.0292,-0.0321 0.42161,-0.23102 0.93401,-0.47348 1.3970902,-0.66108 1.5990702,-0.75871 1.6070102,-0.77669 0.009,-0.0218 0.0872,-0.022 0.0969,-8e-5 0.004,0.009 0.4202,0.22521 0.92466,0.47995 1.53191,0.77359 1.47272,0.74104 1.50318,0.82658 0.0199,0.0559 0.0255,0.48184 0.0223,1.66987 l -0.004,1.59496 0.0505,-0.0124 c 0.0367,-0.009 0.25835,0.0917 0.80539,0.36651 1.57207,0.78961 1.66927,0.84214 1.70046,0.9186 0.0223,0.0545 0.0271,0.42078 0.0223,1.68998 -0.006,1.58685 -0.006,1.62131 -0.0507,1.6641 -0.0247,0.024 -0.56824,0.33271 -1.20804,0.68597 -0.63982,0.35326 -1.17448,0.65603 -1.18815,0.67283 -0.027,0.0331 -0.21005,0.043 -0.21005,0.0124 0,-0.01 -0.42031,-0.24893 -0.934,-0.5297 -1.4112,-0.77132 -1.4448,-0.7904 -1.49889,-0.85119 l -0.0504,-0.0565 v -1.55355 -1.55356 h -0.0559 -0.0559 v 1.55627 c 0,0.95441 -0.009,1.57183 -0.0216,1.59651 -0.0124,0.0221 -0.14014,0.10591 -0.28524,0.18614 -0.24799,0.13719 -1.7674002,0.96874 -2.0478002,1.12067 -0.0707,0.0382 -0.12871,0.0774 -0.12871,0.0868 0,0.0242 -0.17365,0.0216 -0.18269,-0.004 z m -0.10814,-1.86809 v -1.37372 l -0.0951,-0.0553 c -0.24175,-0.14029 -0.80242,-0.44123 -0.82231,-0.44123 -0.0138,0 -0.022,0.10566 -0.022,0.26851 0,0.14772 -0.006,0.26842 -0.0155,0.26842 -0.009,0 -0.10851,-0.0427 -0.22254,-0.0951 l -0.20731,-0.0951 -0.006,-0.30975 -0.006,-0.30977 -0.2999,-0.16557 c -0.16487,-0.0909 -0.30335,-0.16555 -0.30759,-0.16555 -0.004,0 -0.006,0.61661 -0.006,1.37025 l 1.6e-4,1.37024 0.095,0.0519 c 0.61309,0.33542 1.42419,0.78149 1.63851,0.90114 0.14774,0.0825 0.27098,0.15084 0.27405,0.15205 0.004,9.7e-4 0.005,-0.61595 0.005,-1.37145 z m 5.2796102,-0.009 v -1.3611 l -0.45608,-0.24964 c -0.25086,-0.13735 -0.46226,-0.24961 -0.4698,-0.24961 -0.006,0 -0.0137,0.12077 -0.0137,0.26845 0,0.15051 -0.009,0.26846 -0.0207,0.26846 -0.0124,0 -0.11681,-0.0445 -0.23426,-0.0991 l -0.21346,-0.0991 -0.006,-0.30873 -0.006,-0.30872 -0.15657,-0.0855 c -0.0861,-0.0471 -0.21959,-0.12003 -0.2966,-0.16227 l -0.13995,-0.0768 0.005,1.37703 0.005,1.37705 0.97315,0.53448 c 0.53526,0.29398 0.98575,0.53489 1.00112,0.53537 0.022,6.8e-4 0.0281,-0.28577 0.0281,-1.3602 z M 9.0586818,263.3428 c 0.52291,-0.28598 0.9653202,-0.52776 0.9830802,-0.53725 0.0219,-0.0124 -0.1121002,-0.0894 -0.4175902,-0.24244 l -0.44989,-0.22515 -0.46607,0.24329 c -0.25635,0.13374 -0.6942,0.36246 -0.97299,0.50811 -0.27883,0.14566 -0.51037,0.27449 -0.51455,0.28631 -0.006,0.0212 0.85357,0.50649 0.8758,0.49367 0.006,-0.004 0.43929,-0.24056 0.96221,-0.52654 z m 4.5771102,0.37748 c 0.1588,-0.0878 0.60071,-0.33034 0.98215,-0.53904 0.38142,-0.20866 0.69655,-0.38236 0.70029,-0.38594 0.004,-0.004 -0.1908,-0.10863 -0.43229,-0.23326 l -0.43907,-0.22676 -0.39545,0.20621 c -0.21751,0.11347 -0.66045,0.34373 -0.98433,0.51185 -0.32391,0.16816 -0.59068,0.31317 -0.59283,0.32231 -0.002,0.009 0.19234,0.1256 0.43227,0.25872 0.23993,0.13321 0.43723,0.24285 0.43842,0.2438 9.6e-4,9.5e-4 0.13201,-0.07 0.29084,-0.15794 z m -5.9654302,-1.11849 c 0.52364,-0.2723 0.96093,-0.5031 0.97171,-0.51291 0.01,-0.009 -0.0927,-0.0739 -0.22982,-0.14289 l -0.24948,-0.12508 -1.00772,0.47819 c -0.55425,0.263 -1.00635,0.48721 -1.00467,0.49821 0.004,0.0246 0.49104,0.29588 0.53563,0.29807 0.0177,8.7e-4 0.46068,-0.22121 0.98435,-0.49351 z m 5.3010402,-0.0193 0.96371,-0.50332 -0.25614,-0.12835 -0.25614,-0.12837 -0.95849,0.45534 c -0.52718,0.25047 -0.98601,0.46979 -1.01964,0.48742 l -0.0611,0.0321 0.26372,0.14808 c 0.14516,0.0814 0.28548,0.14635 0.31207,0.14428 0.0266,-0.002 0.48202,-0.23021 1.01206,-0.50701 z m -2.37454,-1.50115 -0.005,-1.36687 -0.45861,-0.25232 -0.4586102,-0.2523 -0.006,0.2769 c -0.004,0.15708 -0.0155,0.27692 -0.0277,0.27692 -0.0124,0 -0.11718,-0.0476 -0.23424,-0.10566 l -0.2128,-0.10566 v -0.30326 -0.30326 l -0.2845,-0.15587 c -0.15657,-0.0857 -0.2924,-0.15932 -0.30203,-0.16331 -0.01,-0.004 -0.0175,0.61014 -0.0175,1.36498 v 1.37245 l 0.54249,0.2962 c 0.29838,0.16296 0.73881,0.40583 0.9787602,0.53986 0.23992,0.13406 0.44888,0.2447 0.46437,0.24597 0.0223,0.002 0.027,-0.27754 0.0223,-1.36456 z m 1.07621,-2.24471 c 0.47947,-0.26378 0.91929,-0.50374 0.97739,-0.53327 l 0.10567,-0.0536 -0.10938,-0.0611 c -0.0602,-0.0338 -0.26035,-0.13719 -0.44492,-0.23016 l -0.33556,-0.16901 -0.48098,0.25131 c -1.4640402,0.76496 -1.5044402,0.7869 -1.4840502,0.80579 0.0358,0.0332 0.8466702,0.46905 0.8732802,0.4694 0.0138,1.7e-4 0.41909,-0.21544 0.89855,-0.47922 z m -1.16467,-0.72845 c 0.53122,-0.27683 0.96596,-0.5084 0.96609,-0.51453 1.8e-4,-0.006 -0.1095,-0.0656 -0.2438,-0.13235 l -0.24404,-0.12114 -0.10826,0.0471 c -0.0595,0.0258 -0.50091,0.23482 -0.9807702,0.46433 -0.47985,0.22952 -0.8901,0.42256 -0.91161,0.42899 -0.0216,0.006 -0.039,0.018 -0.0389,0.0258 3.3e-4,0.0212 0.54406,0.31614 0.5717,0.31015 0.0137,-0.004 0.45845,-0.23167 0.9896702,-0.50851 z"
         id="path103103" />
      <path
         style="display:inline;fill:#000080;fill-opacity:1;stroke-width:0.0594148"
         d="m 14.440642,235.48177 c 1.19795,-0.92117 0.92001,-2.85744 -0.48856,-3.40361 -1.53432,-0.59493 -3.05233,0.78069 -2.62477,2.37857 0.34933,1.30556 2.02927,1.85865 3.11333,1.02504 z m -1.29502,-0.82823 c -0.45914,-0.0454 -0.77134,-0.52255 -0.62853,-0.96061 0.26376,-0.80918 1.4184,-0.65434 1.44589,0.19388 0.0151,0.46451 -0.35582,0.8124 -0.81736,0.76673 z m -2.09245,-0.18184 c -0.0366,-0.17985 -0.0687,-0.24195 -0.12228,-0.23543 -0.24998,0.0301 -3.7262202,0.97011 -3.8298902,1.03582 -0.13467,0.0853 -0.0951,0.37689 0.0584,0.43058 0.052,0.0183 3.7938602,-0.91473 3.9276902,-0.97919 0.008,-0.004 -0.007,-0.11723 -0.0342,-0.25166 z m -0.0481,-0.85563 c 0.0626,-0.57366 0.4262,-1.1966 0.87017,-1.49072 0.12043,-0.0798 0.23473,-0.17144 0.25411,-0.20353 0.0531,-0.0882 -0.91883,-3.73969 -1.0032,-3.7692 -0.14026,-0.049 -2.0917902,0.48521 -2.1012502,0.57523 -0.005,0.0457 0.0465,0.27586 0.11414,0.5113 0.14006,0.48827 0.15371,0.47052 -0.47701,0.62324 -0.47655,0.11543 -0.44567,0.13763 -0.58952,-0.42349 -0.0679,-0.26441 -0.13303,-0.48429 -0.14516,-0.48851 -0.11107,-0.0388 -2.0765,0.53684 -2.10645,0.61706 -0.0541,0.1447 1.29196,5.27294 1.39329,5.30838 0.0452,0.0158 0.48809,-0.0789 0.98392,-0.21056 0.49586,-0.13162 0.95673,-0.25159 1.02422,-0.26649 0.11132,-0.0246 0.11031,-0.0739 -0.0104,-0.53049 -0.0732,-0.27687 -0.12941,-0.51326 -0.125,-0.52531 0.021,-0.0566 1.0066602,-0.27617 1.0287802,-0.22901 0.0138,0.0297 0.0841,0.25783 0.15616,0.50718 0.15212,0.52644 0.11405,0.49283 0.44135,0.38967 0.25681,-0.0808 0.25775,-0.0823 0.29185,-0.39478 z m 1.89559,-2.08923 c -0.0163,-0.0746 -0.34372,-1.34952 -0.72753,-2.83313 -0.3838,-1.48363 -0.70402,-2.77962 -0.71161,-2.88 -0.0265,-0.35121 0.32524,-0.71515 0.55243,-0.57155 0.13267,0.0839 0.29808,0.0269 0.40286,-0.1391 0.0546,-0.0866 0.20132,-0.14437 0.67821,-0.26707 0.66176,-0.1704 0.79021,-0.25884 0.68717,-0.47277 -0.0881,-0.1829 -0.18479,-0.1857 -0.82014,-0.0238 -0.45695,0.11654 -0.61372,0.13032 -0.7719,0.0681 -0.22461,-0.0883 -0.33826,-0.0559 -0.37902,0.10787 -0.0154,0.0618 -0.0912,0.14294 -0.16849,0.18038 -0.44716,0.21649 -0.7671,0.8155 -0.68754,1.28705 0.0643,0.38156 1.47911,5.77582 1.5177,5.78686 0.16472,0.0471 0.45522,-0.11782 0.42785,-0.24294 z"
         id="path103105" />
      <path
         style="display:inline;fill:#000080;fill-opacity:1;stroke-width:0.0212635"
         d="m 33.338722,213.29407 -0.10898,0.0327 -0.11271,-0.001 -0.11271,-0.001 -0.12275,-0.0421 -0.12275,-0.0421 -0.10258,-0.0799 -0.10258,-0.0799 -0.34803,-0.65811 -0.34802,-0.65811 -0.14171,-0.33739 -0.14172,-0.3374 -0.0602,-0.21736 c -0.10079,-0.36405 -0.12554,-0.6835 -0.0798,-1.02956 l 0.0208,-0.1574 0.0826,-0.24398 c 0.0454,-0.13418 0.12045,-0.31841 0.16669,-0.40939 l 0.0841,-0.16542 0.14373,-0.18869 c 0.17133,-0.22492 0.29477,-0.34984 0.51355,-0.51971 l 0.16278,-0.12639 0.31821,-0.17195 0.31821,-0.17195 0.28889,-0.11821 0.28889,-0.11821 0.17919,-0.0387 0.17919,-0.0388 0.24113,-0.004 0.24112,-0.004 0.198,0.0279 0.19799,0.0279 0.25689,0.0871 0.2569,0.0871 0.17378,0.0965 c 0.31881,0.17702 0.5806,0.39827 0.81262,0.68678 l 0.11319,0.14076 0.50105,1.00945 0.50105,1.00945 0.003,0.1321 0.003,0.13209 -0.031,0.1105 -0.0311,0.11049 -0.0725,0.0854 c -0.0399,0.047 -0.11804,0.12066 -0.17371,0.16375 l -0.10123,0.0784 -1.91168,0.95508 -1.91168,0.95508 z m -2.70126,0.58194 c -0.11447,0.0312 -0.22015,0.0324 -0.34201,0.004 l -0.0979,-0.0228 -0.10775,-0.0825 -0.10776,-0.0825 -0.60976,-1.22849 -0.60977,-1.22849 -0.0227,-0.1933 -0.0227,-0.1933 0.0228,-0.17976 0.0228,-0.17975 0.0616,-0.15605 c 0.0783,-0.19839 0.17808,-0.35483 0.32313,-0.50651 l 0.11462,-0.11987 0.41268,-0.21344 0.41268,-0.21343 0.13747,-0.0408 0.13747,-0.0408 0.16139,-0.0101 c 0.0888,-0.006 0.21734,-3.2e-4 0.28571,0.0116 l 0.12431,0.0217 -0.0523,0.18952 c -0.10574,0.38281 -0.13117,0.79937 -0.074,1.21179 l 0.0316,0.22756 0.0723,0.24114 0.0723,0.24113 0.14827,0.34725 0.14828,0.34725 0.31366,0.60015 0.31366,0.60016 -0.0185,0.0304 -0.0185,0.0304 -0.57228,0.28182 -0.57228,0.28182 z m 7.58208,-3.75807 -0.0315,-0.003 -0.40271,-0.81937 -0.40272,-0.81936 -0.12746,-0.19786 c -0.0701,-0.10882 -0.19794,-0.28572 -0.2841,-0.39311 l -0.15664,-0.19524 -0.17123,-0.15606 -0.17124,-0.15605 -0.17249,-0.1103 c -0.20391,-0.13038 -0.35924,-0.20987 -0.56847,-0.29091 l -0.15319,-0.0593 0.052,-0.10117 c 0.0286,-0.0556 0.0919,-0.15191 0.14073,-0.21392 l 0.0887,-0.11275 0.12639,-0.0996 0.1264,-0.0996 0.4318,-0.20613 0.43181,-0.20614 0.16481,-0.0187 c 0.21342,-0.0243 0.40056,-0.009 0.60145,0.0491 l 0.16154,0.0467 0.15563,0.0898 0.15562,0.0898 0.14024,0.13497 0.14023,0.13497 0.60032,1.20944 0.60031,1.20944 0.0103,0.11128 0.0103,0.11127 -0.0303,0.10764 c -0.0166,0.0592 -0.0552,0.1453 -0.0856,0.19134 l -0.0554,0.0837 -0.10283,0.0766 -0.10283,0.0766 -0.54423,0.26976 -0.54423,0.26977 -0.0315,-0.003 z m -8.93232,-1.26901 c -0.16176,0.0557 -0.34732,0.0727 -0.53288,0.0489 l -0.1521,-0.0196 -0.12143,-0.0508 -0.12142,-0.0508 -0.15147,-0.11472 -0.15147,-0.11473 -0.0996,-0.1445 -0.0996,-0.1445 -0.0507,-0.16004 -0.0507,-0.16005 -0.002,-0.18983 -0.002,-0.18983 0.0491,-0.15 c 0.0631,-0.19255 0.12727,-0.30558 0.259,-0.45607 l 0.10604,-0.12115 0.23854,-0.11724 0.23854,-0.11724 0.13524,-0.0145 c 0.17484,-0.0187 0.36916,0.006 0.54933,0.071 l 0.14383,0.0516 0.15187,0.11709 0.15186,0.1171 0.0986,0.14243 0.0986,0.14243 0.0514,0.16037 0.0514,0.16038 8.1e-4,0.19859 8.2e-4,0.19859 -0.059,0.17452 -0.059,0.17452 -0.0844,0.11693 c -0.0987,0.13678 -0.22526,0.25388 -0.36601,0.33868 l -0.10051,0.0606 z m 3.30068,-1.63855 -0.15448,0.0569 -0.20643,0.029 -0.20643,0.029 -0.19688,-0.014 -0.19688,-0.014 -0.25676,-0.0869 -0.25677,-0.0869 -0.15719,-0.10657 c -0.19807,-0.13427 -0.3339,-0.26359 -0.48067,-0.45764 l -0.1154,-0.15256 -0.0836,-0.1959 -0.0836,-0.19589 -0.036,-0.17079 -0.0359,-0.17078 -0.001,-0.19061 -10e-4,-0.19061 0.0362,-0.18413 0.0362,-0.18414 0.0822,-0.18964 0.0822,-0.18964 0.14381,-0.18853 0.1438,-0.18854 0.10712,-0.0951 0.10711,-0.0951 0.2854,-0.14239 0.28541,-0.14239 0.15074,-0.0311 0.15074,-0.0311 0.23668,-10e-4 0.23668,-0.001 0.20078,0.0491 0.20078,0.0492 0.16776,0.0829 0.16775,0.0829 0.15116,0.11488 0.15117,0.11488 0.11709,0.13179 0.1171,0.13179 0.13235,0.26665 0.13235,0.26665 0.0323,0.16424 c 0.0634,0.3228 0.0485,0.62433 -0.0465,0.94107 l -0.0527,0.17581 -0.11053,0.19282 -0.11054,0.19282 -0.13156,0.13742 c -0.15154,0.15829 -0.26821,0.25056 -0.4503,0.35612 l -0.12904,0.0748 -0.15447,0.0569 z m 3.40361,-1.68917 c -0.16176,0.0557 -0.34732,0.0727 -0.53288,0.0488 l -0.1521,-0.0196 -0.12142,-0.0508 -0.12142,-0.0508 -0.15148,-0.11473 -0.15147,-0.11472 -0.0996,-0.1445 -0.0996,-0.1445 -0.0507,-0.16005 -0.0506,-0.16004 -0.002,-0.18983 -0.002,-0.18983 0.0491,-0.15 c 0.0631,-0.19255 0.12727,-0.30559 0.259,-0.45608 l 0.10604,-0.12114 0.23855,-0.11724 0.23854,-0.11724 0.13523,-0.0145 c 0.17484,-0.0188 0.36916,0.006 0.54933,0.071 l 0.14384,0.0516 0.15186,0.11709 0.15187,0.11709 0.0986,0.14243 0.0986,0.14243 0.0514,0.16038 0.0514,0.16038 8.1e-4,0.19859 8.2e-4,0.19859 -0.059,0.17452 -0.059,0.17452 -0.0844,0.11693 c -0.0987,0.13677 -0.22527,0.25388 -0.36602,0.33867 l -0.10051,0.0606 -0.12163,0.0419 z"
         id="path103107" />
      <path
         id="path103109"
         style="display:inline;fill:#000080;fill-opacity:1;stroke-width:0.0339842"
         d="m 82.479382,227.65433 c -0.68906,0.70296 -0.26007,1.74228 0.98933,4.76578 1.90385,4.60721 1.90422,4.60708 6.30138,2.79004 4.39716,-1.81704 4.39715,-1.81701 2.97192,-5.26599 -1.42523,-3.44899 -1.42544,-3.449 -3.34088,-4.0135 -1.91541,-0.56451 -1.91513,-0.56441 -4.8755,0.6589 -1.01761,0.42052 -1.68533,0.69652 -2.04625,1.06477 z m 4.77407,-1.18002 c 0.062,-0.0225 2.96059,0.7277 2.98141,0.77173 0.0202,0.0411 -2.16327,0.83648 -2.24085,0.8163 -0.0788,-0.0204 -0.79977,-1.56652 -0.74056,-1.58803 z m -2.53419,4.38767 c 0.40269,-0.1664 0.80541,-0.3325 1.2081,-0.49891 0.24712,-0.10313 0.50235,-0.21939 0.77449,-0.22725 0.2472,-0.0138 0.49259,0.10443 0.64225,0.30072 0.13387,0.16787 0.2216,0.37323 0.25794,0.58446 0.049,0.28073 -0.0517,0.58093 -0.26121,0.77448 -0.27927,0.24996 -0.64485,0.35966 -0.98214,0.50611 0.14647,0.35679 0.29202,0.71383 0.4385,1.07063 -0.29914,0.12613 -0.59847,0.2523 -0.89759,0.37843 -0.39336,-0.96292 -0.78723,-1.92564 -1.18034,-2.88867 z m 1.13299,0.2155 c 0.0379,0.0916 0.0758,0.18332 0.11364,0.27493 0.0699,0.10946 0.0664,0.26929 0.16619,0.35165 0.11509,-0.0144 0.22544,-0.0873 0.33174,-0.13909 0.15327,-0.081 0.28267,-0.26094 0.21125,-0.43851 -0.10617,-0.24552 -0.4253,-0.26395 -0.62723,-0.12962 -0.0651,0.0269 -0.13047,0.0538 -0.19555,0.0807 z m 2.48608,-1.62146 c 0.13547,-0.13605 0.29733,-0.24716 0.46854,-0.33206 0.17674,-0.0861 0.36162,-0.15634 0.55344,-0.20016 0.30843,-0.0726 0.64557,-0.0619 0.93383,0.0784 0.33223,0.15043 0.57407,0.44908 0.72516,0.77418 0.18219,0.38616 0.30095,0.83416 0.18024,1.25642 -0.0944,0.34034 -0.33517,0.62734 -0.63572,0.80746 -0.32251,0.184 -0.68155,0.32226 -1.0553,0.34219 -0.41877,0.0239 -0.82858,-0.18398 -1.09381,-0.50217 -0.21963,-0.27688 -0.3688,-0.60854 -0.43753,-0.95472 -0.0619,-0.28328 -0.0406,-0.58584 0.076,-0.85253 0.0667,-0.15764 0.16551,-0.29691 0.28504,-0.41696 z m 0.7056,0.39672 c -0.10027,0.099 -0.16629,0.232 -0.17175,0.37549 -0.01,0.27104 0.102,0.52832 0.22204,0.76534 0.10426,0.19562 0.27295,0.38151 0.5048,0.40877 0.21301,0.0239 0.43554,-0.0656 0.58284,-0.21909 0.15691,-0.158 0.16302,-0.40113 0.10807,-0.60437 -0.0714,-0.25854 -0.166,-0.52209 -0.3484,-0.72454 -0.15225,-0.17145 -0.40551,-0.23325 -0.62167,-0.16064 l -0.0298,0.0114 c -0.0926,0.0283 -0.17749,0.08 -0.24616,0.1476 z"
         sodipodi:nodetypes="cssssscscssccccccccccccccccccsccccccccccsssccccccccss" />
      <path
         style="display:inline;fill:#000080;fill-opacity:1;stroke-width:0.0121871"
         d="m 65.655662,213.53088 -0.0404,-0.0456 -0.22943,-0.62227 c -0.12614,-0.34225 -0.37347,-1.01196 -0.54953,-1.48824 l -0.32014,-0.86596 -0.004,-0.063 -0.004,-0.063 0.0156,-0.0396 c 0.009,-0.0219 0.0294,-0.0579 0.046,-0.0801 l 0.0304,-0.0403 0.28033,-0.12285 0.28032,-0.12284 0.0537,-0.003 0.0536,-0.003 0.0503,0.0198 0.0503,0.0198 0.0384,0.0419 0.0383,0.0419 0.0381,0.0967 c 0.0396,0.10016 0.34487,0.84439 0.51581,1.25698 0.0537,0.12951 0.12276,0.29767 0.15356,0.37367 l 0.0561,0.13818 0.0334,0.0384 0.0334,0.0383 0.0599,0.0238 0.06,0.0238 0.0516,-0.009 0.0516,-0.009 0.2968,-0.14434 c 0.16326,-0.0793 0.47715,-0.23201 0.69755,-0.33917 0.22039,-0.10717 0.60137,-0.29242 0.84661,-0.4117 1.39117,-0.67658 1.60738,-0.78074 1.65804,-0.79875 l 0.0557,-0.0199 0.0475,0.005 c 0.0614,0.007 0.0955,0.0212 0.13897,0.0594 l 0.0352,0.0309 0.12085,0.20738 0.12086,0.20738 0.0426,0.10732 c 0.0235,0.0591 0.0497,0.13839 0.0584,0.17634 l 0.0162,0.0689 -0.0164,0.0563 -0.0163,0.0563 -0.0441,0.0379 c -0.0242,0.0208 -0.064,0.0486 -0.0884,0.0618 -0.0648,0.0345 -4.54561,2.14959 -4.58085,2.16219 -0.0416,0.0149 -0.12108,0.0142 -0.15893,-4e-4 l -0.0319,-0.0127 z m -4.93118,-2.09354 c -0.0341,-0.0231 -0.09,-0.0685 -0.12405,-0.10088 l -0.062,-0.059 -0.0555,-0.0907 -0.0555,-0.0907 -0.0192,-0.0891 c -0.0212,-0.0972 -0.0222,-0.20545 -0.004,-0.29875 l 0.0116,-0.0599 1.43441,-3.60978 1.43438,-3.60979 0.0327,-0.0516 c 0.0505,-0.0797 0.1252,-0.15655 0.20619,-0.2124 l 0.0738,-0.051 0.0833,-0.025 c 0.0459,-0.0137 0.12037,-0.0276 0.1656,-0.0313 l 0.0823,-0.006 0.10422,0.015 0.1042,0.015 0.7394,0.2937 0.73937,0.29372 0.01,-0.0127 c 0.005,-0.007 0.0317,-0.0504 0.0588,-0.0966 0.0957,-0.16322 0.25917,-0.33369 0.44014,-0.45896 l 0.10176,-0.0704 0.14538,-0.0666 0.14535,-0.0667 0.12205,-0.0333 c 0.23435,-0.0637 0.47306,-0.0793 0.72812,-0.0473 l 0.14086,0.0177 0.13732,0.0347 0.13733,0.0347 0.1438,0.0573 c 0.24152,0.0962 0.44054,0.21338 0.62562,0.3685 l 0.0966,0.081 0.10159,0.11489 0.10159,0.11486 0.0668,0.10347 0.0668,0.10345 0.066,0.15198 0.066,0.15197 0.0303,0.14282 0.0303,0.14283 0.006,0.11746 c 0.008,0.13575 -0.005,0.28439 -0.0343,0.41687 l -0.0207,0.0929 0.7702,0.30984 0.77018,0.30985 0.0784,0.0669 0.0784,0.0668 0.0552,0.0714 0.0552,0.0714 0.0351,0.0905 0.035,0.0905 0.007,0.0778 c 0.003,0.0428 0.004,0.11171 5.8e-4,0.15313 l -0.006,0.0753 -0.66134,1.67472 -0.66135,1.67473 -0.0937,0.0448 c -0.0515,0.0245 -0.69792,0.33286 -1.43641,0.68494 -0.73851,0.35206 -1.36834,0.65247 -1.39964,0.66757 l -0.0568,0.0275 -0.22202,-0.58415 c -0.31604,-0.83149 -0.37412,-0.93446 -0.65167,-1.15523 l -0.0732,-0.0582 -0.15711,-0.0554 -0.15711,-0.0554 -0.0591,-0.003 c -0.0325,-0.003 -0.085,-0.002 -0.11665,0.002 l -0.0577,0.005 -0.39551,0.16255 c -0.64862,0.26656 -0.80379,0.35875 -0.96528,0.57351 l -0.0379,0.0504 -0.0409,0.10177 -0.0409,0.10178 -0.003,0.0763 c -0.002,0.0419 3.2e-4,0.10483 0.005,0.13974 l 0.009,0.0635 0.54234,1.24765 0.54235,1.24765 -2.01581,-0.80145 -2.01582,-0.80145 -0.0621,-0.0419 z m 3.05859,-3.6802 0.0903,-0.007 0.0522,-0.0301 c 0.0288,-0.0166 0.0683,-0.0486 0.088,-0.0711 l 0.0358,-0.041 0.0372,-0.0938 0.0373,-0.0939 -0.009,-0.0853 -0.009,-0.0853 -0.0398,-0.0593 c -0.0219,-0.0326 -0.0585,-0.0743 -0.0813,-0.0925 l -0.0415,-0.0331 -0.2551,-0.10137 -0.25509,-0.10136 -0.0924,0.008 -0.0924,0.008 -0.0557,0.0363 c -0.0307,0.0199 -0.0682,0.0501 -0.0834,0.067 l -0.0276,0.0308 -0.0375,0.0917 -0.0375,0.0916 -0.002,0.0555 c -0.002,0.0308 0.004,0.0775 0.0118,0.10423 l 0.0132,0.0487 0.0391,0.0502 c 0.0215,0.0275 0.0579,0.0656 0.0808,0.0844 l 0.0417,0.0343 0.25045,0.0967 0.25044,0.0966 0.0903,-0.007 z m 4.49988,1.81155 0.0821,0.007 0.0692,-0.0248 0.0692,-0.0248 0.0453,-0.0424 0.0453,-0.0424 0.0358,-0.0701 0.0357,-0.0701 0.009,-0.0811 0.009,-0.0811 -0.0239,-0.0666 -0.0238,-0.0666 -0.0583,-0.0614 -0.0584,-0.0614 -1.66486,-0.66156 -1.66488,-0.66155 -0.0739,0.004 c -0.0407,0.003 -0.0957,0.0123 -0.12228,0.0214 l -0.0485,0.0162 -0.0568,0.0516 -0.0568,0.0516 -0.0379,0.0971 -0.0379,0.0971 0.002,0.0524 c 0.003,0.11491 0.0483,0.20307 0.14203,0.27829 l 0.0485,0.0389 1.62658,0.64721 1.62656,0.64722 0.0821,0.006 z m -3.94391,-3.21054 0.0774,-0.006 0.0579,-0.0305 0.0579,-0.0305 0.041,-0.0489 0.041,-0.0489 0.034,-0.0998 0.034,-0.0998 -0.006,-0.0563 -0.006,-0.0563 -0.034,-0.0669 -0.034,-0.0669 -0.0504,-0.0437 -0.0504,-0.0437 -0.24351,-0.0968 -0.24349,-0.0968 -0.0673,-0.003 -0.0673,-0.003 -0.0752,0.0279 -0.0752,0.0279 -0.0489,0.049 -0.0489,0.049 -0.0392,0.11149 -0.0392,0.11148 0.0125,0.0674 0.0125,0.0674 0.0272,0.0481 0.0272,0.0481 0.053,0.0473 0.053,0.0473 0.26161,0.1007 0.2616,0.1007 z m 4.5451,1.81198 0.0696,-0.003 0.0709,-0.0334 0.0709,-0.0334 0.0333,-0.0385 0.0333,-0.0385 0.0384,-0.0962 0.0383,-0.0962 -0.006,-0.0776 -0.006,-0.0776 -0.0281,-0.0511 -0.0281,-0.0511 -0.0522,-0.05 -0.0523,-0.0499 -1.65355,-0.65706 -1.65354,-0.65706 -0.059,-8e-5 c -0.0324,3.8e-4 -0.0833,0.005 -0.11298,0.013 l -0.0541,0.0123 -0.0524,0.0365 -0.0524,0.0365 -0.0432,0.0682 -0.0431,0.0682 -0.0135,0.057 c -0.0353,0.14916 0.009,0.28033 0.12455,0.3749 l 0.0413,0.0337 1.66007,0.65716 1.66005,0.65716 z m 1.09978,-1.17459 c 0.004,-0.011 0.0168,-0.0707 0.0277,-0.13287 l 0.02,-0.11298 -0.007,-0.10218 -0.007,-0.10217 -0.0423,-0.10646 -0.0423,-0.10647 -0.0612,-0.0715 -0.0612,-0.0715 -0.0649,-0.0479 -0.0648,-0.0479 -0.76387,-0.30877 -0.76385,-0.30881 0.0434,-0.12939 0.0434,-0.12939 0.0213,-0.12269 c 0.0291,-0.16822 0.037,-0.32794 0.0241,-0.48931 l -0.0108,-0.13605 -0.0388,-0.12561 -0.0388,-0.1256 -0.0552,-0.0921 c -0.063,-0.10494 -0.14182,-0.19486 -0.23784,-0.27115 l -0.0662,-0.0526 -0.16232,-0.0712 -0.16232,-0.0712 -0.0956,-0.0168 c -0.112,-0.0198 -0.22042,-0.0209 -0.33119,-0.003 l -0.0795,0.0123 -0.12058,0.0504 -0.12057,0.0504 -0.0866,0.0618 c -0.2359,0.16837 -0.52256,0.53886 -0.63405,0.81944 -5.9e-4,0.002 -0.34749,-0.13165 -0.77042,-0.29707 l -0.76895,-0.30078 -0.10381,-0.008 -0.10381,-0.008 -0.0802,0.0126 -0.0802,0.0126 -0.0887,0.0434 -0.0887,0.0434 -0.0704,0.0639 -0.0704,0.0639 -0.0582,0.0805 c -0.0321,0.0443 -0.066,0.10016 -0.0755,0.12409 l -0.0173,0.0435 3.15419,1.25335 3.15419,1.25336 0.008,-0.0199 z m -3.20376,-2.15169 c 0.1259,-0.24571 0.25079,-0.39948 0.37661,-0.46372 l 0.0519,-0.0265 0.0518,-0.005 0.0518,-0.005 0.0573,0.0229 0.0574,0.0228 0.0314,0.0307 c 0.0172,0.0169 0.0426,0.0567 0.0562,0.0884 l 0.0249,0.0577 0.006,0.0668 c 0.003,0.0366 0.002,0.11401 -0.004,0.17171 l -0.0101,0.10492 -0.028,0.1069 c -0.0154,0.0587 -0.0346,0.12346 -0.0426,0.14371 l -0.0146,0.0369 -0.352,-0.13987 -0.35199,-0.13988 z"
         id="path103111" />
      <path
         id="path103113"
         style="display:inline;fill:#000080;fill-opacity:1;stroke-width:0.0550591"
         d="m 86.884802,268.34519 c -2.63391,-0.79462 -2.70694,-0.84149 -2.76084,-1.77181 -0.0469,-0.80969 0.002,-0.89096 1.62922,-2.716 1.46865,-1.64701 1.36061,-1.59407 1.47971,-0.72519 0.0218,0.15885 0.0627,0.25488 0.10867,0.25488 0.0515,0 0.0644,0.0468 0.0427,0.15516 -0.0232,0.11615 0.004,0.19775 0.11149,0.32454 0.0848,0.10078 0.14253,0.23705 0.14253,0.33644 0,0.29711 0.10091,0.34011 0.79836,0.34011 0.69264,0 0.79836,-0.0437 0.79836,-0.33006 0,-0.10193 0.0594,-0.21647 0.16953,-0.32653 0.14072,-0.14073 0.16336,-0.19757 0.13327,-0.33459 -0.0272,-0.12375 -0.0164,-0.16507 0.043,-0.16507 0.0535,0 0.0894,-0.0849 0.11028,-0.26152 0.0311,-0.2625 0.32731,-1.24236 0.41793,-1.38253 0.0489,-0.0756 2.64974,0.50607 2.64974,0.5926 0,0.0789 -3.8104,4.46512 -3.87892,4.46512 -0.0408,0 -0.83709,-0.21059 -1.76947,-0.468 -0.93239,-0.2574 -1.76059,-0.468 -1.84044,-0.468 -0.45545,0 -0.58283,0.92556 -0.17618,1.2801 0.15599,0.13599 3.85473,1.22034 3.93505,1.15362 0.0377,-0.0313 0.87377,-1.0102 1.85795,-2.17532 1.78942,-2.1184 1.78942,-2.1184 1.80568,-1.76756 0.0195,0.42061 -3.17343,4.59577 -3.54095,4.63025 -0.06,0.006 -1.08008,-0.28265 -2.26669,-0.64064 z m 0.94051,-4.04455 c -0.0952,-0.24797 -0.0244,-0.28038 0.61208,-0.28038 0.60489,0 0.60489,0 0.60489,0.16517 0,0.19299 -1.1455,0.30144 -1.21697,0.11521 z m -0.18484,-0.55303 c -0.19717,-0.23757 -0.0775,-0.27795 0.82369,-0.27795 0.90121,0 1.02086,0.0404 0.82369,0.27795 -0.0966,0.11643 -1.55075,0.11643 -1.64738,0 z m -0.22243,-0.64949 c 0,-0.27302 -0.24044,-0.98322 -0.55903,-1.65128 -0.804,-1.68586 -0.0547,-3.15679 1.60515,-3.15115 1.60898,0.005 2.41291,1.50185 1.64256,3.05732 -0.34102,0.68857 -0.45973,1.00786 -0.56182,1.511 -0.0738,0.36384 -2.12686,0.58982 -2.12686,0.23411 z m -2.22686,-2.90499 c 0.93871,-0.0966 0.7249,-0.15698 0.0439,-0.24063 -0.43717,-0.0532 -0.8506,-0.11005 -0.91874,-0.12643 -0.11485,-0.0276 -0.12388,-0.0113 -0.12388,0.22396 0,0.2997 -0.0653,0.29034 0.99864,0.1431 z m 7.53099,-0.14151 c 0,-0.24564 -0.004,-0.25137 -0.15142,-0.2221 -0.0833,0.0165 -0.50451,0.0722 -0.93609,0.12358 -1.67089,0.0779 0.39976,0.3221 1.01132,0.35066 0.0538,0 0.0762,-0.0741 0.0762,-0.25214 z m -6.45611,-2.40135 c 1.27033,1.5582 0.0222,0.4035 -0.76681,-0.18784 -0.0274,-0.0202 0.27678,-0.34666 0.32288,-0.3465 0.0171,5e-5 0.21682,0.24051 0.44393,0.53434 z m 5.17954,-0.46826 c 0.15205,0.15871 0.15205,0.15871 -0.57296,0.71984 -0.88389,0.6841 -0.88024,0.68675 -0.21877,-0.15851 0.61682,-0.78818 0.59155,-0.77028 0.79173,-0.56133 z m -3.12321,-0.22584 c 0.0957,1.6828 0.34778,-0.0824 0.36279,-0.81218 -4.1e-4,-0.0442 -0.085,-0.0688 -0.23608,-0.0688 -0.23531,0 -0.23531,0 -0.12671,0.88101 z" />
      <circle
         style="fill:none;stroke:#000080;stroke-width:2.302;stroke-miterlimit:4;stroke-dasharray:none"
         id="circle103115"
         cx="49.142193"
         cy="246.59174"
         r="50" />
    </g>
  </g>
</svg>
