<?xml version="1.0" encoding="UTF-8" standalone="no"?>
<svg
   xmlns:dc="http://purl.org/dc/elements/1.1/"
   xmlns:cc="http://creativecommons.org/ns#"
   xmlns:rdf="http://www.w3.org/1999/02/22-rdf-syntax-ns#"
   xmlns:svg="http://www.w3.org/2000/svg"
   xmlns="http://www.w3.org/2000/svg"
   xmlns:sodipodi="http://sodipodi.sourceforge.net/DTD/sodipodi-0.dtd"
   xmlns:inkscape="http://www.inkscape.org/namespaces/inkscape"
   height="512"
   viewBox="0 0 45 58"
   width="512"
   version="1.1"
   id="svg35"
   sodipodi:docname="lasercut.svg"
   inkscape:version="1.0.2-2 (e86c870879, 2021-01-15)">
  <metadata
     id="metadata41">
    <rdf:RDF>
      <cc:Work
         rdf:about="">
        <dc:format>image/svg+xml</dc:format>
        <dc:type
           rdf:resource="http://purl.org/dc/dcmitype/StillImage" />
        <dc:title></dc:title>
      </cc:Work>
    </rdf:RDF>
  </metadata>
  <defs
     id="defs39" />
  <sodipodi:namedview
     pagecolor="#ffffff"
     bordercolor="#666666"
     borderopacity="1"
     objecttolerance="10"
     gridtolerance="10"
     guidetolerance="10"
     inkscape:pageopacity="0"
     inkscape:pageshadow="2"
     inkscape:window-width="1858"
     inkscape:window-height="1057"
     id="namedview37"
     showgrid="false"
     inkscape:zoom="1.2291505"
     inkscape:cx="297.28815"
     inkscape:cy="296.79825"
     inkscape:window-x="54"
     inkscape:window-y="-8"
     inkscape:window-maximized="1"
     inkscape:current-layer="svg35" />
  <g
     id="018---Laser-Cutting"
     fill="none"
     transform="translate(-1)">
    <path
       id="Shape"
       d="m44.68 49.46-20.57 8.33c-.7127757.283873-1.5072243.283873-2.22 0l-20.57-8.33c-.19293297-.0708062-.32118057-.2544844-.32118057-.46s.1282476-.3891938.32118057-.46l21.68-8.54 21.68 8.54c.192933.0708062.3211806.2544844.3211806.46s-.1282476.3891938-.3211806.46z"
       fill="#f3d55b" />
    <path
       id="path3"
       d="m23.41 49.91-9.88 4.49-2.56-1 11.62-5.28c.4941747-.1869275 1.0484959.0428292 1.2655309.524541.217035.4817119.0218859 1.049142-.4455309 1.295459z"
       fill="#805333" />
    <path
       id="path5"
       d="m23 50c-.5522847 0-1-.4477153-1-1v-15c0-.5522847.4477153-1 1-1s1 .4477153 1 1v15c0 .5522847-.4477153 1-1 1z"
       fill="#e64c3c" />
    <path
       id="path7"
       d="m34 7v8l-11 2-11-2v-8z"
       fill="#3b97d3" />
    <path
       id="path9"
       d="m34 15-6 10-5 2-5-2-6-10z"
       fill="#3f5c6c" />
    <path
       id="path11"
       d="m18 25h10c0 4.1 0 3.92-.14 4.24l-2.57 4.27c-.1800643.3036995-.5069327.4899384-.86.49h-2.86c-.3530673-.0000616-.6799357-.1863005-.86-.49l-2.57-4.27c-.14-.32-.14-.14-.14-4.24z"
       fill="#bdc3c7" />
    <rect
       id="Rectangle-path"
       fill="#2980ba"
       height="9"
       rx="1"
       width="32"
       x="7" />
    <g
       fill="#285680"
       id="g28">
      <path
         id="path14"
         d="m12 0v3c0 .55228475-.4477153 1-1 1s-1-.44771525-1-1v-3z" />
      <path
         id="path16"
         d="m16 0v3c0 .55228475-.4477153 1-1 1s-1-.44771525-1-1v-3z" />
      <path
         id="path18"
         d="m20 0v3c0 .55228475-.4477153 1-1 1s-1-.44771525-1-1v-3z" />
      <path
         id="path20"
         d="m24 0v3c0 .55228475-.4477153 1-1 1s-1-.44771525-1-1v-3z" />
      <path
         id="path22"
         d="m28 0v3c0 .55228475-.4477153 1-1 1s-1-.44771525-1-1v-3z" />
      <path
         id="path24"
         d="m32 0v3c0 .55228475-.4477153 1-1 1s-1-.44771525-1-1v-3z" />
      <path
         id="path26"
         d="m36 0v3c0 .55228475-.4477153 1-1 1s-1-.44771525-1-1v-3z" />
    </g>
    <path
       id="path30"
       d="m30.26 37.05c2.81-.93 3.83-3.27 2.58-6-.90056-1.6256063-.9970183-3.5767599-.2611863-5.2832638.7358319-1.7065039 2.2208897-2.9757194 4.0211863-3.4367362.3394023-.1125387.7130616-.0354597.9802241.202202s.3872398.5997996.315.95-.3258218.6352593-.6652241.747798c-2.81.93-3.84 3.27-2.58 6 .9205186 1.6309449 1.0266999 3.5981702.2870787 5.3187214s-2.2402051 2.997069-4.0570787 3.4512786c-.5384776.1712082-1.1137917-.1265224-1.285-.665-.1712082-.5384776.1265224-1.1137917.665-1.285z"
       fill="#95a5a5" />
    <path
       id="path32"
       d="m37.77 27.22c2.81-.92 3.84-3.26 2.58-6-.8964293-1.6261782-.9894107-3.5757793-.2518112-5.2798885.7375994-1.7041091 2.222655-2.9706793 4.0218112-3.4301115.5217435-.171671 1.0842907.1096026 1.26.63.0851138.2532458.0653517.5300201-.0548795.768604-.1202313.2385839-.3309332.4191366-.5851205.501396-2.81.92-3.83 3.27-2.58 6 .8965739 1.6247983.9908516 3.5730286.2553521 5.2768053-.7354994 1.7037767-2.2179931 2.9713341-4.0153521 3.4331947-.3394023.1125387-.7130616.0354597-.9802241-.202202s-.3872398-.5997996-.315-.95.3258218-.6352593.6652241-.747798z"
       fill="#95a5a5" />
  </g>
</svg>
