<?xml version="1.0" encoding="UTF-8" standalone="no"?>
<!-- Created with Inkscape (http://www.inkscape.org/) -->

<svg
   width="270.93332mm"
   height="261.48148mm"
   viewBox="0 0 270.93332 261.48148"
   version="1.1"
   id="svg4402"
   inkscape:version="1.1.1 (3bf5ae0d25, 2021-09-20)"
   sodipodi:docname="logo.svg"
   inkscape:export-filename="Y:\app\static\images\logo.png"
   inkscape:export-xdpi="96"
   inkscape:export-ydpi="96"
   xmlns:inkscape="http://www.inkscape.org/namespaces/inkscape"
   xmlns:sodipodi="http://sodipodi.sourceforge.net/DTD/sodipodi-0.dtd"
   xmlns="http://www.w3.org/2000/svg"
   xmlns:svg="http://www.w3.org/2000/svg"
   xmlns:rdf="http://www.w3.org/1999/02/22-rdf-syntax-ns#"
   xmlns:cc="http://creativecommons.org/ns#"
   xmlns:dc="http://purl.org/dc/elements/1.1/">
  <defs
     id="defs4396" />
  <sodipodi:namedview
     id="base"
     pagecolor="#ffffff"
     bordercolor="#666666"
     borderopacity="1.0"
     inkscape:pageopacity="0.0"
     inkscape:pageshadow="2"
     inkscape:zoom="0.49497475"
     inkscape:cx="308.09652"
     inkscape:cy="423.25391"
     inkscape:document-units="mm"
     inkscape:current-layer="layer1"
     showgrid="false"
     fit-margin-top="0"
     fit-margin-left="0"
     fit-margin-right="0"
     fit-margin-bottom="0"
     inkscape:window-width="1920"
     inkscape:window-height="1017"
     inkscape:window-x="3832"
     inkscape:window-y="-8"
     inkscape:window-maximized="1"
     inkscape:pagecheckerboard="0" />
  <metadata
     id="metadata4399">
    <rdf:RDF>
      <cc:Work
         rdf:about="">
        <dc:format>image/svg+xml</dc:format>
        <dc:type
           rdf:resource="http://purl.org/dc/dcmitype/StillImage" />
      </cc:Work>
    </rdf:RDF>
  </metadata>
  <g
     inkscape:label="Layer 1"
     inkscape:groupmode="layer"
     id="layer1"
     transform="translate(-76.079543,167.54216)">
    <path
       style="fill:#000080;stroke:#000080;stroke-width:0.413369"
       d="M 125.27531,61.763013 C 118.9569,55.45935 113.78727,50.136027 113.78727,49.93338 c 0,-0.202586 2.64463,-4.206414 5.87696,-8.897309 13.72548,-19.918919 12.72041,-15.419498 6.75784,-30.252865 -5.70227,-14.1858049 -3.89774,-12.6216271 -17.38855,-15.07236 -22.661014,-4.1165904 -19.635083,-0.9928533 -19.635083,-20.269781 0,-18.444713 -0.539814,-16.682507 5.425709,-17.711737 3.926704,-0.677443 8.964444,-1.60979 21.813554,-4.037105 3.27222,-0.618158 4.91132,-1.124297 5.36792,-1.657576 0.54488,-0.636361 8.21513,-18.111786 9.63297,-21.94714 0.62852,-1.700208 0.26485,-2.547944 -3.26355,-7.604657 -5.69382,-8.160331 -13.53759,-19.680647 -14.11431,-20.729888 -0.5314,-0.966857 21.38702,-24.052822 22.83641,-24.052822 0.46559,0 1.91092,0.9625 15.75362,10.4907 13.38794,9.21521 10.83436,8.8642 24.425,3.35743 12.37999,-5.01621 11.30673,-4.12232 12.47711,-10.39159 0.50346,-2.69683 1.83002,-9.7935 2.94788,-15.77036 1.11789,-5.97687 2.25806,-11.13883 2.53376,-11.47101 0.97823,-1.17871 32.55214,-0.86712 33.04413,0.32607 0.21092,0.51155 1.62105,7.71969 3.13362,16.0181 3.3599,18.43303 1.64328,15.97771 15.06682,21.55008 13.11314,5.44356 9.67196,6.12261 26.11602,-5.15357 7.18315,-4.92572 13.22218,-8.95585 13.42,-8.95585 0.19781,0 5.56245,5.20522 11.92136,11.56716 13.26019,13.266568 12.31604,10.892526 7.23646,18.195481 -3.42125,4.918758 -8.53608,12.356185 -11.6555,16.948188 -3.00028,4.416598 -3.20633,3.023338 2.36037,15.961656 5.49067,12.76156 5.19178,12.321143 8.80931,12.98232 19.39338,3.544582 28.34944,5.372153 28.64995,5.846235 0.94013,1.483233 0.40931,32.1280745 -0.56697,32.7321403 -0.51157,0.3164814 -7.34765,1.7386696 -15.19135,3.1604112 -17.58584,3.1875523 -15.0488,1.2695032 -20.8448,15.7590685 -5.76646,14.415711 -6.2865,11.081939 4.08984,26.217041 4.66816,6.809087 8.48755,12.568627 8.48755,12.79898 0,2.21189 -23.20762,23.387084 -24.65752,22.498116 -0.87532,-0.536647 -4.56774,-3.039934 -8.20539,-5.562852 -10.35027,-7.178419 -13.85643,-9.898063 -16.47308,-10.133184 -97.18356,-0.120018 0,0 -97.18356,-0.120018 -1.53697,0.176006 -3.10632,1.32613 -6.31432,3.561912 -10.94786,7.629995 -19.04899,13.111381 -19.37766,13.111381 -0.18501,0 -5.50591,-5.157529 -11.82433,-11.461163 z"
       id="path1296"
       inkscape:export-filename="C:\Users\fcoqu\path1296.png"
       inkscape:export-xdpi="96"
       inkscape:export-ydpi="96"
       sodipodi:nodetypes="cscssscsssccscssccsccsssssssssssssscccsscc" />
    <text
       xml:space="preserve"
       style="font-style:normal;font-weight:normal;font-size:95.7857px;line-height:1.25;font-family:sans-serif;fill:#ffffff;fill-opacity:1;stroke:none;stroke-width:2.39465"
       x="187.74791"
       y="75.044968"
       id="text3130"><tspan
         sodipodi:role="line"
         id="tspan3128"
         style="fill:#ffffff;stroke-width:2.39465"
         x="187.74791"
         y="75.044968">T</tspan></text>
  </g>
</svg>
