<?xml version="1.0" encoding="UTF-8" standalone="no"?>
<!-- Created with Inkscape (http://www.inkscape.org/) -->

<svg
   width="270.93332mm"
   height="261.48148mm"
   viewBox="0 0 270.93332 261.48148"
   version="1.1"
   id="svg4402"
   inkscape:version="1.1.1 (3bf5ae0d25, 2021-09-20)"
   sodipodi:docname="logo.svg"
   inkscape:export-filename="Y:\app\static\images\logo.png"
   inkscape:export-xdpi="35"
   inkscape:export-ydpi="35"
   xmlns:inkscape="http://www.inkscape.org/namespaces/inkscape"
   xmlns:sodipodi="http://sodipodi.sourceforge.net/DTD/sodipodi-0.dtd"
   xmlns="http://www.w3.org/2000/svg"
   xmlns:svg="http://www.w3.org/2000/svg"
   xmlns:rdf="http://www.w3.org/1999/02/22-rdf-syntax-ns#"
   xmlns:cc="http://creativecommons.org/ns#"
   xmlns:dc="http://purl.org/dc/elements/1.1/">
  <defs
     id="defs4396" />
  <sodipodi:namedview
     id="base"
     pagecolor="#ffffff"
     bordercolor="#666666"
     borderopacity="1.0"
     inkscape:pageopacity="0.0"
     inkscape:pageshadow="2"
     inkscape:zoom="0.49497475"
     inkscape:cx="521.23871"
     inkscape:cy="752.56365"
     inkscape:document-units="mm"
     inkscape:current-layer="layer1"
     showgrid="false"
     fit-margin-top="0"
     fit-margin-left="0"
     fit-margin-right="0"
     fit-margin-bottom="0"
     inkscape:window-width="1920"
     inkscape:window-height="1017"
     inkscape:window-x="1912"
     inkscape:window-y="-8"
     inkscape:window-maximized="1"
     inkscape:pagecheckerboard="0" />
  <metadata
     id="metadata4399">
    <rdf:RDF>
      <cc:Work
         rdf:about="">
        <dc:format>image/svg+xml</dc:format>
        <dc:type
           rdf:resource="http://purl.org/dc/dcmitype/StillImage" />
      </cc:Work>
    </rdf:RDF>
  </metadata>
  <g
     inkscape:label="Layer 1"
     inkscape:groupmode="layer"
     id="layer1"
     transform="translate(-76.079543,167.54216)">
    <path
       id="path1296-6"
       style="fill:#000080;stroke:#000080;stroke-width:0.441432"
       d="m 205.61256,-154.28272 c -6.10765,0.0587 -11.09387,0.30664 -11.48559,0.77867 -0.29444,0.35473 -1.51193,5.86725 -2.70571,12.24989 -1.19376,6.38262 -2.6101,13.9608 -3.14773,16.84071 -1.24985,6.69489 -0.10391,5.74033 -13.32435,11.09709 -14.5133,5.88062 -11.78622,6.25548 -26.08305,-3.58534 -14.78248,-10.17507 -16.32585,-11.2025 -16.82305,-11.2025 -1.54779,0 -24.95468,24.65322 -24.38722,25.68571 0.61586,1.12048 8.99224,13.422464 15.07259,22.136792 3.76795,5.400008 4.15665,6.305344 3.48546,8.120979 -1.51407,4.09573 -9.7051,22.757926 -10.28697,23.437488 -0.4876,0.569485 -2.23822,1.109658 -5.73258,1.769772 -13.721421,2.592108 -19.101291,3.588148 -23.294549,4.311581 -6.370523,1.099102 -5.793853,-0.782911 -5.793853,18.913998 0,20.5856085 -3.231474,17.2495809 20.967962,21.6456432 14.40669,2.61710684 12.47972,0.946847 18.56909,16.0957158 6.36737,15.840382 7.44082,11.035578 -7.21649,32.306772 -3.45178,5.009361 -6.27616,9.284804 -6.27616,9.501146 0,0.21641 5.52078,5.901273 12.26813,12.632879 6.74736,6.731587 12.42977,12.239412 12.62735,12.239412 0.35099,0 9.00205,-5.853465 20.69314,-14.001458 4.29907,-2.996176 5.84199,-4.166986 8.01946,-3.747039 l 8.64549,0.01004 c 31.99267,6.066857 41.33004,-26.661211 34.77089,-52.940387 -11.11028,-40.44637 -16.13974,-51.867471 -32.60775,-46.523093 -9.20242,2.986465 -2.91709,14.028516 -12.46694,12.783492 -7.81629,-1.019017 -17.31292,-9.963313 -14.45002,-18.55199 9.03919,-27.117647 44.61632,-5.143733 61.40458,-6.083124 15.10362,-1.161816 43.44247,-15.094598 58.91342,-12.884464 19.32654,2.760937 14.06673,24.183616 -3.71027,27.106077 -11.28938,1.855925 -13.18072,-0.462968 -28.7263,-4.569487 -20.3313,-5.37071 -22.43634,20.904571 -4.7891,63.172621 9.81162,30.904694 -8.28482,38.54871 24.43148,38.586714 l 11.46311,0.01332 c 2.7631,0.46655 6.64962,3.443179 17.21761,10.772604 3.88461,2.694197 7.82751,5.367547 8.76226,5.940632 1.54832,0.949311 26.33135,-21.663706 26.33135,-24.025759 0,-0.245987 -4.07846,-6.396239 -9.06353,-13.66759 -11.08078,-16.162606 -10.52525,-12.602471 -4.3673,-27.996847 6.18946,-15.4732505 3.48011,-13.42517349 22.25985,-16.8291218 8.37618,-1.5182617 15.67633,-3.0371307 16.22263,-3.3750973 1.04257,-0.6450807 1.60933,-33.3700559 0.60538,-34.9539789 -0.32091,-0.506266 -9.88496,-2.457817 -30.59494,-6.243046 -3.86313,-0.706056 -3.54391,-0.23612 -9.40735,-13.864049 -5.94462,-13.81668 -5.7248,-12.328456 -2.52082,-17.044894 3.33119,-4.903748 8.79338,-12.846235 12.4469,-18.098922 5.42443,-7.798751 6.43289,-5.263871 -7.72751,-19.431091 -6.79062,-6.79384 -12.51988,-12.35199 -12.73111,-12.35199 -0.21126,0 -6.66011,4.30338 -14.33092,9.56351 -17.56042,12.04171 -13.8853,11.31668 -27.88868,5.50357 -14.33484,-5.95068 -12.50219,-3.3287 -16.09022,-23.01312 -1.61525,-8.86178 -3.12059,-16.55932 -3.34584,-17.10559 -0.32834,-0.79638 -13.62288,-1.22471 -23.80223,-1.12688 z"
       sodipodi:nodetypes="ccscscsccssscsssssssscccssscssscccssscsscssssssscscscc"
       inkscape:export-filename="Y:\app\static\images\logo.png"
       inkscape:export-xdpi="96"
       inkscape:export-ydpi="96" />
  </g>
</svg>
