<?xml version="1.0" encoding="UTF-8" standalone="no"?>
<svg
   xmlns:dc="http://purl.org/dc/elements/1.1/"
   xmlns:cc="http://creativecommons.org/ns#"
   xmlns:rdf="http://www.w3.org/1999/02/22-rdf-syntax-ns#"
   xmlns:svg="http://www.w3.org/2000/svg"
   xmlns="http://www.w3.org/2000/svg"
   xmlns:sodipodi="http://sodipodi.sourceforge.net/DTD/sodipodi-0.dtd"
   xmlns:inkscape="http://www.inkscape.org/namespaces/inkscape"
   height="512"
   viewBox="0 0 60 54"
   width="512"
   version="1.1"
   id="svg35"
   sodipodi:docname="profilecut.svg"
   inkscape:version="1.0.2-2 (e86c870879, 2021-01-15)">
  <metadata
     id="metadata41">
    <rdf:RDF>
      <cc:Work
         rdf:about="">
        <dc:format>image/svg+xml</dc:format>
        <dc:type
           rdf:resource="http://purl.org/dc/dcmitype/StillImage" />
        <dc:title></dc:title>
      </cc:Work>
    </rdf:RDF>
  </metadata>
  <defs
     id="defs39" />
  <sodipodi:namedview
     pagecolor="#ffffff"
     bordercolor="#666666"
     borderopacity="1"
     objecttolerance="10"
     gridtolerance="10"
     guidetolerance="10"
     inkscape:pageopacity="0"
     inkscape:pageshadow="2"
     inkscape:window-width="776"
     inkscape:window-height="480"
     id="namedview37"
     showgrid="false"
     inkscape:zoom="1.7382812"
     inkscape:cx="256"
     inkscape:cy="256"
     inkscape:window-x="62"
     inkscape:window-y="0"
     inkscape:window-maximized="0"
     inkscape:current-layer="svg35" />
  <g
     id="008---Cutting-Paper"
     fill="none">
    <g
       id="Icons"
       transform="translate(1 1)">
      <path
         id="Shape"
         d="m36 12v37c0 1.6568542-1.3431458 3-3 3h-30c-1.65685425 0-3-1.3431458-3-3v-46c0-1.65685425 1.34314575-3 3-3h21z"
         fill="#fdd834" />
      <path
         id="path3"
         d="m33 9v40c0 1.6568542-1.3431458 3-3 3h-27c-1.65685425 0-3-1.3431458-3-3v-46c0-1.65685425 1.34314575-3 3-3h21z"
         fill="#ffeb3a" />
      <path
         id="path5"
         d="m36 12h-9c-1.6568542 0-3-1.3431458-3-3v-9z"
         fill="#fec108" />
      <path
         id="path7"
         d="m49 13c-4.91 0-9 3.54-9 8 .0006863.8788868.163406 1.7501154.48 2.57l-4.26 3.53 4.7 3.9 3.66-3c1.3773975.667176 2.8895552 1.0092931 4.42 1 5 0 9-3.58 9-8s-4-8-9-8zm-5 8c0-2.07 2.07-4 5-4 2.76 0 5 1.79 5 4s-2.24 4-5 4c-2.94 0-5-1.93-5-4z"
         fill="#3f51b5" />
      <path
         id="path9"
         d="m49 13c-.5022129.0043806-1.0034781.0444818-1.5.12 4.26.64 7.5 3.88 7.5 7.88s-3.23 7.23-7.48 7.88c.4898559.0751103.9844423.1152119 1.48.12 5 0 9-3.58 9-8s-4-8-9-8z"
         fill="#283593" />
      <path
         id="path11"
         d="m36.22 34.9-.22.17-11.79 9.77c-2.1201556 1.734732-5.2414462 1.4404389-7-.66l-.64-.77 14.94-12.41 4.49 3.72z"
         fill="#3f51b5" />
      <path
         id="path13"
         d="m49 33c-1.5304448-.0092931-3.0426025.332824-4.42 1l-20.37-16.84c-1.3037856-1.0789037-3.0648306-1.4250921-4.68-.92-1.2288026.436512-2.2819432 1.2614722-3 2.35l23.95 19.84c-.316594.8198846-.4793137 1.6911132-.48 2.57 0 4.48 4.11 8 9 8s9-3.58 9-8-4-8-9-8zm-5 8c0-2.07 2.07-4 5-4 2.76 0 5 1.79 5 4s-2.24 4-5 4c-2.94 0-5-1.93-5-4z"
         fill="#02a9f4" />
      <path
         id="path15"
         d="m49 33c-.4955577.0047881-.9901441.0448897-1.48.12 4.25.65 7.48 3.88 7.48 7.88s-3.24 7.24-7.5 7.88c.4965219.0755182.9977871.1156194 1.5.12 5 0 9-3.58 9-8s-4-8-9-8z"
         fill="#0377bc" />
    </g>
    <g
       id="Layer_10"
       fill="#000">
      <path
         id="path18"
         d="m4 54h30c2.209139 0 4-1.790861 4-4v-9c0-.5522847-.4477153-1-1-1s-1 .4477153-1 1v9c0 1.1045695-.8954305 2-2 2h-30c-1.1045695 0-2-.8954305-2-2v-17h2c.55228475 0 1-.4477153 1-1s-.44771525-1-1-1h-2v-27c0-1.1045695.8954305-2 2-2h20v8c0 2.209139 1.790861 4 4 4h8v9c0 .5522847.4477153 1 1 1s1-.4477153 1-1v-10c-.0156634-.2621853-.1176279-.5118225-.29-.71l-12-12c-.1942128-.17871243-.4462068-.28163957-.71-.29h-21c-2.209139 0-4 1.790861-4 4v46c0 2.209139 1.790861 4 4 4zm24-42c-1.1045695 0-2-.8954305-2-2v-6.59l8.59 8.59z" />
      <path
         id="path20"
         d="m56 22c0-2.76-2.69-5-6-5s-6 2.24-6 5 2.69 5 6 5 6-2.24 6-5zm-10 0c0-1.65 1.79-3 4-3s4 1.35 4 3-1.79 3-4 3-4-1.35-4-3z" />
      <path
         id="path22"
         d="m50 47c3.31 0 6-2.24 6-5s-2.69-5-6-5-6 2.24-6 5 2.69 5 6 5zm0-8c2.21 0 4 1.35 4 3s-1.79 3-4 3-4-1.35-4-3 1.79-3 4-3z" />
      <path
         id="path24"
         d="m60 22c0-5-4.49-9-10-9-6.54 0-11.31 5.58-9.68 11.24l-3.1 2.56-11.37-9.41c-1.2251819-1.016063-2.803885-1.5036716-4.3886571-1.3555095-1.5847722.1481621-3.0457326.9199523-4.0613429 2.1455095-.56.68-.92 1-.87 1.5.0245073.2656078.1541123.5104172.36.68l14.05 11.64-14 11.64c-.2058877.1695828-.3354927.4143922-.36.68 0 .49.19.67.87 1.5 1.0156103 1.2255572 2.4765707 1.9973474 4.0613429 2.1455095 1.5847721.1481621 3.1634752-.3394465 4.3886571-1.3555095l11.32-9.41 3.1 2.56c-1.64 5.68 3.16 11.24 9.68 11.24 5.51 0 10-4 10-9 0-6.53-7.56-11-14.27-8.14l-2.24-1.86 2.24-1.86c6.71 2.86 14.27-1.62 14.27-8.14zm-35.43 23.07c-1.701281 1.4075338-4.2212863 1.1703042-5.63-.53l13.57-11.24 3.14 2.6zm21.43-9.14c5.37-2.67 12 .73 12 6.07 0 3.86-3.59 7-8 7-5.45 0-9.32-4.69-7.59-9.21.1558237-.3998721.0391276-.8545845-.29-1.13l-23.18-19.2c1.4087137-1.7003042 3.928719-1.9375338 5.63-.53l20.37 16.87c.298678.24417.7111703.2947587 1.06.13zm-1.06-7.73-3 2.5-3.14-2.6 3.34-2.76c.3291276-.2754155.4458237-.7301279.29-1.13-1.75-4.54 2.14-9.21 7.57-9.21 4.41 0 8 3.14 8 7 0 5.33-6.59 8.75-12 6.07-.3488297-.1647587-.761322-.11417-1.06.13z" />
      <circle
         id="Oval"
         cx="37"
         cy="32"
         r="1" />
      <path
         id="path27"
         d="m8 31c-.55228475 0-1 .4477153-1 1s.44771525 1 1 1h3c.5522847 0 1-.4477153 1-1s-.4477153-1-1-1z" />
      <path
         id="path29"
         d="m15 33h3c.5522847 0 1-.4477153 1-1s-.4477153-1-1-1h-3c-.5522847 0-1 .4477153-1 1s.4477153 1 1 1z" />
      <path
         id="path31"
         d="m25 33c.5522847 0 1-.4477153 1-1s-.4477153-1-1-1h-3c-.5522847 0-1 .4477153-1 1s.4477153 1 1 1z" />
    </g>
  </g>
</svg>
