<svg height="512" viewBox="0 0 64 64" width="512" xmlns="http://www.w3.org/2000/svg"><g id="Payment-Credit_Card-Money-Shopping_Cart-Paper" data-name="Payment-Credit Card-Money-Shopping Cart-Paper"><path d="m61 8v48a5 5 0 1 1 -5-5h-33v-38h33a5 5 0 1 1 5-5z" fill="#e6e7e8"/><path d="m41 35v16h-18v-18h16a2.006 2.006 0 0 1 2 2z" fill="#d8d7da"/><rect fill="#00ccb3" height="20" rx="2" width="30" x="9" y="31"/><path d="m56 13h-33a4.712 4.712 0 0 1 -1-.1 5 5 0 0 1 -3.67-3.11 5.078 5.078 0 0 1 -.33-1.79 5 5 0 0 1 5-5h33a5 5 0 0 0 0 10z" fill="#d1d3d4"/><path d="m37 51h19a5 5 0 0 0 0 10h-33a5 5 0 0 1 0-10z" fill="#d1d3d4"/><g fill="#d8d7da"><path d="m52 25h-4-4v4 4h4 4 4l.5-4 .5-4z"/><circle cx="53" cy="39" r="2"/><circle cx="45" cy="39" r="2"/></g><path d="m55 23-.5 4h-4.5v-4z" fill="#ebbf00"/><path d="m54.5 27-.5 4h-4v-4z" fill="#ffde55"/><circle cx="51" cy="37" fill="#57565c" r="2"/><path d="m46 27h4v4h-4z" fill="#ebbf00"/><path d="m46 23h4v4h-4z" fill="#ffde55"/><path d="m42 27h4v4h-4z" fill="#ffde55"/><path d="m42 23h4v4h-4z" fill="#ebbf00"/><circle cx="43" cy="37" fill="#57565c" r="2"/><path d="m33 43a2 2 0 0 1 0 4h-3a2 2 0 0 1 0-4z" fill="#ff9811"/><path d="m17 35h4v6h-4z" fill="#ff9811"/><path d="m13 35h4v6h-4z" fill="#ee8700"/><path d="m20.14 46.75a1.861 1.861 0 0 1 -.07.52l-1 3.73-.87 3.24a6.216 6.216 0 0 0 -.2 1.55v2.21l-3 4h-11v-2l-.7-2.81a9.842 9.842 0 0 1 -.3-2.42v-10.77a6 6 0 0 1 6-6v9l2.4 4 .03.05a1.96 1.96 0 0 0 1.68.96h.02a1.964 1.964 0 0 0 1.73-1.01 1.859 1.859 0 0 0 .19-.46l1.16-4.3a2.033 2.033 0 0 1 .97-1.24 1.981 1.981 0 0 1 1.48-.18 2 2 0 0 1 1.48 1.93z" fill="#ffc477"/><path d="m33 20a9 9 0 0 1 -9 9 8.262 8.262 0 0 1 -1-.06v-15.94h6.64a8.945 8.945 0 0 1 3.36 7z" fill="#d8d7da"/><circle cx="22" cy="18" fill="#ffd422" r="9"/><path d="m40 33v16a3.009 3.009 0 0 1 -3 3h-15v-2h15a1 1 0 0 0 1-1v-16a1 1 0 0 0 -1-1h-26a1 1 0 0 0 -1 1v2h-2v-2a3.009 3.009 0 0 1 3-3h26a3.009 3.009 0 0 1 3 3z"/><path d="m30 42a3 3 0 0 0 0 6h3a3 3 0 0 0 0-6zm4 3a1 1 0 0 1 -1 1h-3a1 1 0 0 1 0-2h3a1 1 0 0 1 1 1z"/><path d="m22 41v-6a1 1 0 0 0 -1-1h-8a1 1 0 0 0 -1 1v6a1 1 0 0 0 1 1h8a1 1 0 0 0 1-1zm-8-5h2v4h-2zm6 4h-2v-4h2z"/><path d="m34 34h2v2h-2z"/><path d="m30 34h2v2h-2z"/><path d="m26 34h2v2h-2z"/><path d="m12 44h2v2h-2z"/><path d="m26 38h10v2h-10z"/><path d="m21.04 47.53-1.87 6.97a5.074 5.074 0 0 0 -.17 1.29v2.21a.984.984 0 0 1 -.2.6l-3 4-1.6-1.2 2.8-3.73v-1.88a6.922 6.922 0 0 1 .24-1.81l1.86-6.97a.974.974 0 0 0 -.1-.76.963.963 0 0 0 -.6-.46 1.006 1.006 0 0 0 -1.23.71l-1.15 4.3a2.974 2.974 0 0 1 -2.88 2.21h-.04a2.956 2.956 0 0 1 -2.53-1.45l-2.43-4.05a1 1 0 0 1 -.14-.51v-7.9a5.009 5.009 0 0 0 -4 4.9v10.77a8.916 8.916 0 0 0 .27 2.18l.7 2.81a.986.986 0 0 1 .03.24v2h-2v-1.88l-.67-2.68a10.908 10.908 0 0 1 -.33-2.67v-10.77a7.008 7.008 0 0 1 7-7 1 1 0 0 1 1 1v8.72l2.29 3.81a.953.953 0 0 0 .83.48.922.922 0 0 0 .97-.73l1.15-4.3a3.007 3.007 0 0 1 5.5-.73 3.032 3.032 0 0 1 .3 2.28z"/><path d="m62 8v48a6 6 0 0 1 -6 6h-33a5.97 5.97 0 0 1 -3.6-1.2l1.2-1.6a4 4 0 0 0 2.4.8h28.54a5.979 5.979 0 0 1 -.01-8h-9.53v-2h14a1 1 0 0 1 0 2 4 4 0 1 0 4 4v-48a4 4 0 1 0 -4 4 1 1 0 0 1 0 2h-23v-2h18.53a5.979 5.979 0 0 1 .01-8h-28.54a4.014 4.014 0 0 0 -3.92 3.2l-1.96-.4a6.024 6.024 0 0 1 5.88-4.8h33a6 6 0 0 1 6 6z"/><path d="m55 34h-12v-2h11a1 1 0 0 0 .99-.88l1-8a.968.968 0 0 0 -.24-.78.981.981 0 0 0 -.75-.34h-12v-1a1.033 1.033 0 0 0 -.29-.71l-2-2a1.033 1.033 0 0 0 -.71-.29h-3v2h2.59l1.41 1.41v13.37a3 3 0 1 0 4.82 1.22h2.36a3 3 0 1 0 5.64 0h1.18a1 1 0 0 1 1 1h2a3.009 3.009 0 0 0 -3-3zm-4-10h2.87l-.25 2h-2.62zm0 4h2.37l-.25 2h-2.12zm-4-4h2v2h-2zm0 4h2v2h-2zm-4-4h2v2h-2zm0 4h2v2h-2zm0 10a1 1 0 1 1 1-1 1 1 0 0 1 -1 1zm8 0a1 1 0 1 1 1-1 1 1 0 0 1 -1 1z"/><path d="m23 21h-2a1 1 0 0 1 -1-1h-2a3 3 0 0 0 3 3v1h2v-1a3 3 0 0 0 0-6h-2a1 1 0 0 1 0-2h2a1 1 0 0 1 1 1h2a3 3 0 0 0 -3-3v-1h-2v1a3 3 0 0 0 0 6h2a1 1 0 0 1 0 2z"/><path d="m22 28a10 10 0 1 0 -10-10 10.011 10.011 0 0 0 10 10zm0-18a8 8 0 1 1 -8 8 8.009 8.009 0 0 1 8-8z"/></g></svg>