<?xml version="1.0" encoding="UTF-8" standalone="no"?>
<svg
   xmlns:dc="http://purl.org/dc/elements/1.1/"
   xmlns:cc="http://creativecommons.org/ns#"
   xmlns:rdf="http://www.w3.org/1999/02/22-rdf-syntax-ns#"
   xmlns:svg="http://www.w3.org/2000/svg"
   xmlns="http://www.w3.org/2000/svg"
   xmlns:sodipodi="http://sodipodi.sourceforge.net/DTD/sodipodi-0.dtd"
   xmlns:inkscape="http://www.inkscape.org/namespaces/inkscape"
   version="1.1"
   id="Capa_1"
   x="0px"
   y="0px"
   viewBox="0 0 512 512"
   style="enable-background:new 0 0 512 512;"
   xml:space="preserve"
   sodipodi:docname="roll.svg"
   inkscape:version="1.0.2-2 (e86c870879, 2021-01-15)"><metadata
   id="metadata72"><rdf:RDF><cc:Work
       rdf:about=""><dc:format>image/svg+xml</dc:format><dc:type
         rdf:resource="http://purl.org/dc/dcmitype/StillImage" /><dc:title></dc:title></cc:Work></rdf:RDF></metadata><defs
   id="defs70" /><sodipodi:namedview
   pagecolor="#ffffff"
   bordercolor="#666666"
   borderopacity="1"
   objecttolerance="10"
   gridtolerance="10"
   guidetolerance="10"
   inkscape:pageopacity="0"
   inkscape:pageshadow="2"
   inkscape:window-width="776"
   inkscape:window-height="480"
   id="namedview68"
   showgrid="false"
   inkscape:zoom="1.7382812"
   inkscape:cx="256"
   inkscape:cy="256"
   inkscape:window-x="62"
   inkscape:window-y="0"
   inkscape:window-maximized="0"
   inkscape:current-layer="Capa_1" />
<path
   style="fill:#303C42;"
   d="M477.168,202.667C497.927,186.969,512,155.219,512,117.333c0-53.833-28.104-96-64-96H64  c-35.896,0-64,42.167-64,96c0,37.885,14.073,69.635,34.832,85.333C14.073,218.365,0,250.115,0,288  c0,41.633,17.26,77.164,42.667,90.354v69.677c0,23.51,19.146,42.635,42.667,42.635h160c2.833,0,5.542-1.125,7.542-3.125  l85.333-85.333c2-2,3.125-4.708,3.125-7.542V384H448c35.896,0,64-42.167,64-96C512,250.115,497.927,218.365,477.168,202.667z"
   id="path2" />
<path
   style="fill:#546E7A;"
   d="M490.667,117.333C490.667,157.802,471.125,192,448,192s-42.667-34.198-42.667-74.667  S424.875,42.667,448,42.667S490.667,76.865,490.667,117.333z"
   id="path4" />
<path
   style="fill:#303C42;"
   d="M448,149.333c12.354,0,21.333-13.458,21.333-32s-8.979-32-21.333-32  c-12.354,0-21.333,13.458-21.333,32S435.646,149.333,448,149.333z"
   id="path6" />
<path
   style="fill:#78909C;"
   d="M21.333,117.333c0-40.469,19.542-74.667,42.667-74.667h343.796  C393.311,60.124,384,86.668,384,117.333s9.311,57.21,23.796,74.667H64C40.875,192,21.333,157.802,21.333,117.333z"
   id="path8" />
<path
   style="opacity:0.2;fill:#FFFFFF;enable-background:new    ;"
   d="M32,149.333c0-40.469,19.542-74.667,42.667-74.667h315.961  c4.133-12.48,10.004-23.366,17.168-32H64c-23.125,0-42.667,34.198-42.667,74.667c0,20.116,4.841,38.661,12.538,52.249  C32.776,163.077,32,156.363,32,149.333z"
   id="path10" />
<path
   style="fill:#78909C;"
   d="M21.333,288c0-40.469,19.542-74.667,42.667-74.667h11.133  c-13.538,22.397-32.466,66.512-32.466,138.698v0.195C29.892,338.923,21.333,314.509,21.333,288z"
   id="path12" />
<path
   style="fill:#546E7A;"
   d="M448,362.667c-23.125,0-42.667-34.198-42.667-74.667s19.542-74.667,42.667-74.667  s42.667,34.198,42.667,74.667S471.125,362.667,448,362.667z"
   id="path14" />
<path
   style="fill:#FFFFFF;"
   d="M64,448.031v-96c0-85.042,28.171-127.522,36.943-138.698h247.888  C335.315,234.021,320,274.422,320,352v32h-42.667c-23.521,0-42.667,19.135-42.667,42.667v42.667H85.333  C73.563,469.333,64,459.781,64,448.031z"
   id="path16" />
<path
   style="opacity:0.1;enable-background:new    ;"
   d="M337.935,234.667c3.548-8.701,7.277-15.794,10.896-21.333H100.943  c-2.827,3.602-7.719,10.853-12.983,21.333H337.935z"
   id="path18" />
<path
   style="fill:#E6E6E6;"
   d="M304.917,405.333L256,454.25v-27.583c0-11.76,9.563-21.333,21.333-21.333H304.917z"
   id="path20" />
<path
   style="opacity:0.2;fill:#FFFFFF;enable-background:new    ;"
   d="M260.417,431.083c0-11.76,9.563-21.333,21.333-21.333h18.75  l4.417-4.417h-27.583c-11.771,0-21.333,9.573-21.333,21.333v27.583l4.417-4.417V431.083z"
   id="path22" />
<path
   style="fill:#78909C;"
   d="M341.333,352c0-103.363,28.44-133.021,35.277-138.667h31.185C393.311,230.79,384,257.335,384,288  c0,30.663,9.311,57.207,23.793,74.663l-66.46-0.005V352z"
   id="path24" />
<path
   style="opacity:0.1;enable-background:new    ;"
   d="M341.333,351.991V352v10.658l66.46,0.005  c-2.624-3.163-4.861-6.938-7.121-10.667L341.333,351.991z"
   id="path26" />
<path
   style="fill:#303C42;"
   d="M448,256c-12.354,0-21.333,13.458-21.333,32c0,18.542,8.979,32,21.333,32  c12.354,0,21.333-13.458,21.333-32C469.333,269.458,460.354,256,448,256z"
   id="path28" />
<linearGradient
   id="SVGID_1_"
   gradientUnits="userSpaceOnUse"
   x1="-47.5128"
   y1="640.6981"
   x2="-23.6243"
   y2="629.5588"
   gradientTransform="matrix(21.3333 0 0 -21.3333 996.3334 13791.667)">
	<stop
   offset="0"
   style="stop-color:#FFFFFF;stop-opacity:0.2"
   id="stop30" />
	<stop
   offset="1"
   style="stop-color:#FFFFFF;stop-opacity:0"
   id="stop32" />
</linearGradient>
<path
   style="fill:url(#SVGID_1_);"
   d="M477.168,202.667C497.927,186.969,512,155.219,512,117.333c0-53.833-28.104-96-64-96H64  c-35.896,0-64,42.167-64,96c0,37.885,14.073,69.635,34.832,85.333C14.073,218.365,0,250.115,0,288  c0,41.633,17.26,77.164,42.667,90.354v69.677c0,23.51,19.146,42.635,42.667,42.635h160c2.833,0,5.542-1.125,7.542-3.125  l85.333-85.333c2-2,3.125-4.708,3.125-7.542V384H448c35.896,0,64-42.167,64-96C512,250.115,497.927,218.365,477.168,202.667z"
   id="path35" />
<g
   id="g37">
</g>
<g
   id="g39">
</g>
<g
   id="g41">
</g>
<g
   id="g43">
</g>
<g
   id="g45">
</g>
<g
   id="g47">
</g>
<g
   id="g49">
</g>
<g
   id="g51">
</g>
<g
   id="g53">
</g>
<g
   id="g55">
</g>
<g
   id="g57">
</g>
<g
   id="g59">
</g>
<g
   id="g61">
</g>
<g
   id="g63">
</g>
<g
   id="g65">
</g>
</svg>
