<?xml version="1.0" encoding="UTF-8" standalone="no"?>
<svg
   xmlns:dc="http://purl.org/dc/elements/1.1/"
   xmlns:cc="http://creativecommons.org/ns#"
   xmlns:rdf="http://www.w3.org/1999/02/22-rdf-syntax-ns#"
   xmlns:svg="http://www.w3.org/2000/svg"
   xmlns="http://www.w3.org/2000/svg"
   xmlns:sodipodi="http://sodipodi.sourceforge.net/DTD/sodipodi-0.dtd"
   xmlns:inkscape="http://www.inkscape.org/namespaces/inkscape"
   id="Capa_1"
   enable-background="new 0 0 511.99 511.99"
   height="512"
   viewBox="0 0 511.99 511.99"
   width="512"
   version="1.1"
   sodipodi:docname="sewing.svg"
   inkscape:version="1.0.2-2 (e86c870879, 2021-01-15)">
  <metadata
     id="metadata75">
    <rdf:RDF>
      <cc:Work
         rdf:about="">
        <dc:format>image/svg+xml</dc:format>
        <dc:type
           rdf:resource="http://purl.org/dc/dcmitype/StillImage" />
        <dc:title></dc:title>
      </cc:Work>
    </rdf:RDF>
  </metadata>
  <defs
     id="defs73" />
  <sodipodi:namedview
     pagecolor="#ffffff"
     bordercolor="#666666"
     borderopacity="1"
     objecttolerance="10"
     gridtolerance="10"
     guidetolerance="10"
     inkscape:pageopacity="0"
     inkscape:pageshadow="2"
     inkscape:window-width="776"
     inkscape:window-height="480"
     id="namedview71"
     showgrid="false"
     inkscape:zoom="1.7382812"
     inkscape:cx="256"
     inkscape:cy="256"
     inkscape:window-x="62"
     inkscape:window-y="0"
     inkscape:window-maximized="0"
     inkscape:current-layer="Capa_1" />
  <g
     id="g68">
    <g
       id="g44">
      <path
         d="m127.257 276.731v17.688c0 6.763 5.533 12.297 12.297 12.297h30.058c6.763 0 12.297-5.533 12.297-12.297v-17.688z"
         fill="#f4dd45"
         id="path2" />
      <path
         d="m410.783 23.038h-28.391c-5.774 0-10.499 4.691-10.499 10.426v48.317c0 5.734 4.725 10.426 10.499 10.426h28.391c5.774 0 10.499-4.692 10.499-10.426v-48.317c0-5.734-4.724-10.426-10.499-10.426z"
         fill="#f87c68"
         id="path4" />
      <path
         d="m396.588 81.781v-48.317c0-5.734 4.725-10.426 10.499-10.426h-24.694c-5.774 0-10.499 4.691-10.499 10.426v48.318c0 5.734 4.725 10.426 10.499 10.426h24.694c-5.775-.001-10.499-4.693-10.499-10.427z"
         fill="#ec625e"
         id="path6" />
      <path
         d="m407.091 92.207h-244.195c-39.191 0-70.962 31.771-70.962 70.962v94.802c0 12.018 9.742 21.76 21.76 21.76h81.777c12.018 0 21.76-9.742 21.76-21.76v-21.534c0-10.456 8.476-18.932 18.932-18.932h97.66c10.456 0 18.932 8.476 18.932 18.932v128.272h125.297v-201.54c.001-39.191-31.77-70.962-70.961-70.962z"
         fill="#7fb3fa"
         id="path8" />
      <g
         fill="#64a6f4"
         id="g16">
        <path
           d="m127.257 257.971v-94.802c0-39.191 31.771-70.962 70.962-70.962h-35.323c-39.191 0-70.962 31.771-70.962 70.962v94.802c0 12.018 9.742 21.76 21.76 21.76h35.323c-12.017 0-21.76-9.742-21.76-21.76z"
           id="path10" />
        <path
           d="m369.147 217.505h-35.323c10.456 0 18.932 8.476 18.932 18.932v128.272h35.323v-128.273c0-10.455-8.477-18.931-18.932-18.931z"
           id="path12" />
        <path
           d="m142.372 242.158c6.744 0 12.211-5.467 12.211-12.211v-78.903c0-6.744-5.467-12.211-12.211-12.211h-46.153c-2.771 7.591-4.285 15.787-4.285 24.337v78.989h50.438z"
           id="path14" />
      </g>
      <path
         d="m127.257 163.169c0-8.55 1.514-16.746 4.285-24.337h-35.323c-2.915 8.103-4.283 16.361-4.285 24.318v.019 78.989h35.323z"
         fill="#3d8bd8"
         id="path18" />
      <circle
         cx="438.918"
         cy="217.128"
         fill="#477b9e"
         r="55.651"
         id="circle20" />
      <path
         d="m415.933 217.128c0-25.051 16.554-46.231 39.318-53.21-5.166-1.584-10.649-2.441-16.333-2.441-30.735 0-55.651 24.916-55.651 55.651s24.916 55.651 55.651 55.651c5.684 0 11.168-.857 16.333-2.441-22.764-6.979-39.318-28.159-39.318-53.21z"
         fill="#3f6d8e"
         id="path22" />
      <circle
         cx="438.918"
         cy="217.128"
         fill="#3f6d8e"
         r="26.313"
         id="circle24" />
      <path
         d="m438.918 217.128c0-9.738 5.294-18.234 13.157-22.784-3.871-2.24-8.362-3.529-13.157-3.529-14.532 0-26.313 11.781-26.313 26.313s11.781 26.313 26.313 26.313c4.795 0 9.285-1.289 13.157-3.529-7.863-4.55-13.157-13.046-13.157-22.784z"
         fill="#365e7d"
         id="path26" />
      <path
         d="m198.453 361.709h279.6v101.607h-279.6z"
         fill="#b5dcff"
         id="path28" />
      <path
         d="m68.774 361.709h-17.944c-8.725 0-15.798 7.156-15.798 15.984v85.623h33.742z"
         fill="#8bcaff"
         id="path30" />
      <path
         d="m68.774 493.983v-31.852h-40.453c-6.2 0-11.272 5.072-11.272 11.272v19.47c0 6.2 5.072 11.272 11.272 11.272h50.615c-5.612 0-10.162-4.55-10.162-10.162z"
         fill="#dbedff"
         id="path32" />
      <path
         d="m483.297 462.131h-284.844v31.852c0 5.612-4.55 10.162-10.162 10.162h295.006c6.2 0 11.272-5.072 11.272-11.272v-19.47c0-6.2-5.073-11.272-11.272-11.272z"
         fill="#dbedff"
         id="path34" />
      <path
         d="m68.774 493.983v-10.845h-40.453c-5.94 0-10.833-4.66-11.232-10.503-.018.255-.04.509-.04.769v19.47c0 6.2 5.073 11.272 11.272 11.272h50.615c-5.612-.001-10.162-4.551-10.162-10.163z"
         fill="#b5dcff"
         id="path36" />
      <path
         d="m483.297 483.138h-284.844v10.845c0 5.612-4.55 10.162-10.162 10.162h295.006c6.199 0 11.272-5.072 11.272-11.272v-19.47c0-.259-.022-.513-.039-.769-.4 5.844-5.293 10.504-11.233 10.504z"
         fill="#b5dcff"
         id="path38" />
      <path
         d="m194.291 351.12h-118.355c-5.612 0-10.162 4.549-10.162 10.162v132.701c0 5.612 4.55 10.162 10.162 10.162h118.355c5.612 0 10.162-4.55 10.162-10.162v-132.702c0-5.612-4.55-10.161-10.162-10.161z"
         fill="#f87c68"
         id="path40" />
      <path
         d="m104.357 493.983v-132.702c0-5.612 4.55-10.162 10.162-10.162h-38.583c-5.612 0-10.162 4.549-10.162 10.162v132.701c0 5.612 4.55 10.162 10.162 10.162h38.583c-5.612.001-10.162-4.549-10.162-10.161z"
         fill="#ec625e"
         id="path42" />
    </g>
    <g
       id="g66">
      <path
         d="m154.77 389.149c4.143 0 7.5-3.357 7.5-7.5v-6.736c0-4.143-3.357-7.5-7.5-7.5s-7.5 3.357-7.5 7.5v6.736c0 4.143 3.357 7.5 7.5 7.5z"
         id="path46" />
      <path
         d="m154.77 421.232c4.143 0 7.5-3.357 7.5-7.5v-6.736c0-4.143-3.357-7.5-7.5-7.5s-7.5 3.357-7.5 7.5v6.736c0 4.143 3.357 7.5 7.5 7.5z"
         id="path48" />
      <path
         d="m154.77 453.315c4.143 0 7.5-3.357 7.5-7.5v-6.736c0-4.143-3.357-7.5-7.5-7.5s-7.5 3.357-7.5 7.5v6.736c0 4.143 3.357 7.5 7.5 7.5z"
         id="path50" />
      <path
         d="m154.77 485.397c4.143 0 7.5-3.357 7.5-7.5v-6.736c0-4.143-3.357-7.5-7.5-7.5s-7.5 3.357-7.5 7.5v6.736c0 4.143 3.357 7.5 7.5 7.5z"
         id="path52" />
      <path
         d="m191.83 131.677c-4.143 0-7.5 3.357-7.5 7.5v15.884c0 4.143 3.357 7.5 7.5 7.5s7.5-3.357 7.5-7.5v-15.884c0-4.143-3.357-7.5-7.5-7.5z"
         id="path54" />
      <path
         d="m216.807 131.677c-4.143 0-7.5 3.357-7.5 7.5v15.884c0 4.143 3.357 7.5 7.5 7.5s7.5-3.357 7.5-7.5v-15.884c0-4.143-3.358-7.5-7.5-7.5z"
         id="path56" />
      <path
         d="m241.783 131.677c-4.143 0-7.5 3.357-7.5 7.5v15.884c0 4.143 3.357 7.5 7.5 7.5s7.5-3.357 7.5-7.5v-15.884c0-4.143-3.357-7.5-7.5-7.5z"
         id="path58" />
      <path
         d="m266.76 131.677c-4.143 0-7.5 3.357-7.5 7.5v15.884c0 4.143 3.357 7.5 7.5 7.5s7.5-3.357 7.5-7.5v-15.884c0-4.143-3.358-7.5-7.5-7.5z"
         id="path60" />
      <path
         d="m439.104 183.66c-18.645 0-33.813 15.169-33.813 33.813s15.169 33.813 33.813 33.813 33.813-15.169 33.813-33.813-15.169-33.813-33.813-33.813zm0 52.627c-10.374 0-18.813-8.439-18.813-18.813s8.439-18.813 18.813-18.813 18.813 8.439 18.813 18.813-8.439 18.813-18.813 18.813z"
         id="path62" />
      <path
         d="m478.239 403.732c4.143 0 7.5-3.357 7.5-7.5 0-6.388 0-129.343 0-136.225 10.253-11.231 16.516-26.164 16.516-42.534s-6.263-31.302-16.516-42.534v-11.426c0-36.087-24.497-66.543-57.729-75.661.612-1.801.958-3.722.958-5.726v-48.316c0-9.885-8.074-17.926-17.999-17.926h-6.695v-8.384c0-4.143-3.357-7.5-7.5-7.5s-7.5 3.357-7.5 7.5v8.384h-6.695c-9.925 0-17.999 8.041-17.999 17.926v23.917h-202.31v-3.346c0-4.143-3.357-7.5-7.5-7.5s-7.5 3.357-7.5 7.5v3.346h-.271c-4.143 0-7.5 3.357-7.5 7.5s3.357 7.5 7.5 7.5h.271v13.927c-35.757 7.346-62.649 39.071-62.649 76.86v94.802c0 16.135 13.126 29.261 29.261 29.261h6.062v7.188c0 10.916 8.881 19.797 19.797 19.797h7.529v7.202h-4.114c-4.143 0-7.5 3.357-7.5 7.5s3.357 7.5 7.5 7.5h4.114v7.202h-71.148c-7.224 0-13.44 4.363-16.173 10.589h-8.932c-12.847 0-23.298 10.451-23.298 23.298v77.165c-9.984.418-17.983 8.647-17.983 18.732v19.47c0 10.352 8.421 18.772 18.771 18.772h454.977c10.351 0 18.771-8.421 18.771-18.772v-19.47c0-9.586-7.227-17.503-16.516-18.622v-23.893c0-4.143-3.357-7.5-7.5-7.5s-7.5 3.357-7.5 7.5v23.744h-258.6v-85.423h258.601v26.679c-.001 4.14 3.357 7.497 7.499 7.497zm-39.135-138.108c-26.55 0-48.15-21.601-48.15-48.15 0-26.551 21.601-48.151 48.15-48.151 26.592 0 48.151 21.643 48.151 48.151 0 26.647-21.703 48.15-48.151 48.15zm-59.524-231.814c0-1.586 1.373-2.926 2.999-2.926h28.391c1.626 0 2.999 1.34 2.999 2.926v48.317c0 1.585-1.373 2.925-2.999 2.925-16.21 0-12.18 0-28.391 0-1.626 0-2.999-1.34-2.999-2.925zm-217.31 38.917h202.31v9.4c0 .998.103 1.971.261 2.925h-201.759c-.272 0-.541.018-.812.021zm-60.365 73.95h40.653c2.599 0 4.712 2.113 4.712 4.712v78.903c0 2.598-2.113 4.711-4.712 4.711h-42.938v-71.489c0-5.433.683-11.018 2.285-16.837zm33.038 148.087v-7.188h39.651v7.188c0 2.601-2.196 4.797-4.796 4.797h-30.058c-2.6 0-4.797-2.197-4.797-4.797zm-92.224 83.088c0-4.575 3.723-8.298 8.298-8.298h7.443v85.423h-15.741zm-14.212 119.138c-2.044 0-3.771-1.728-3.771-3.772v-19.47c0-2.044 1.728-3.771 3.771-3.771h6.712 23.241v24.352c0 .548.033 1.087.082 1.623.014.157.034.312.053.468.023.19.036.383.065.571h-30.153zm44.953-2.662c0-3.307 0-131.678 0-132.274v-.427c0-1.468 1.194-2.662 2.662-2.662h118.355c1.468 0 2.661 1.194 2.661 2.662v.427 132.274c0 1.468-1.193 2.662-2.661 2.662h-118.355c-1.468 0-2.662-1.194-2.662-2.662zm410.023-24.351c2.044 0 3.771 1.728 3.771 3.771v19.47c0 2.045-1.728 3.772-3.771 3.772h-271.545c.029-.188.042-.381.065-.571.019-.156.039-.311.053-.468.049-.535.082-1.075.082-1.623v-24.352c14.933.001 256.087.001 271.345.001zm-123.042-115.423v-117.773c0-14.574-11.857-26.432-26.432-26.432h-31.33c-4.143 0-7.5 3.357-7.5 7.5s3.357 7.5 7.5 7.5h31.33c6.304 0 11.432 5.128 11.432 11.432v117.772h-134.791c-2.734-6.226-8.949-10.589-16.172-10.589h-32.208v-7.202h4.113c4.143 0 7.5-3.357 7.5-7.5s-3.357-7.5-7.5-7.5h-4.113v-7.202h7.529c10.915 0 19.796-8.881 19.796-19.797v-7.188h6.062c16.135 0 29.261-13.126 29.261-29.261v-21.534c0-6.304 5.128-11.432 11.432-11.432h31.33c4.143 0 7.5-3.357 7.5-7.5s-3.357-7.5-7.5-7.5h-31.33c-14.574 0-26.432 11.857-26.432 26.432v21.534c0 7.863-6.397 14.261-14.261 14.261h-13.562-54.651-13.562c-7.863 0-14.261-6.397-14.261-14.261v-8.312h42.938c10.869 0 19.712-8.843 19.712-19.711v-78.903c0-10.869-8.843-19.712-19.712-19.712h-34.339c11.005-18.891 31.469-31.625 54.863-31.625h244.195c34.752 0 63.069 28.079 63.458 62.74-9.902-5.75-20.882-8.47-31.632-8.47-34.821 0-63.15 28.33-63.15 63.151s28.329 63.15 63.15 63.15c11.052 0 21.987-2.868 31.636-8.473v82.402h-110.299z"
         id="path64" />
    </g>
  </g>
</svg>
