<?xml version="1.0" encoding="UTF-8" standalone="no"?>
<svg
   height="512pt"
   viewBox="-18 0 512 512.00882"
   width="512pt"
   version="1.1"
   id="svg50"
   sodipodi:docname="spray.svg"
   inkscape:version="1.1.2 (b8e25be833, 2022-02-05)"
   xmlns:inkscape="http://www.inkscape.org/namespaces/inkscape"
   xmlns:sodipodi="http://sodipodi.sourceforge.net/DTD/sodipodi-0.dtd"
   xmlns="http://www.w3.org/2000/svg"
   xmlns:svg="http://www.w3.org/2000/svg"
   xmlns:rdf="http://www.w3.org/1999/02/22-rdf-syntax-ns#"
   xmlns:cc="http://creativecommons.org/ns#"
   xmlns:dc="http://purl.org/dc/elements/1.1/">
  <metadata
     id="metadata56">
    <rdf:RDF>
      <cc:Work
         rdf:about="">
        <dc:format>image/svg+xml</dc:format>
        <dc:type
           rdf:resource="http://purl.org/dc/dcmitype/StillImage" />
      </cc:Work>
    </rdf:RDF>
  </metadata>
  <defs
     id="defs54" />
  <sodipodi:namedview
     pagecolor="#ffffff"
     bordercolor="#666666"
     borderopacity="1"
     objecttolerance="10"
     gridtolerance="10"
     guidetolerance="10"
     inkscape:pageopacity="0"
     inkscape:pageshadow="2"
     inkscape:window-width="1280"
     inkscape:window-height="666"
     id="namedview52"
     showgrid="false"
     inkscape:zoom="0.65185547"
     inkscape:cx="448.7191"
     inkscape:cy="313.71985"
     inkscape:window-x="-8"
     inkscape:window-y="1076"
     inkscape:window-maximized="1"
     inkscape:current-layer="svg50"
     inkscape:pagecheckerboard="0"
     inkscape:document-units="pt" />
  <path
     d="m 126.81393,334.30425 -11.32573,68.63779 36.0334,13.72817 39.46543,-13.72817 11.32574,-68.63779 -37.06301,-13.72513 z m 0,0"
     fill="#3f5c6c"
     id="path2"
     style="stroke-width:0.777524" />
  <path
     d="M 178.54361,238.21317 H 71.29991 v 27.45633 h 75.07362"
     fill="#3f5c6c"
     id="path4"
     style="stroke-width:0.777524" />
  <path
     d="m 224.07131,226.1342 -17.29688,-41.73119 -30.37205,-17.11161 -14.03493,35.50796 14.68793,35.41381 51.11312,26.88533 z m 0,0"
     fill="#2c2f38"
     id="path6"
     style="stroke-width:0.777524" />
  <g
     fill="#e64c3c"
     id="g28"
     transform="matrix(0.77752443,0,0,0.77752443,55.42747,46.024917)">
    <path
       d="m 397.24609,291.32031 c 0,4.875 -3.95312,8.82813 -8.82812,8.82813 -4.875,0 -8.82813,-3.95313 -8.82813,-8.82813 0,-4.875 3.95313,-8.82812 8.82813,-8.82812 4.875,0 8.82812,3.95312 8.82812,8.82812 z m 0,0"
       id="path8" />
    <path
       d="m 476.69531,344.28516 c 0,4.875 -3.95312,8.82812 -8.82812,8.82812 -4.875,0 -8.82813,-3.95312 -8.82813,-8.82812 0,-4.875 3.95313,-8.82813 8.82813,-8.82813 4.875,0 8.82812,3.95313 8.82812,8.82813 z m 0,0"
       id="path10" />
    <path
       d="m 476.69531,308.97266 c 0,4.8789 -3.95312,8.82812 -8.82812,8.82812 -4.875,0 -8.82813,-3.94922 -8.82813,-8.82812 0,-4.875 3.95313,-8.82422 8.82813,-8.82422 4.875,0 8.82812,3.94922 8.82812,8.82422 z m 0,0"
       id="path12" />
    <path
       d="m 476.69531,273.66406 c 0,4.875 -3.95312,8.82813 -8.82812,8.82813 -4.875,0 -8.82813,-3.95313 -8.82813,-8.82813 0,-4.875 3.95313,-8.82812 8.82813,-8.82812 4.875,0 8.82812,3.95312 8.82812,8.82812 z m 0,0"
       id="path14" />
    <path
       d="m 476.69531,238.35547 c 0,4.875 -3.95312,8.82422 -8.82812,8.82422 -4.875,0 -8.82813,-3.94922 -8.82813,-8.82422 0,-4.87891 3.95313,-8.82813 8.82813,-8.82813 4.875,0 8.82812,3.94922 8.82812,8.82813 z m 0,0"
       id="path16" />
    <path
       d="m 450.21094,326.62891 c 0,4.875 -3.95313,8.82812 -8.82813,8.82812 -4.875,0 -8.82812,-3.95312 -8.82812,-8.82812 0,-4.875 3.95312,-8.82813 8.82812,-8.82813 4.875,0 8.82813,3.95313 8.82813,8.82813 z m 0,0"
       id="path18" />
    <path
       d="m 450.21094,291.32031 c 0,4.875 -3.95313,8.82813 -8.82813,8.82813 -4.875,0 -8.82812,-3.95313 -8.82812,-8.82813 0,-4.875 3.95312,-8.82812 8.82812,-8.82812 4.875,0 8.82813,3.95312 8.82813,8.82812 z m 0,0"
       id="path20" />
    <path
       d="m 450.21094,256.00781 c 0,4.875 -3.95313,8.82813 -8.82813,8.82813 -4.875,0 -8.82812,-3.95313 -8.82812,-8.82813 0,-4.875 3.95312,-8.82812 8.82812,-8.82812 4.875,0 8.82813,3.95312 8.82813,8.82812 z m 0,0"
       id="path22" />
    <path
       d="m 423.73047,308.97266 c 0,4.8789 -3.95313,8.82812 -8.82813,8.82812 -4.875,0 -8.82812,-3.94922 -8.82812,-8.82812 0,-4.875 3.95312,-8.82422 8.82812,-8.82422 4.875,0 8.82813,3.94922 8.82813,8.82422 z m 0,0"
       id="path24" />
    <path
       d="m 423.73047,273.66406 c 0,4.875 -3.95313,8.82813 -8.82813,8.82813 -4.875,0 -8.82812,-3.95313 -8.82812,-8.82813 0,-4.875 3.95312,-8.82812 8.82812,-8.82812 4.875,0 8.82813,3.95312 8.82813,8.82812 z m 0,0"
       id="path26" />
  </g>
  <path
     d="m 82.88684,265.6695 -17.52163,12.99316 c -2.12908,1.06302 -4.65604,0.95064 -6.67882,-0.30068 -2.02277,-1.25133 -3.25588,-3.45938 -3.25588,-5.83751 V 231.3582 c 0,-2.37814 1.23311,-4.58618 3.25588,-5.83751 2.02278,-1.25133 4.54974,-1.36371 6.67882,-0.30069 l 17.52163,12.99317 z m 0,0"
     fill="#393f4a"
     id="path30"
     style="stroke-width:0.777524" />
  <path
     d="m 275.06901,402.94204 c -1.82232,0.003 -3.56871,-0.72285 -4.85345,-2.01063 l -34.31738,-34.31737 c -1.28777,-1.28778 -2.01063,-3.03417 -2.01063,-4.85346 V 258.80541 c 0,-3.79043 3.07062,-6.86408 6.86105,-6.86408 3.79043,0 6.86408,3.07365 6.86408,6.86408 v 100.11235 l 32.30675,32.30978 c 1.96507,1.96204 2.55125,4.9142 1.48823,7.4776 -1.06302,2.5634 -3.56264,4.2369 -6.33865,4.2369 z m 0,0"
     fill="#a5a5a4"
     id="path32"
     style="stroke-width:0.777524" />
  <path
     d="m 227.02347,420.91015 v 16.34927 c 0,3.79043 -3.07365,6.86408 -6.86408,6.86408 H 96.611974 c -3.790435,0 -6.864084,-3.07365 -6.864084,-6.86408 v -17.74639 c 0,-1.82232 0.72589,-3.56568 2.01063,-4.85345 l 9.7069,-9.70691 c 1.28778,-1.28777 3.03417,-2.01063 4.85346,-2.01063 h 91.62943 c 1.06606,0 2.11693,0.24905 3.07061,0.72589 L 223.23,414.77195 c 2.32346,1.16325 3.79347,3.54139 3.79347,6.1382 z m 0,0"
     fill="#393f4a"
     id="path34"
     style="stroke-width:0.777524" />
  <path
     d="m 336.83968,279.39766 h -20.58921 c -3.79043,0 -6.86408,-3.07365 -6.86408,-6.86408 0,-3.79043 3.07365,-6.86408 6.86408,-6.86408 h 20.58921 c 3.79347,0 6.86409,3.07365 6.86409,6.86408 0,3.79043 -3.07062,6.86408 -6.86409,6.86408 z m 0,0"
     fill="#7f8284"
     id="path36"
     style="stroke-width:0.777524" />
  <path
     d="m 288.79414,245.07725 22.25664,5.56416 c 3.05542,0.76537 5.19969,3.50797 5.19969,6.65755 v 30.46317 c 0,3.14958 -2.14427,5.89521 -5.19969,6.65755 l -22.25664,5.56719 -13.72513,-27.45329 z m 0,0"
     fill="#3f5c6c"
     id="path38"
     style="stroke-width:0.777524" />
  <path
     d="m 206.78354,184.41212 -44.38875,18.38724 c -14.00759,5.80106 -30.06833,-0.85042 -35.86939,-14.86104 l -31.520111,-76.09413 46.341671,-29.491263 48.77751,-9.90736 31.52011,76.094133 c 2.78512,6.7274 2.78512,14.28397 0,21.01138 -2.78815,6.72741 -8.13363,12.07289 -14.86104,14.86104 z m 0,0"
     fill="#90bae1"
     id="path40"
     style="stroke-width:0.777524" />
  <path
     d="m 220.15939,238.21317 h -89.22701 v 41.90431 c -0.1063,3.57479 -1.63401,6.96127 -4.24905,9.40622 -2.61503,2.44192 -6.0987,3.7388 -9.67349,3.59909 -7.49582,0.12756 -13.51253,6.23235 -13.53379,13.72817 v 13.72816 c 0.0213,7.57175 6.15642,13.70387 13.72817,13.72513 h 85.10855 c 6.05922,-0.0152 10.96431,-4.92331 10.98253,-10.97949 v -5.49127 c 0.0182,-6.05922 4.92331,-10.96431 10.98254,-10.98253 h 57.65525 c 3.79044,0 6.86105,-3.07365 6.86105,-6.86409 v -54.90962 c 0,-3.79043 -3.07061,-6.86408 -6.86105,-6.86408 h -20.59224"
     fill="#547580"
     id="path42"
     style="stroke-width:0.777524" />
  <path
     d="m 151.89517,184.29974 c -2.77904,0 -5.2817,-1.6735 -6.34472,-4.23993 l -21.01442,-50.73044 c -1.41534,-3.49278 0.25209,-7.47456 3.73273,-8.92027 3.48367,-1.44267 7.48063,0.19439 8.95064,3.66591 l 21.01138,50.73043 c 0.87472,2.11693 0.63781,4.53151 -0.63477,6.43888 -1.27259,1.90736 -3.41079,3.05239 -5.70084,3.05542 z m 0,0"
     fill="#ffffff"
     id="path44"
     style="stroke-width:0.777524" />
  <path
     d="m 261.34085,238.21317 c 0,11.37433 -9.21792,20.59224 -20.59225,20.59224 -11.3713,0 -20.58921,-9.21791 -20.58921,-20.59224 0,-11.3713 9.21791,-20.58921 20.58921,-20.58921 11.37433,0 20.59225,9.21791 20.59225,20.58921 z m 0,0"
     fill="#d1d4d1"
     id="path46"
     style="stroke-width:0.777524" />
  <path
     d="m 84.4996,86.480487 95.11918,-39.40166 c 7.00379,-2.90053 15.03416,0.42521 17.93469,7.43204 2.90053,7.0038 -0.42521,15.03417 -7.429,17.9347 L 95.005289,111.84419 C 88.00149,114.74472 79.97113,111.41898 77.0706,104.41518 74.17006,97.411387 77.4958,89.381017 84.4996,86.480487 Z m 0,0"
     fill="#56595e"
     id="path48"
     style="stroke-width:0.777524" />
</svg>
