<?xml version="1.0" encoding="UTF-8" standalone="no"?>
<svg
   xmlns:dc="http://purl.org/dc/elements/1.1/"
   xmlns:cc="http://creativecommons.org/ns#"
   xmlns:rdf="http://www.w3.org/1999/02/22-rdf-syntax-ns#"
   xmlns:svg="http://www.w3.org/2000/svg"
   xmlns="http://www.w3.org/2000/svg"
   xmlns:sodipodi="http://sodipodi.sourceforge.net/DTD/sodipodi-0.dtd"
   xmlns:inkscape="http://www.inkscape.org/namespaces/inkscape"
   id="Layer_1"
   enable-background="new 0 0 512 512"
   height="512"
   viewBox="0 0 512 512"
   width="512"
   version="1.1"
   sodipodi:docname="unknown.svg"
   inkscape:version="1.0.2-2 (e86c870879, 2021-01-15)">
  <metadata
     id="metadata23">
    <rdf:RDF>
      <cc:Work
         rdf:about="">
        <dc:format>image/svg+xml</dc:format>
        <dc:type
           rdf:resource="http://purl.org/dc/dcmitype/StillImage" />
        <dc:title />
      </cc:Work>
    </rdf:RDF>
  </metadata>
  <defs
     id="defs21" />
  <sodipodi:namedview
     pagecolor="#ffffff"
     bordercolor="#666666"
     borderopacity="1"
     objecttolerance="10"
     gridtolerance="10"
     guidetolerance="10"
     inkscape:pageopacity="0"
     inkscape:pageshadow="2"
     inkscape:window-width="1858"
     inkscape:window-height="1057"
     id="namedview19"
     showgrid="false"
     inkscape:zoom="0.8691406"
     inkscape:cx="78.83816"
     inkscape:cy="164.15917"
     inkscape:window-x="54"
     inkscape:window-y="438"
     inkscape:window-maximized="1"
     inkscape:current-layer="Layer_1"
     inkscape:document-rotation="0" />
  <g
     id="g883"
     transform="translate(-2.9132256,-4.1065805)"
     style="stroke-width:9.8;stroke-miterlimit:4;stroke-dasharray:none">
    <path
       id="path1753"
       style="fill:#ff0000;stroke-width:9.8;stroke:#000000;stroke-miterlimit:4;stroke-dasharray:none"
       d="m 258.83065,42.729781 c -16.19994,0 -29.45791,0.12307 -29.46,0.27347 -0.0621,3.04479 -11.1683,58.370319 -11.85537,59.057329 l -45.86597,14.22146 c -0.0255,-0.007 -0.078,-0.0322 -0.11127,-0.0443 -4.27409,-2.80135 -12.63193,-8.44331 -21.6386,-14.62355 -12.12933,-8.323049 -22.71735,-15.133729 -23.52806,-15.133729 -0.81065,0 -10.55372,9.08993 -21.65155,20.199929 l -20.177251,20.20101 0.2108,0.31022 -0.16315,0.1643 6.0628,9.08176 c 3.334198,4.99544 10.316531,15.23123 15.516371,22.74545 5.19985,7.51424 9.45363,14.66384 9.45363,15.88821 0,1.98609 -11.93257,32.78288 -16.113093,42.02553 -4.26101,4.19452 -11.335248,4.66372 -31.466168,8.39755 -13.23477,2.4547 -24.67844,4.97203 -25.43043,5.59475 -0.99075,0.82039 -1.48162,14.96075 -1.47543,29.01686 -0.006,14.05646 0.48468,28.19755 1.47543,29.01795 0.75199,0.62271 12.19566,3.14004 25.43043,5.59477 20.13092,3.73381 27.205158,4.20302 31.466168,8.39753 4.180523,9.24262 16.113093,40.03837 16.113093,42.02446 0,1.22437 -4.25378,8.37397 -9.45363,15.88821 -5.19984,7.51422 -12.182173,17.75001 -15.516371,22.74545 l -6.0628,9.08283 0.16315,0.16441 -0.2108,0.31021 20.177251,20.19993 c 11.09783,11.11 20.8409,20.19993 21.65155,20.19993 0.81071,0 11.39873,-6.8096 23.52806,-15.13266 9.00844,-6.18144 17.36854,-11.82493 21.64186,-14.62571 0.0322,-0.0126 0.0835,-0.0368 0.10813,-0.0433 l 45.86597,14.22253 c 0.68708,0.687 11.79327,56.01253 11.85537,59.05733 0,0.15039 13.26006,0.27348 29.46001,0.27348 h 29.45465 l 1.16739,-5.74285 c 0.6422,-3.15828 3.12009,-16.28129 5.50613,-29.16279 2.38597,-12.88151 4.75544,-23.83884 5.26615,-24.3495 l 45.16337,-14.59114 c 0.16106,0.004 0.68801,0.2636 1.3652,0.63018 4.37268,2.87016 12.42664,8.30339 21.19332,14.31657 12.14601,8.33118 22.73399,15.14779 23.52799,15.14779 0.79398,0 10.5235,-9.08994 21.62132,-20.19993 l 20.17726,-20.19994 -0.2108,-0.31022 0.16315,-0.1644 -6.06168,-9.08284 c -3.33416,-4.99544 -10.31659,-15.23123 -15.51637,-22.74545 -5.19986,-7.51425 -9.45469,-14.66384 -9.45469,-15.88821 0,-2.15639 14.45779,-39.29038 17.09556,-44.09222 0.1004,-0.10898 0.18721,-0.18616 0.25404,-0.21185 0.95836,-0.3679 13.54275,-2.87804 27.96517,-5.57854 14.42235,-2.70052 26.86091,-5.43944 27.6419,-6.08765 0.38154,-0.31662 0.69167,-2.52221 0.93173,-5.88661 0.38807,-5.15224 0.58498,-13.39077 0.60103,-21.8321 0,-0.45016 0.006,-0.89423 0.006,-1.34465 -2.3e-4,-0.45106 -0.006,-0.89599 -0.006,-1.3468 -0.0167,-8.44034 -0.21302,-16.67783 -0.60103,-21.82993 -0.24012,-3.36497 -0.55015,-5.57103 -0.93173,-5.88769 -0.78099,-0.6482 -13.21955,-3.3882 -27.6419,-6.08872 -14.42242,-2.7005 -27.00681,-5.21065 -27.96517,-5.57854 -0.0669,-0.0257 -0.15437,-0.10266 -0.25508,-0.21187 -2.63911,-4.80549 -17.09452,-41.93596 -17.09452,-44.09222 0,-1.22436 4.25483,-8.37396 9.45469,-15.8882 5.19978,-7.51423 12.18221,-17.75001 15.51637,-22.74546 l 6.06168,-9.08176 -0.16315,-0.1643 0.2108,-0.31022 -20.17726,-20.201 C 401.99848,95.570321 392.26896,86.480391 391.47498,86.480391 c -0.794,0 -11.38198,6.81659 -23.52799,15.147779 -8.7613,6.00951 -16.8089,11.43951 -21.1836,14.31117 -0.68236,0.36976 -1.21309,0.63183 -1.37492,0.63557 l -45.1635,-14.58997 c -0.5107,-0.51066 -2.88017,-11.467999 -5.26615,-24.349509 -2.38604,-12.88151 -4.86392,-26.00558 -5.50613,-29.16387 l -1.16738,-5.74176 z"
       sodipodi:nodetypes="sccccsscccccsscsscsscsscccccssccccsccscccsscccccsscssscccccssscsssccccsscccsscs" />
    <path
       style="display:inline;fill:#ffff00;fill-opacity:1;fill-rule:nonzero;stroke:#000000;stroke-width:9.8;stroke-miterlimit:4;stroke-dasharray:none"
       d="m 402.65928,260.23133 c 0.0743,-79.38605 -64.23756,-143.80247 -143.62349,-143.87308 -79.3909,-0.0704 -143.80719,64.23755 -143.86833,143.62359 -0.0743,79.39074 64.22808,143.80711 143.61881,143.87304 79.39539,0.0705 143.80256,-64.23756 143.87301,-143.62355"
       id="path1733" />
    <g
       id="g872"
       transform="matrix(1.313796,0,0,1.313796,-388.24078,685.81677)"
       style="fill:#ff0000;stroke:#000000;stroke-width:7.45930114;stroke-miterlimit:4;stroke-dasharray:none">
      <path
         d="m 493.12478,-262.18653 c -5.374,-1.269 -10.759,2.059 -12.027,7.433 -1.269,5.374 2.059,10.759 7.433,12.027 5.374,1.269 10.759,-2.059 12.027,-7.433 1.269,-5.374 -2.059,-10.759 -7.433,-12.027 z"
         id="path4"
         style="fill:#ff0000;stroke:#000000;stroke-width:7.45930114;stroke-miterlimit:4;stroke-dasharray:none" />
      <path
         d="m 490.44378,-396.45353 c -10.14,0 -20.136,3.707 -27.447,10.436 -7.03,6.46 -11.67,15.391 -13.07,25.15 -0.38,2.64 0.3,5.28 1.9,7.41 1.6,2.14 3.94,3.52 6.58,3.899 2.86,0.41 5.77,-0.439 7.94,-2.319 1.84,-1.57 3.04,-3.761 3.38,-6.16 0.74,-5.2 3.16,-9.9 6.79,-13.24 3.77,-3.41 8.6,-5.16 13.88,-5.18 11.15,0.14 20.875,9.975 21.415,21.165 -0.06,6.75 -2.685,12.734 -7.825,16.524 -7.3,5.28 -13.32,12.29 -17.42,20.29 -4.11,8.021 -6.29,17.021 -6.29,26.021 0,2.63 1.07,5.21 2.93,7.069 1.86,1.86 4.715,2.931 7.345,2.931 5.51,0 10.275,-4.49 10.275,-10 0,-0.99 -0.127,-5.724 0.141,-7.097 1.794,-9.19 7.021,-17.418 14.739,-23.004 4.98,-3.58 9.09,-8.39 11.88,-13.92 2.8,-5.56 4.24,-13.01 4.21,-19.34 -0.59,-10.42 -5.07,-21.37 -12.56,-28.71 -7.56,-7.408 -18.223,-11.645 -28.793,-11.925 z"
         id="path12"
         style="fill:#ff0000;stroke:#000000;stroke-width:7.45930114;stroke-miterlimit:4;stroke-dasharray:none" />
    </g>
  </g>
</svg>
