<?xml version="1.0" encoding="UTF-8" standalone="no"?>
<svg
   xmlns:dc="http://purl.org/dc/elements/1.1/"
   xmlns:cc="http://creativecommons.org/ns#"
   xmlns:rdf="http://www.w3.org/1999/02/22-rdf-syntax-ns#"
   xmlns:svg="http://www.w3.org/2000/svg"
   xmlns="http://www.w3.org/2000/svg"
   xmlns:sodipodi="http://sodipodi.sourceforge.net/DTD/sodipodi-0.dtd"
   xmlns:inkscape="http://www.inkscape.org/namespaces/inkscape"
   height="512pt"
   viewBox="0 0 512 512.00046"
   width="512pt"
   version="1.1"
   id="svg32"
   sodipodi:docname="welding.svg"
   inkscape:version="1.0.2-2 (e86c870879, 2021-01-15)">
  <metadata
     id="metadata38">
    <rdf:RDF>
      <cc:Work
         rdf:about="">
        <dc:format>image/svg+xml</dc:format>
        <dc:type
           rdf:resource="http://purl.org/dc/dcmitype/StillImage" />
      </cc:Work>
    </rdf:RDF>
  </metadata>
  <defs
     id="defs36" />
  <sodipodi:namedview
     pagecolor="#ffffff"
     bordercolor="#666666"
     borderopacity="1"
     objecttolerance="10"
     gridtolerance="10"
     guidetolerance="10"
     inkscape:pageopacity="0"
     inkscape:pageshadow="2"
     inkscape:window-width="1858"
     inkscape:window-height="1057"
     id="namedview34"
     showgrid="false"
     inkscape:zoom="0.65185547"
     inkscape:cx="234.72064"
     inkscape:cy="524.83001"
     inkscape:window-x="54"
     inkscape:window-y="-8"
     inkscape:window-maximized="1"
     inkscape:current-layer="svg32"
     inkscape:document-rotation="0" />
  <path
     d="m 302.33287,320.7969 c -2.8142,16.15204 -9.3136,31.43583 -18.99931,44.66341 l -17.06714,18.24959 c -3.87539,3.25246 -7.97679,6.22929 -12.27114,8.90843 -9.58648,6.0639 -20.11011,10.50433 -31.14366,13.14214 H 173.02013 C 125.52321,394.20597 92.078024,351.67871 92.044948,302.79538 V 190.67654 C 92.047707,159.7148 117.144,134.6185 148.10574,134.61575 h 99.66302 c 30.95898,0.003 56.05529,25.09905 56.05804,56.06079 v 58.24104 z m 0,0"
     fill="#464f5d"
     id="path2"
     style="stroke-width:0.705618" />
  <path
     d="m 135.64717,184.44726 h 124.5774 c 3.43989,0 6.22928,2.7894 6.22928,6.22928 v 49.83151 c 0,3.43989 -2.78939,6.22928 -6.22928,6.22928 h -124.5774 c -3.43988,0 -6.22927,-2.78939 -6.22927,-6.22928 v -49.83151 c 0,-3.43988 2.78939,-6.22928 6.22927,-6.22928 z m 0,0"
     fill="#b0d3f0"
     id="path4"
     style="stroke-width:0.705618" />
  <path
     d="m 289.23208,316.32339 -9.91173,9.91173 c -4.67197,4.67196 -7.29873,11.00874 -7.29873,17.61839 0,6.6069 2.62676,12.94644 7.29873,17.61565 l 8.7651,8.76509 -7.20226,13.43155 -10.41613,4.18686 -8.7651,-8.7651 c -19.42379,-19.47617 -19.42379,-50.99469 0,-70.47083 l 20.92322,-20.92048 9.71603,11.98449 z m 0,0"
     fill="#bdc3c7"
     id="path6"
     style="stroke-width:0.705618" />
  <path
     d="m 321.57474,359.03809 10.85438,10.85714 c 2.43384,2.43107 2.43384,6.37537 0,8.80919 -2.43107,2.43108 -2.43107,6.37538 0,8.80921 l 26.4276,26.42483 c 1.16868,1.16869 1.82469,2.75357 1.82469,4.40461 0,1.65379 -0.65601,3.23868 -1.82469,4.40459 l -4.4046,4.40461 c -2.43107,2.43382 -2.43107,6.37812 0,8.80919 l 20.47395,21.04726 c 4.86491,4.86491 4.86491,12.75074 0,17.61565 l -17.6184,17.61839 c -4.8649,4.86491 -12.75349,4.86491 -17.61839,0 l -75.9063,-76.4796 c -1.16868,-1.16869 -1.82469,-2.75082 -1.82469,-4.40461 v -12.4558 c 0,-1.6538 0.65601,-3.23869 1.82469,-4.40462 l 32.07805,-32.0808 c 0.87099,-0.86824 1.97904,-1.46085 3.18355,-1.70341 l 16.90451,-3.37924 c 2.04244,-0.40793 4.15377,0.23153 5.62565,1.70341 z m 0,0"
     fill="#2980ba"
     id="path8"
     style="stroke-width:0.705618" />
  <path
     d="m 440.2481,135.83128 c 8.98835,-4.12896 15.98665,2.86658 11.85769,11.85769 -6.79434,14.22538 -15.2645,27.58802 -25.23411,39.80127 -10.94535,10.9481 -25.73576,13.90563 -33.03725,6.61241 -7.29874,-7.29599 -4.33845,-22.08916 6.6069,-33.03449 12.216,-9.96962 25.57864,-18.44254 39.80677,-25.23688 z m 0,0"
     fill="#26b99a"
     id="path10"
     style="stroke-width:0.705618" />
  <path
     d="m 305.82238,246.9854 -0.0634,-0.0634"
     fill="#e4c05c"
     id="path12"
     style="stroke-width:0.705618" />
  <path
     d="M 389.41329,233.71923 341.01507,282.1781 316.28536,271.65171 305.82238,246.9854 354.2206,198.52378 c 2.32633,-2.33184 5.48507,-3.64386 8.78164,-3.64386 3.29655,0 6.45528,1.31202 8.78162,3.64386 l 17.62943,17.62943 c 2.33185,2.32634 3.64386,5.48783 3.64386,8.78163 0,3.29656 -1.31201,6.4553 -3.64386,8.78439 z m 0,0"
     fill="#b19046"
     id="path14"
     style="stroke-width:0.705618" />
  <path
     d="m 210.39305,184.44726 c -0.0193,0.97298 -0.25358,1.92942 -0.68356,2.80318 l -29.71313,59.48689 h -13.20552 c 0.0221,-0.97297 0.25357,-1.93218 0.68632,-2.80317 l 29.77376,-59.4869 z m 0,0"
     fill="#ffffff"
     id="path16"
     style="stroke-width:0.705618" />
  <path
     d="m 179.2494,184.44726 c -0.0193,0.97298 -0.25359,1.92942 -0.68357,2.80318 l -29.71313,59.48689 h -13.20553 c 0.0193,-0.97297 0.25359,-1.93218 0.68633,-2.80317 l 29.77377,-59.4869 z m 0,0"
     fill="#ffffff"
     id="path18"
     style="stroke-width:0.705618" />
  <path
     d="m 294.61517,405.12927 c 0,3.44264 -2.78939,6.22928 -6.22929,6.22928 -3.43988,0 -6.22928,-2.78664 -6.22928,-6.22928 0,-3.4399 2.7894,-6.22652 6.22928,-6.22652 3.4399,0 6.22929,2.78662 6.22929,6.22652 z m 0,0"
     fill="#d1d4d1"
     id="path20"
     style="stroke-width:0.705618" />
  <path
     d="m 197.93724,302.79538 c 13.75955,0 24.91438,11.15482 24.91438,24.91713 v 155.72105 c 0,6.88254 -5.57603,12.45857 -12.45857,12.45857 h -24.91437 c -6.87977,0 -12.45855,-5.57603 -12.45855,-12.45857 V 327.71251 c 0,-13.76231 11.15481,-24.91713 24.91711,-24.91713 z m 0,0"
     fill="#cbb292"
     id="path22"
     style="stroke-width:0.705618" />
  <path
     d="m 204.16653,358.85617 c 0,3.43988 -2.78939,6.22928 -6.22929,6.22928 -3.43988,0 -6.22928,-2.7894 -6.22928,-6.22928 0,-3.43989 2.7894,-6.22929 6.22928,-6.22929 3.4399,0 6.22929,2.7894 6.22929,6.22929 z m 0,0"
     fill="#56595e"
     id="path24"
     style="stroke-width:0.705618" />
  <path
     d="m 204.16653,333.9418 c 0,3.43988 -2.78939,6.22927 -6.22929,6.22927 -3.43988,0 -6.22928,-2.78939 -6.22928,-6.22927 0,-3.4399 2.7894,-6.22929 6.22928,-6.22929 3.4399,0 6.22929,2.78939 6.22929,6.22929 z m 0,0"
     fill="#56595e"
     id="path26"
     style="stroke-width:0.705618" />
  <path
     d="m 341.01507,282.1781 -40.55099,40.48759 c -1.59315,1.61244 -3.93877,2.22985 -6.11903,1.60693 -2.17748,-0.62293 -3.84506,-2.38422 -4.34672,-4.5948 l -9.90345,-42.91865 c -0.50992,-2.09204 0.12954,-4.29986 1.68136,-5.79378 l 24.04614,-23.97999 z m 0,0"
     fill="#e4c05c"
     id="path28"
     style="stroke-width:0.705618" />
  <path
     d="m 316.38184,286.59373 c 0,3.43988 -2.78941,6.22928 -6.2293,6.22928 -3.43987,0 -6.22927,-2.7894 -6.22927,-6.22928 0,-3.43989 2.7894,-6.22929 6.22927,-6.22929 3.43989,0 6.2293,2.7894 6.2293,6.22929 z m 0,0"
     fill="#2c2f38"
     id="path30"
     style="stroke-width:0.705618" />
</svg>
